<svg width="2463" height="1094" viewBox="0 0 2463 1094" fill="none" xmlns="http://www.w3.org/2000/svg">
<path d="M2210.36 721.73H2136.18V371.321H2210.36V721.73Z" fill="white"/>
<path d="M1842.51 721.73L1750.76 488.937V721.73H1683.41V371.321H1772.23L1873.74 630.955L1975.74 371.321H2064.56V721.73H1997.21V486.985L1904.49 721.73H1842.51Z" fill="white"/>
<path d="M1455.06 729.05C1429.68 729.05 1405.93 724.658 1383.8 715.873C1362.01 706.763 1342.81 694.074 1326.22 677.807C1309.95 661.539 1297.26 642.18 1288.15 619.73C1279.04 596.955 1274.48 572.066 1274.48 545.061C1274.48 519.032 1278.88 495.119 1287.66 473.32C1296.45 451.521 1308.81 432.325 1324.75 415.732C1340.69 399.139 1359.4 386.45 1380.88 377.665C1402.68 368.555 1426.43 364 1452.13 364C1481.74 364 1508.25 369.531 1531.68 380.593C1555.43 391.33 1575.28 406.296 1591.22 425.492C1607.49 444.688 1619.53 467.138 1627.33 492.841H1539.98C1536.4 480.803 1530.54 470.229 1522.41 461.119C1514.27 451.684 1504.19 444.2 1492.15 438.669C1480.11 433.138 1466.12 430.373 1450.18 430.373C1431.31 430.373 1414.23 434.928 1398.93 444.038C1383.97 452.822 1372.09 465.999 1363.31 483.569C1354.85 500.812 1350.62 521.961 1350.62 547.013C1350.62 569.463 1354.69 589.635 1362.82 607.529C1370.95 625.424 1382.99 639.74 1398.93 650.477C1415.2 660.888 1435.05 666.094 1458.47 666.094C1475.72 666.094 1490.68 663.003 1503.37 656.821C1516.39 650.314 1526.96 641.529 1535.1 630.467C1543.55 619.08 1549.41 606.228 1552.66 591.912H1451.15V532.86H1631.73C1633.03 561.492 1629.77 587.845 1621.97 611.922C1614.16 635.673 1602.44 656.333 1586.83 673.902C1571.54 691.472 1552.66 705.137 1530.22 714.897C1508.09 724.333 1483.04 729.05 1455.06 729.05Z" fill="white"/>
<path d="M1001.31 721.73L909.564 488.937V721.73H842.215V371.321H931.038L1032.55 630.955L1134.55 371.321H1223.37V721.73H1156.02V486.985L1063.3 721.73H1001.31Z" fill="white"/>
<path d="M523.368 309C547.554 309 567.16 328.606 567.16 352.792V363.134L574.473 355.821C591.574 338.72 619.302 338.72 636.403 355.821C645.471 364.889 649.73 376.944 649.182 388.818C661.056 388.27 673.111 392.529 682.179 401.597C699.281 418.699 699.281 446.426 682.179 463.528L674.867 470.84H685.208C709.394 470.84 729 490.446 729 514.632C729 527.455 723.487 538.991 714.703 547C723.487 555.009 729 566.544 729 579.368C729 603.554 709.394 623.16 685.208 623.16H674.865L682.179 630.474C699.281 647.575 699.281 675.303 682.179 692.405C673.111 701.473 661.057 705.731 649.183 705.184C649.73 717.058 645.472 729.112 636.404 738.18C619.302 755.281 591.574 755.282 574.473 738.18L567.16 730.867V741.208C567.16 765.394 547.554 785 523.368 785C510.545 785 499.009 779.488 491 770.705C482.991 779.488 471.455 785 458.632 785C434.446 785 414.84 765.394 414.84 741.208V730.867L407.527 738.18C390.425 755.281 362.698 755.281 345.596 738.18C336.528 729.112 332.269 717.057 332.816 705.184C320.943 705.731 308.889 701.471 299.821 692.404C282.719 675.302 282.719 647.574 299.821 630.473L307.134 623.16H296.792C272.606 623.16 253 603.554 253 579.368C253 566.545 258.512 555.009 267.295 547C258.512 538.991 253 527.455 253 514.632C253 490.446 272.606 470.84 296.792 470.84H307.133L299.821 463.528C282.719 446.426 282.719 418.699 299.821 401.598C308.889 392.53 320.943 388.27 332.816 388.817C332.269 376.944 336.529 364.89 345.597 355.822C362.699 338.721 390.426 338.72 407.527 355.822L414.84 363.135V352.792C414.84 328.606 434.446 309 458.632 309C471.455 309 482.991 314.513 491 323.297C499.009 314.513 510.544 309 523.368 309ZM523.368 331.848C511.801 331.848 502.424 341.225 502.424 352.792L502.423 381.153C497.167 384.766 492.851 389.87 490.19 396.165C487.774 390.615 484.069 386.014 479.576 382.563V352.792C479.576 341.225 470.199 331.848 458.632 331.848C447.065 331.848 437.688 341.225 437.688 352.792V382.348C433.116 385.787 429.553 390.255 427.197 395.276C422.651 393.689 417.768 393.043 412.857 393.464L391.371 371.978C383.192 363.799 369.931 363.799 361.752 371.978C353.577 380.153 353.573 393.406 361.74 401.586L381.806 421.65C380.644 427.921 381.2 434.582 383.771 440.915C378.137 438.699 372.264 438.066 366.646 438.804L345.584 417.741L344.802 416.999C336.58 409.583 323.896 409.834 315.977 417.753C307.798 425.932 307.798 439.193 315.977 447.372L336.876 468.271C336.075 473.937 336.715 479.615 338.6 484.831C334.264 486.923 330.354 489.919 327.18 493.688L296.792 493.688C285.225 493.688 275.848 503.065 275.848 514.632C275.848 526.193 285.217 535.567 296.775 535.576H325.151C328.764 540.833 333.868 545.15 340.164 547.811C334.614 550.226 330.014 553.931 326.563 558.424H296.775L295.697 558.452C284.639 559.022 275.848 568.168 275.848 579.368C275.848 590.935 285.225 600.312 296.792 600.312H326.346C329.786 604.885 334.254 608.449 339.275 610.805C337.688 615.349 337.042 620.232 337.463 625.142L315.977 646.629C307.798 654.808 307.798 668.069 315.977 676.248C324.152 684.423 337.404 684.427 345.584 676.26L365.647 656.195C371.919 657.358 378.58 656.802 384.914 654.231C382.698 659.864 382.065 665.736 382.803 671.353L361.74 692.416L360.997 693.198C353.581 701.42 353.833 714.104 361.752 722.023C369.931 730.203 383.192 730.202 391.371 722.023L412.269 701.125C417.935 701.927 423.614 701.287 428.83 699.402C430.922 703.739 433.919 707.649 437.688 710.823V741.208C437.688 752.775 447.065 762.152 458.632 762.152C470.193 762.152 479.567 752.783 479.576 741.225V712.849C484.832 709.236 489.148 704.133 491.809 697.837C494.224 703.387 497.93 707.986 502.423 711.437L502.424 741.225L502.452 742.303C503.022 753.361 512.168 762.152 523.368 762.152C534.935 762.152 544.312 752.775 544.312 741.208L544.311 711.652C548.883 708.213 552.445 703.747 554.801 698.727C559.347 700.314 564.231 700.959 569.142 700.537L590.629 722.024C598.808 730.203 612.069 730.203 620.248 722.024C628.427 713.845 628.427 700.584 620.248 692.405L600.193 672.351C601.355 666.08 600.799 659.42 598.229 653.087C603.861 655.303 609.735 655.934 615.352 655.196L636.404 676.249C644.583 684.428 657.844 684.428 666.023 676.249C674.202 668.07 674.202 654.809 666.023 646.63L645.123 625.729C645.924 620.065 645.284 614.389 643.4 609.174C647.738 607.082 651.649 604.083 654.823 600.312H685.208C696.775 600.312 706.152 590.935 706.152 579.368C706.152 567.801 696.775 558.424 685.208 558.424H656.848C653.235 553.168 648.132 548.853 641.837 546.192C647.387 543.776 651.987 540.07 655.438 535.576H685.208C696.775 535.576 706.152 526.199 706.152 514.632C706.152 503.065 696.775 493.688 685.208 493.688H655.648C652.21 489.117 647.744 485.556 642.726 483.201C644.313 478.655 644.958 473.769 644.536 468.858L666.023 447.372C674.202 439.193 674.202 425.932 666.023 417.753C657.844 409.574 644.582 409.574 636.403 417.753L616.349 437.807C610.078 436.645 603.418 437.202 597.085 439.772C599.301 434.139 599.933 428.266 599.195 422.648L620.248 401.597C628.427 393.418 628.427 380.157 620.248 371.978C612.069 363.798 598.808 363.799 590.629 371.978L569.727 392.878C564.063 392.077 558.386 392.718 553.172 394.602C551.08 390.264 548.082 386.354 544.312 383.18L544.312 352.792C544.312 341.225 534.935 331.848 523.368 331.848Z" fill="#B49C81"/>
<path d="M490.19 396.164C497.546 378.76 517.55 370.46 535.095 377.617C543.34 380.981 549.585 387.165 553.172 394.6C560.936 391.796 569.724 391.744 577.969 395.107C595.514 402.265 604.002 422.189 597.085 439.771C614.592 432.666 634.607 440.942 641.952 458.409C645.404 466.618 645.447 475.406 642.726 483.2C650.199 486.707 656.449 492.884 659.901 501.093C667.246 518.559 659.16 538.65 641.837 546.191C659.24 553.546 667.541 573.551 660.384 591.095C657.02 599.341 650.836 605.586 643.4 609.173C646.205 616.936 646.257 625.724 642.894 633.968C635.736 651.514 615.811 660.003 598.229 653.086C605.334 670.593 597.06 690.607 579.593 697.952C571.384 701.404 562.594 701.447 554.801 698.725C551.294 706.198 545.118 712.449 536.909 715.901C519.442 723.246 499.35 715.16 491.809 697.836C484.454 715.24 464.45 723.543 446.904 716.385C438.659 713.022 432.416 706.836 428.83 699.401C421.066 702.206 412.277 702.259 404.031 698.895C386.487 691.738 377.997 671.812 384.914 654.23C367.407 661.335 347.392 653.061 340.047 635.594C336.595 627.386 336.554 618.597 339.275 610.803C331.802 607.297 325.55 601.12 322.098 592.911C314.753 575.443 322.84 555.35 340.164 547.809C322.76 540.454 314.458 520.45 321.615 502.905C324.979 494.66 331.164 488.416 338.6 484.83C335.794 477.066 335.742 468.277 339.105 460.031C346.263 442.486 366.188 433.997 383.771 440.914C376.665 423.407 384.94 403.392 402.407 396.047C410.616 392.595 419.404 392.554 427.197 395.275C430.704 387.801 436.882 381.55 445.091 378.097C462.558 370.752 482.649 378.84 490.19 396.164ZM526.465 398.772C520.468 396.326 513.622 399.204 511.175 405.201L503.083 425.033C499.594 424.735 496.063 424.582 492.497 424.582C487.499 424.582 482.572 424.883 477.731 425.463L469.306 405.425C466.795 399.454 459.918 396.648 453.947 399.159C447.979 401.669 445.175 408.541 447.681 414.51L454.442 430.592C447.124 432.975 440.111 436.027 433.477 439.675L426.619 423.367L426.37 422.818C423.677 417.231 417.046 414.677 411.264 417.108C405.293 419.619 402.487 426.496 404.998 432.467L413.678 453.109L413.789 453.154C407.408 458.508 401.588 464.502 396.43 471.035L396.285 470.689L375.551 462.231C369.553 459.785 362.708 462.664 360.261 468.661C357.816 474.656 360.692 481.498 366.685 483.947L383.681 490.881C380.229 497.62 377.394 504.723 375.25 512.117L358.054 505.102L357.49 504.89C351.635 502.845 345.14 505.727 342.771 511.535C340.324 517.532 343.203 524.378 349.2 526.825L369.936 535.284L370.983 534.843C370.664 538.415 370.501 542.033 370.501 545.688C370.501 550.724 370.813 555.688 371.414 560.563L370.067 560.014L349.425 568.695C343.454 571.206 340.649 578.083 343.159 584.053C345.669 590.022 352.541 592.826 358.51 590.32L376.343 582.82C378.714 590.137 381.769 597.149 385.431 603.784L367.366 611.382L366.817 611.631C361.231 614.324 358.677 620.955 361.108 626.737C363.619 632.708 370.496 635.513 376.467 633.003L397.108 624.322L397.959 622.235C403.586 629.075 409.951 635.294 416.934 640.77L414.689 641.715L406.231 662.45C403.785 668.447 406.664 675.293 412.661 677.74C418.656 680.185 425.498 677.309 427.947 671.316L435.503 652.792C442.202 656.312 449.271 659.23 456.637 661.475L449.103 679.947L448.891 680.51C446.845 686.365 449.727 692.861 455.535 695.23C461.533 697.677 468.378 694.798 470.825 688.801L479.283 668.065L478.412 665.994C483.034 666.521 487.733 666.794 492.497 666.794C496.623 666.794 500.701 666.589 504.722 666.192L504.013 667.931L512.694 688.576C515.205 694.546 522.081 697.35 528.052 694.84C534.022 692.329 536.829 685.453 534.318 679.482L526.926 661.902C534.322 659.746 541.427 656.914 548.168 653.476L555.38 670.626C557.891 676.596 564.765 679.4 570.735 676.89C576.706 674.38 579.512 667.505 577.002 661.534L568.321 640.89L568.049 640.779C574.624 635.624 580.651 629.81 586.031 623.439L606.449 631.769C612.447 634.215 619.292 631.336 621.738 625.339C624.185 619.341 621.307 612.496 615.311 610.049L599.636 603.654C603.289 597.013 606.333 589.996 608.696 582.675L623.94 588.893C629.938 591.339 636.782 588.461 639.229 582.465C641.675 576.467 638.797 569.622 632.8 567.176L613.72 559.391C614.23 554.894 614.494 550.321 614.494 545.688C614.494 541.464 614.275 537.291 613.85 533.178L632.575 525.306C638.546 522.795 641.35 515.92 638.839 509.949C636.328 503.978 629.453 501.172 623.482 503.682L609.034 509.757C606.739 502.414 603.758 495.371 600.167 488.7L614.626 482.621C620.596 480.11 623.401 473.236 620.891 467.265C618.38 461.295 611.504 458.488 605.533 460.999L586.812 468.869C581.227 462.119 574.921 455.98 568.011 450.566L575.769 431.551C578.215 425.554 575.336 418.709 569.339 416.262C563.342 413.816 556.496 416.694 554.049 422.69L547.899 437.762C541.152 434.342 534.04 431.528 526.639 429.39L532.894 414.06C535.339 408.063 532.462 401.219 526.465 398.772Z" fill="#B49C81"/>
</svg>
