<svg width="2463" height="1094" viewBox="0 0 2463 1094" fill="none" xmlns="http://www.w3.org/2000/svg">
<path d="M2210.59 721.099H2136.41V370.69H2210.59V721.099Z" fill="black"/>
<path d="M1842.74 721.099L1750.99 488.306V721.099H1683.64V370.69H1772.47L1873.98 630.324L1975.98 370.69H2064.8V721.099H1997.45V486.354L1904.72 721.099H1842.74Z" fill="black"/>
<path d="M1455.29 728.419C1429.92 728.419 1406.16 724.027 1384.04 715.242C1362.24 706.132 1343.05 693.444 1326.45 677.176C1310.18 660.908 1297.5 641.549 1288.39 619.1C1279.28 596.325 1274.72 571.435 1274.72 544.43C1274.72 518.402 1279.11 494.488 1287.9 472.689C1296.68 450.89 1309.05 431.694 1324.99 415.101C1340.93 398.508 1359.64 385.819 1381.11 377.034C1402.91 367.924 1426.66 363.369 1452.37 363.369C1481.97 363.369 1508.49 368.9 1531.92 379.962C1555.67 390.699 1575.51 405.666 1591.46 424.862C1607.72 444.058 1619.76 466.507 1627.57 492.21H1540.21C1536.63 480.172 1530.78 469.598 1522.64 460.488C1514.51 451.053 1504.42 443.57 1492.38 438.038C1480.35 432.507 1466.36 429.742 1450.41 429.742C1431.54 429.742 1414.46 434.297 1399.17 443.407C1384.2 452.192 1372.33 465.368 1363.54 482.938C1355.08 500.182 1350.85 521.33 1350.85 546.382C1350.85 568.832 1354.92 589.004 1363.06 606.899C1371.19 624.793 1383.23 639.109 1399.17 649.846C1415.44 660.257 1435.28 665.463 1458.71 665.463C1475.95 665.463 1490.92 662.372 1503.61 656.19C1516.62 649.683 1527.2 640.898 1535.33 629.836C1543.79 618.449 1549.65 605.597 1552.9 591.282H1451.39V532.229H1631.96C1633.26 560.861 1630.01 587.215 1622.2 611.291C1614.39 635.042 1602.68 655.702 1587.06 673.271C1571.77 690.841 1552.9 704.506 1530.45 714.266C1508.33 723.702 1483.27 728.419 1455.29 728.419Z" fill="black"/>
<path d="M1001.55 721.099L909.8 488.306V721.099H842.451V370.69H931.274L1032.78 630.324L1134.78 370.69H1223.61V721.099H1156.26V486.354L1063.53 721.099H1001.55Z" fill="black"/>
<path d="M523.368 308.369C547.554 308.369 567.16 327.976 567.16 352.161V362.503L574.473 355.19C591.574 338.089 619.302 338.089 636.403 355.19C645.471 364.258 649.73 376.313 649.182 388.188C661.056 387.639 673.111 391.898 682.179 400.966C699.281 418.068 699.281 445.796 682.179 462.897L674.867 470.209H685.208C709.394 470.209 729 489.815 729 514.001C729 526.825 723.487 538.36 714.703 546.369C723.487 554.378 729 565.914 729 578.737C729 602.923 709.394 622.529 685.208 622.529H674.865L682.179 629.843C699.281 646.945 699.281 674.673 682.179 691.774C673.111 700.842 661.057 705.101 649.183 704.553C649.73 716.427 645.472 728.481 636.404 737.549C619.302 754.651 591.574 754.651 574.473 737.549L567.16 730.236V740.577C567.16 764.763 547.554 784.369 523.368 784.369C510.545 784.369 499.009 778.858 491 770.074C482.991 778.858 471.455 784.369 458.632 784.369C434.446 784.369 414.84 764.763 414.84 740.577V730.236L407.527 737.549C390.425 754.651 362.698 754.651 345.596 737.549C336.528 728.481 332.269 716.427 332.816 704.553C320.943 705.1 308.889 700.841 299.821 691.773C282.719 674.672 282.719 646.944 299.821 629.842L307.134 622.529H296.792C272.606 622.529 253 602.923 253 578.737C253 565.914 258.512 554.378 267.295 546.369C258.512 538.36 253 526.824 253 514.001C253 489.815 272.606 470.209 296.792 470.209H307.133L299.821 462.897C282.719 445.796 282.719 418.069 299.821 400.967C308.889 391.899 320.943 387.639 332.816 388.187C332.269 376.313 336.529 364.259 345.597 355.191C362.699 338.09 390.426 338.09 407.527 355.191L414.84 362.504V352.161C414.84 327.976 434.446 308.369 458.632 308.369C471.455 308.369 482.991 313.882 491 322.666C499.009 313.882 510.544 308.369 523.368 308.369ZM523.368 331.217C511.801 331.217 502.424 340.594 502.424 352.161L502.423 380.522C497.167 384.135 492.851 389.239 490.19 395.534C487.774 389.984 484.069 385.383 479.576 381.933V352.161C479.576 340.594 470.199 331.217 458.632 331.217C447.065 331.217 437.688 340.594 437.688 352.161V381.717C433.116 385.156 429.553 389.625 427.197 394.646C422.651 393.058 417.768 392.412 412.857 392.833L391.371 371.347C383.192 363.168 369.931 363.168 361.752 371.347C353.577 379.522 353.573 392.775 361.74 400.955L381.806 421.02C380.644 427.29 381.2 433.951 383.771 440.284C378.137 438.068 372.264 437.435 366.646 438.173L345.584 417.11L344.802 416.368C336.58 408.952 323.896 409.203 315.977 417.122C307.798 425.301 307.798 438.562 315.977 446.741L336.876 467.641C336.075 473.306 336.715 478.984 338.6 484.2C334.264 486.292 330.354 489.288 327.18 493.057L296.792 493.058C285.225 493.058 275.848 502.434 275.848 514.001C275.848 525.562 285.217 534.936 296.775 534.945H325.151C328.764 540.202 333.868 544.519 340.164 547.18C334.614 549.595 330.014 553.3 326.563 557.793H296.775L295.697 557.821C284.639 558.391 275.848 567.538 275.848 578.737C275.848 590.304 285.225 599.681 296.792 599.681H326.346C329.786 604.254 334.254 607.818 339.275 610.174C337.688 614.719 337.042 619.602 337.463 624.511L315.977 645.998C307.798 654.177 307.798 667.438 315.977 675.617C324.152 683.792 337.404 683.796 345.584 675.629L365.647 655.564C371.919 656.727 378.58 656.171 384.914 653.601C382.698 659.233 382.065 665.105 382.803 670.722L361.74 691.785L360.997 692.567C353.581 700.789 353.833 713.473 361.752 721.393C369.931 729.572 383.192 729.572 391.371 721.393L412.269 700.494C417.935 701.296 423.614 700.656 428.83 698.771C430.922 703.108 433.919 707.018 437.688 710.192V740.577C437.688 752.144 447.065 761.521 458.632 761.521C470.193 761.521 479.567 752.153 479.576 740.594V712.218C484.832 708.605 489.148 703.502 491.809 697.206C494.224 702.756 497.93 707.356 502.423 710.806L502.424 740.594L502.452 741.672C503.022 752.73 512.168 761.521 523.368 761.521C534.935 761.521 544.312 752.144 544.312 740.577L544.311 711.021C548.883 707.582 552.445 703.116 554.801 698.096C559.347 699.683 564.231 700.328 569.142 699.906L590.629 721.394C598.808 729.572 612.069 729.573 620.248 721.394C628.427 713.215 628.427 699.954 620.248 691.774L600.193 671.72C601.355 665.449 600.799 658.789 598.229 652.456C603.861 654.672 609.735 655.303 615.352 654.565L636.404 675.618C644.583 683.797 657.844 683.797 666.023 675.618C674.202 667.439 674.202 654.178 666.023 645.999L645.123 625.099C645.924 619.434 645.284 613.758 643.4 608.543C647.738 606.451 651.649 603.452 654.823 599.681H685.208C696.775 599.681 706.152 590.304 706.152 578.737C706.152 567.17 696.775 557.793 685.208 557.793H656.848C653.235 552.538 648.132 548.222 641.837 545.562C647.387 543.145 651.987 539.439 655.438 534.945H685.208C696.775 534.945 706.152 525.568 706.152 514.001C706.152 502.434 696.775 493.057 685.208 493.057H655.648C652.21 488.486 647.744 484.925 642.726 482.57C644.313 478.024 644.958 473.139 644.536 468.228L666.023 446.741C674.202 438.562 674.202 425.301 666.023 417.122C657.844 408.943 644.582 408.943 636.403 417.122L616.349 437.176C610.078 436.014 603.418 436.571 597.085 439.142C599.301 433.508 599.933 427.635 599.195 422.018L620.248 400.966C628.427 392.787 628.427 379.526 620.248 371.347C612.069 363.168 598.808 363.168 590.629 371.347L569.727 392.247C564.063 391.446 558.386 392.087 553.172 393.971C551.08 389.633 548.082 385.723 544.312 382.549L544.312 352.161C544.312 340.594 534.935 331.217 523.368 331.217Z" fill="#B49C81"/>
<path fill-rule="evenodd" clip-rule="evenodd" d="M490.19 395.533C497.546 378.13 517.55 369.829 535.095 376.986C543.34 380.35 549.585 386.534 553.172 393.969C560.936 391.165 569.724 391.113 577.969 394.476C595.514 401.634 604.002 421.558 597.085 439.14C614.592 432.035 634.607 440.311 641.952 457.778C645.404 465.987 645.447 474.776 642.726 482.569C650.199 486.076 656.449 492.253 659.901 500.462C667.246 517.928 659.16 538.019 641.837 545.56C659.24 552.916 667.541 572.92 660.384 590.465C657.02 598.71 650.836 604.955 643.4 608.542C646.205 616.305 646.257 625.093 642.894 633.338C635.736 650.883 615.811 659.373 598.229 652.455C605.334 669.962 597.06 689.976 579.593 697.321C571.384 700.773 562.594 700.816 554.801 698.094C551.294 705.567 545.118 711.818 536.909 715.27C519.442 722.615 499.35 714.529 491.809 697.205C484.454 714.609 464.45 722.912 446.904 715.755C438.659 712.391 432.416 706.205 428.83 698.77C421.066 701.576 412.277 701.628 404.031 698.264C386.487 691.107 377.997 671.182 384.914 653.599C367.407 660.705 347.392 652.43 340.047 634.964C336.595 626.755 336.554 617.966 339.275 610.173C331.802 606.666 325.55 600.489 322.098 592.28C314.753 574.813 322.84 554.72 340.164 547.178C322.76 539.824 314.458 519.819 321.615 502.274C324.979 494.029 331.164 487.785 338.6 484.199C335.794 476.435 335.742 467.646 339.105 459.4C346.263 441.855 366.188 433.366 383.771 440.283C376.665 422.776 384.94 402.761 402.407 395.416C410.616 391.964 419.404 391.923 427.197 394.644C430.704 387.171 436.882 380.919 445.091 377.467C462.558 370.122 482.649 378.209 490.19 395.533ZM526.465 398.141C520.468 395.695 513.622 398.573 511.175 404.57L503.083 424.402C499.594 424.104 496.063 423.951 492.497 423.951C487.499 423.951 482.572 424.252 477.731 424.832L469.306 404.794C466.795 398.823 459.918 396.017 453.947 398.528C447.979 401.038 445.175 407.911 447.681 413.88L454.442 429.961C447.124 432.344 440.111 435.396 433.477 439.044L426.619 422.736L426.37 422.187C423.677 416.601 417.046 414.046 411.264 416.477C405.293 418.988 402.487 425.865 404.998 431.836L413.678 452.478L413.789 452.523C407.408 457.878 401.588 463.871 396.43 470.404L396.285 470.058L375.551 461.6C369.553 459.154 362.708 462.033 360.261 468.03C357.816 474.025 360.692 480.867 366.685 483.316L383.681 490.25C380.229 496.989 377.394 504.093 375.25 511.486L358.054 504.471L357.49 504.26C351.635 502.214 345.14 505.096 342.771 510.904C340.324 516.902 343.203 523.747 349.2 526.194L369.936 534.653L370.983 534.212C370.664 537.784 370.501 541.402 370.501 545.057C370.501 550.093 370.813 555.058 371.414 559.932L370.067 559.384L349.425 568.064C343.454 570.575 340.649 577.452 343.159 583.423C345.669 589.391 352.541 592.195 358.51 589.689L376.343 582.189C378.714 589.506 381.769 596.518 385.431 603.153L367.366 610.751L366.817 611C361.231 613.693 358.677 620.324 361.108 626.106C363.619 632.077 370.496 634.882 376.467 632.372L397.108 623.691L397.959 621.604C403.586 628.445 409.951 634.663 416.934 640.139L414.689 641.084L406.231 661.819C403.785 667.817 406.664 674.662 412.661 677.109C418.656 679.554 425.498 676.678 427.947 670.685L435.503 652.161C442.202 655.681 449.271 658.599 456.637 660.844L449.103 679.316L448.891 679.88C446.845 685.734 449.727 692.23 455.535 694.599C461.533 697.046 468.378 694.167 470.825 688.17L479.283 667.434L478.412 665.363C483.034 665.89 487.733 666.163 492.497 666.163C496.623 666.163 500.701 665.958 504.722 665.561L504.013 667.301L512.694 687.945C515.205 693.915 522.081 696.719 528.052 694.209C534.022 691.698 536.829 684.822 534.318 678.851L526.926 661.271C534.322 659.115 541.427 656.283 548.168 652.845L555.38 669.995C557.891 675.965 564.765 678.769 570.735 676.259C576.706 673.749 579.512 666.874 577.002 660.903L568.321 640.259L568.049 640.148C574.624 634.993 580.651 629.179 586.031 622.808L606.449 631.138C612.447 633.585 619.292 630.705 621.738 624.708C624.185 618.711 621.307 611.865 615.311 609.418L599.636 603.023C603.289 596.382 606.333 589.365 608.696 582.044L623.94 588.262C629.938 590.708 636.782 587.83 639.229 581.834C641.675 575.836 638.797 568.992 632.8 566.545L613.72 558.76C614.23 554.263 614.494 549.69 614.494 545.057C614.494 540.833 614.275 536.66 613.85 532.548L632.575 524.676C638.546 522.164 641.35 515.289 638.839 509.318C636.328 503.348 629.453 500.541 623.482 503.051L609.034 509.126C606.739 501.783 603.758 494.74 600.167 488.069L614.626 481.99C620.596 479.479 623.401 472.605 620.891 466.634C618.38 460.664 611.504 457.858 605.533 460.368L586.812 468.238C581.227 461.488 574.921 455.349 568.011 449.935L575.769 430.921C578.215 424.923 575.336 418.078 569.339 415.632C563.342 413.185 556.496 416.063 554.049 422.059L547.899 437.132C541.152 433.711 534.04 430.897 526.639 428.759L532.894 413.429C535.339 407.432 532.462 400.588 526.465 398.141Z" fill="#B49C81"/>
</svg>
