<svg width="2463" height="1094" viewBox="0 0 2463 1094" fill="none" xmlns="http://www.w3.org/2000/svg">
<path d="M2210.44 721.837H2136.26V371.428H2210.44V721.837Z" fill="white"/>
<path d="M1842.59 721.837L1750.84 489.045V721.837H1683.49V371.428H1772.31L1873.83 631.063L1975.83 371.428H2064.65V721.837H1997.3V487.093L1904.57 721.837H1842.59Z" fill="white"/>
<path d="M1455.14 729.158C1429.76 729.158 1406.01 724.765 1383.89 715.981C1362.09 706.871 1342.89 694.182 1326.3 677.914C1310.03 661.646 1297.34 642.287 1288.23 619.838C1279.12 597.063 1274.57 572.173 1274.57 545.168C1274.57 519.14 1278.96 495.226 1287.75 473.427C1296.53 451.628 1308.89 432.432 1324.84 415.839C1340.78 399.246 1359.49 386.557 1380.96 377.772C1402.76 368.662 1426.51 364.107 1452.21 364.107C1481.82 364.107 1508.34 369.638 1531.76 380.701C1555.51 391.437 1575.36 406.404 1591.3 425.6C1607.57 444.796 1619.61 467.245 1627.42 492.949H1540.06C1536.48 480.91 1530.62 470.336 1522.49 461.226C1514.36 451.791 1504.27 444.308 1492.23 438.777C1480.19 433.246 1466.2 430.48 1450.26 430.48C1431.39 430.48 1414.31 435.035 1399.02 444.145C1384.05 452.93 1372.18 466.107 1363.39 483.676C1354.93 500.92 1350.7 522.068 1350.7 547.121C1350.7 569.57 1354.77 589.742 1362.9 607.637C1371.04 625.532 1383.07 639.847 1399.02 650.584C1415.29 660.995 1435.13 666.201 1458.56 666.201C1475.8 666.201 1490.77 663.11 1503.46 656.928C1516.47 650.421 1527.05 641.637 1535.18 630.575C1543.64 619.187 1549.49 606.336 1552.75 592.02H1451.24V532.968H1631.81C1633.11 561.599 1629.86 587.953 1622.05 612.029C1614.24 635.78 1602.53 656.44 1586.91 674.01C1571.62 691.579 1552.75 705.244 1530.3 715.005C1508.17 724.44 1483.12 729.158 1455.14 729.158Z" fill="white"/>
<path d="M1001.4 721.837L909.648 489.045V721.837H842.299V371.428H931.121L1032.63 631.063L1134.63 371.428H1223.45V721.837H1156.11V487.093L1063.38 721.837H1001.4Z" fill="white"/>
<path d="M523.368 309.107C547.554 309.108 567.16 328.714 567.16 352.899V363.241L574.473 355.929C591.574 338.827 619.302 338.827 636.403 355.929C645.471 364.996 649.73 377.051 649.182 388.926C661.056 388.378 673.111 392.636 682.179 401.704C699.281 418.806 699.281 446.534 682.179 463.636L674.867 470.947H685.208C709.394 470.947 729 490.554 729 514.739C729 527.563 723.487 539.098 714.703 547.107C723.487 555.116 729 566.652 729 579.476C729 603.661 709.394 623.268 685.208 623.268H674.865L682.179 630.581C699.281 647.683 699.281 675.411 682.179 692.513C673.111 701.58 661.057 705.839 649.183 705.291C649.73 717.165 645.472 729.22 636.404 738.287C619.302 755.389 591.574 755.389 574.473 738.287L567.16 730.975V741.315C567.16 765.501 547.554 785.107 523.368 785.107C510.545 785.107 499.009 779.596 491 770.812C482.991 779.596 471.455 785.107 458.632 785.107C434.446 785.107 414.84 765.501 414.84 741.315V730.975L407.527 738.287C390.425 755.389 362.698 755.389 345.596 738.287C336.528 729.22 332.269 717.165 332.816 705.291C320.943 705.839 308.889 701.579 299.821 692.512C282.719 675.41 282.719 647.682 299.821 630.58L307.134 623.268H296.792C272.606 623.268 253 603.661 253 579.476C253 566.652 258.512 555.116 267.295 547.107C258.512 539.099 253 527.562 253 514.739C253 490.554 272.606 470.947 296.792 470.947H307.133L299.821 463.636C282.719 446.534 282.719 418.807 299.821 401.705C308.889 392.638 320.943 388.377 332.816 388.925C332.269 377.051 336.529 364.997 345.597 355.93C362.699 338.828 390.426 338.828 407.527 355.93L414.84 363.242V352.899C414.84 328.714 434.446 309.108 458.632 309.107C471.455 309.107 482.991 314.62 491 323.404C499.009 314.62 510.544 309.107 523.368 309.107ZM523.368 331.955C511.801 331.955 502.424 341.332 502.424 352.899L502.423 381.261C497.167 384.873 492.851 389.977 490.19 396.272C487.774 390.722 484.069 386.121 479.576 382.671V352.899C479.576 341.332 470.199 331.955 458.632 331.955C447.065 331.955 437.688 341.332 437.688 352.899V382.455C433.116 385.895 429.553 390.363 427.197 395.384C422.651 393.796 417.768 393.15 412.857 393.571L391.371 372.085C383.192 363.906 369.931 363.906 361.752 372.085C353.577 380.26 353.573 393.513 361.74 401.693L381.806 421.758C380.644 428.029 381.2 434.69 383.771 441.022C378.137 438.806 372.264 438.173 366.646 438.911L345.584 417.849L344.802 417.106C336.58 409.69 323.896 409.941 315.977 417.86C307.798 426.039 307.798 439.3 315.977 447.479L336.876 468.379C336.075 474.044 336.715 479.723 338.6 484.938C334.264 487.03 330.354 490.026 327.18 493.795L296.792 493.796C285.225 493.796 275.848 503.172 275.848 514.739C275.848 526.301 285.217 535.674 296.775 535.684H325.151C328.764 540.94 333.868 545.257 340.164 547.918C334.614 550.334 330.014 554.038 326.563 558.531H296.775L295.697 558.56C284.639 559.129 275.848 568.276 275.848 579.476C275.848 591.043 285.225 600.419 296.792 600.419H326.346C329.786 604.993 334.254 608.556 339.275 610.912C337.688 615.457 337.042 620.34 337.463 625.249L315.977 646.736C307.798 654.915 307.798 668.176 315.977 676.355C324.152 684.531 337.404 684.534 345.584 676.367L365.647 656.303C371.919 657.465 378.58 656.909 384.914 654.339C382.698 659.971 382.065 665.844 382.803 671.46L361.74 692.523L360.997 693.306C353.581 701.527 353.833 714.211 361.752 722.131C369.931 730.31 383.192 730.31 391.371 722.131L412.269 701.232C417.935 702.034 423.614 701.395 428.83 699.51C430.922 703.846 433.919 707.756 437.688 710.931V741.315C437.688 752.882 447.065 762.26 458.632 762.26C470.193 762.26 479.567 752.891 479.576 741.332V712.956C484.832 709.343 489.148 704.24 491.809 697.944C494.224 703.494 497.93 708.094 502.423 711.544L502.424 741.332L502.452 742.41C503.022 753.468 512.168 762.26 523.368 762.26C534.935 762.26 544.312 752.882 544.312 741.315L544.311 711.76C548.883 708.321 552.445 703.854 554.801 698.834C559.347 700.422 564.231 701.066 569.142 700.645L590.629 722.132C598.808 730.311 612.069 730.311 620.248 722.132C628.427 713.953 628.427 700.692 620.248 692.513L600.193 672.458C601.355 666.188 600.799 659.527 598.229 653.194C603.861 655.411 609.735 656.041 615.352 655.304L636.404 676.356C644.583 684.535 657.844 684.535 666.023 676.356C674.202 668.177 674.202 654.916 666.023 646.737L645.123 625.837C645.924 620.173 645.284 614.496 643.4 609.281C647.738 607.189 651.649 604.19 654.823 600.419H685.208C696.775 600.419 706.152 591.043 706.152 579.476C706.152 567.909 696.775 558.531 685.208 558.531H656.848C653.235 553.276 648.132 548.96 641.837 546.3C647.387 543.884 651.987 540.177 655.438 535.684H685.208C696.775 535.684 706.152 526.306 706.152 514.739C706.152 503.172 696.775 493.795 685.208 493.795H655.648C652.21 489.225 647.744 485.664 642.726 483.309C644.313 478.762 644.958 473.877 644.536 468.966L666.023 447.479C674.202 439.3 674.202 426.039 666.023 417.86C657.844 409.681 644.582 409.681 636.403 417.86L616.349 437.914C610.078 436.752 603.418 437.31 597.085 439.88C599.301 434.247 599.933 428.373 599.195 422.756L620.248 401.704C628.427 393.525 628.427 380.264 620.248 372.085C612.069 363.906 598.808 363.906 590.629 372.085L569.727 392.985C564.063 392.185 558.386 392.825 553.172 394.709C551.08 390.372 548.082 386.461 544.312 383.287L544.312 352.899C544.312 341.332 534.935 331.955 523.368 331.955Z" fill="white"/>
<path fill-rule="evenodd" clip-rule="evenodd" d="M490.19 396.271C497.546 378.868 517.55 370.567 535.095 377.724C543.34 381.088 549.585 387.272 553.172 394.708C560.936 391.903 569.724 391.851 577.969 395.214C595.514 402.372 604.002 422.296 597.085 439.879C614.592 432.773 634.607 441.049 641.952 458.516C645.404 466.725 645.447 475.514 642.726 483.307C650.199 486.814 656.449 492.991 659.901 501.2C667.246 518.667 659.16 538.757 641.837 546.298C659.24 553.654 667.541 573.658 660.384 591.203C657.02 599.448 650.836 605.694 643.4 609.28C646.205 617.043 646.257 625.831 642.894 634.076C635.736 651.621 615.811 660.111 598.229 653.193C605.334 670.7 597.06 690.714 579.593 698.059C571.384 701.511 562.594 701.554 554.801 698.833C551.294 706.305 545.118 712.557 536.909 716.008C519.442 723.353 499.35 715.267 491.809 697.943C484.454 715.348 464.45 723.65 446.904 716.493C438.659 713.129 432.416 706.944 428.83 699.508C421.066 702.314 412.277 702.366 404.031 699.003C386.487 691.845 377.997 671.92 384.914 654.337C367.407 661.443 347.392 653.169 340.047 635.702C336.595 627.493 336.554 618.704 339.275 610.911C331.802 607.404 325.55 601.227 322.098 593.018C314.753 575.551 322.84 555.458 340.164 547.917C322.76 540.562 314.458 520.557 321.615 503.012C324.979 494.767 331.164 488.524 338.6 484.937C335.794 477.173 335.742 468.384 339.105 460.138C346.263 442.594 366.188 434.104 383.771 441.021C376.665 423.514 384.94 403.499 402.407 396.154C410.616 392.702 419.404 392.661 427.197 395.382C430.704 387.909 436.882 381.657 445.091 378.205C462.558 370.86 482.649 378.947 490.19 396.271ZM526.465 398.879C520.468 396.433 513.622 399.311 511.175 405.308L503.083 425.14C499.594 424.843 496.063 424.689 492.497 424.689C487.499 424.689 482.572 424.99 477.731 425.57L469.306 405.532C466.795 399.561 459.918 396.755 453.947 399.266C447.979 401.777 445.175 408.649 447.681 414.618L454.442 430.699C447.124 433.082 440.111 436.134 433.477 439.782L426.619 423.474L426.37 422.925C423.677 417.339 417.046 414.784 411.264 417.215C405.293 419.726 402.487 426.603 404.998 432.574L413.678 453.216L413.789 453.261C407.408 458.616 401.588 464.61 396.43 471.142L396.285 470.796L375.551 462.338C369.553 459.892 362.708 462.771 360.261 468.768C357.816 474.763 360.692 481.605 366.685 484.054L383.681 490.988C380.229 497.728 377.394 504.831 375.25 512.224L358.054 505.21L357.49 504.998C351.635 502.952 345.14 505.834 342.771 511.642C340.324 517.64 343.203 524.485 349.2 526.932L369.936 535.391L370.983 534.95C370.664 538.523 370.501 542.14 370.501 545.796C370.501 550.832 370.813 555.796 371.414 560.671L370.067 560.122L349.425 568.802C343.454 571.313 340.649 578.19 343.159 584.161C345.669 590.129 352.541 592.933 358.51 590.427L376.343 582.927C378.714 590.244 381.769 597.256 385.431 603.891L367.366 611.489L366.817 611.738C361.231 614.431 358.677 621.062 361.108 626.844C363.619 632.815 370.496 635.621 376.467 633.11L397.108 624.429L397.959 622.342C403.586 629.183 409.951 635.401 416.934 640.878L414.689 641.822L406.231 662.557C403.785 668.555 406.664 675.4 412.661 677.847C418.656 680.293 425.498 677.416 427.947 671.423L435.503 652.899C442.202 656.419 449.271 659.337 456.637 661.583L449.103 680.054L448.891 680.618C446.845 686.473 449.727 692.968 455.535 695.337C461.533 697.784 468.378 694.905 470.825 688.908L479.283 668.172L478.412 666.101C483.034 666.629 487.733 666.901 492.497 666.901C496.623 666.901 500.701 666.697 504.722 666.299L504.013 668.039L512.694 688.683C515.205 694.653 522.081 697.457 528.052 694.947C534.022 692.436 536.829 685.56 534.318 679.589L526.926 662.009C534.322 659.853 541.427 657.021 548.168 653.584L555.38 670.733C557.891 676.703 564.765 679.507 570.735 676.998C576.706 674.487 579.512 667.612 577.002 661.641L568.321 640.998L568.049 640.886C574.624 635.731 580.651 629.917 586.031 623.546L606.449 631.877C612.447 634.323 619.292 631.443 621.738 625.446C624.185 619.449 621.307 612.603 615.311 610.156L599.636 603.761C603.289 597.121 606.333 590.103 608.696 582.782L623.94 589.001C629.938 591.447 636.782 588.569 639.229 582.572C641.675 576.575 638.797 569.73 632.8 567.283L613.72 559.499C614.23 555.001 614.494 550.429 614.494 545.796C614.494 541.572 614.275 537.398 613.85 533.286L632.575 525.414C638.546 522.903 641.35 516.027 638.839 510.056C636.328 504.086 629.453 501.279 623.482 503.79L609.034 509.864C606.739 502.521 603.758 495.478 600.167 488.807L614.626 482.728C620.596 480.217 623.401 473.343 620.891 467.373C618.38 461.402 611.504 458.596 605.533 461.106L586.812 468.976C581.227 462.226 574.921 456.087 568.011 450.673L575.769 431.659C578.215 425.661 575.336 418.816 569.339 416.37C563.342 413.924 556.496 416.801 554.049 422.797L547.899 437.87C541.152 434.449 534.04 431.635 526.639 429.498L532.894 414.168C535.339 408.17 532.462 401.326 526.465 398.879Z" fill="white"/>
</svg>
