<svg width="2463" height="1094" viewBox="0 0 2463 1094" fill="none" xmlns="http://www.w3.org/2000/svg">
<path d="M2210.52 721.468H2136.33V371.059H2210.52V721.468Z" fill="black"/>
<path d="M1842.67 721.468L1750.92 488.675V721.468H1683.57V371.059H1772.39L1873.9 630.694L1975.9 371.059H2064.72V721.468H1997.37V486.723L1904.65 721.468H1842.67Z" fill="black"/>
<path d="M1455.22 728.789C1429.84 728.789 1406.09 724.396 1383.96 715.612C1362.16 706.502 1342.97 693.813 1326.38 677.545C1310.11 661.277 1297.42 641.918 1288.31 619.469C1279.2 596.694 1274.64 571.804 1274.64 544.799C1274.64 518.771 1279.04 494.857 1287.82 473.058C1296.61 451.259 1308.97 432.063 1324.91 415.47C1340.85 398.877 1359.56 386.188 1381.04 377.403C1402.83 368.293 1426.59 363.738 1452.29 363.738C1481.9 363.738 1508.41 369.269 1531.84 380.331C1555.59 391.068 1575.44 406.035 1591.38 425.231C1607.65 444.427 1619.68 466.876 1627.49 492.58H1540.13C1536.56 480.541 1530.7 469.967 1522.57 460.857C1514.43 451.422 1504.35 443.939 1492.31 438.408C1480.27 432.877 1466.28 430.111 1450.34 430.111C1431.47 430.111 1414.38 434.666 1399.09 443.776C1384.13 452.561 1372.25 465.738 1363.47 483.307C1355.01 500.551 1350.78 521.699 1350.78 546.751C1350.78 569.201 1354.84 589.373 1362.98 607.268C1371.11 625.162 1383.15 639.478 1399.09 650.215C1415.36 660.626 1435.21 665.832 1458.63 665.832C1475.88 665.832 1490.84 662.741 1503.53 656.559C1516.55 650.052 1527.12 641.268 1535.25 630.205C1543.71 618.818 1549.57 605.966 1552.82 591.651H1451.31V532.598H1631.89C1633.19 561.23 1629.93 587.584 1622.12 611.66C1614.32 635.411 1602.6 656.071 1586.99 673.641C1571.69 691.21 1552.82 704.875 1530.37 714.635C1508.25 724.071 1483.2 728.789 1455.22 728.789Z" fill="black"/>
<path d="M1001.47 721.468L909.723 488.675V721.468H842.375V371.059H931.197L1032.71 630.694L1134.71 371.059H1223.53V721.468H1156.18V486.723L1063.45 721.468H1001.47Z" fill="black"/>
<path d="M523.368 308.738C547.554 308.738 567.16 328.345 567.16 352.53V362.872L574.473 355.56C591.574 338.458 619.302 338.458 636.403 355.56C645.471 364.627 649.73 376.682 649.182 388.557C661.056 388.009 673.111 392.267 682.179 401.335C699.281 418.437 699.281 446.165 682.179 463.267L674.867 470.578H685.208C709.394 470.578 729 490.185 729 514.37C729 527.194 723.487 538.729 714.703 546.738C723.487 554.747 729 566.283 729 579.106C729 603.292 709.394 622.898 685.208 622.898H674.865L682.179 630.212C699.281 647.314 699.281 675.042 682.179 692.144C673.111 701.211 661.057 705.47 649.183 704.922C649.73 716.796 645.472 728.85 636.404 737.918C619.302 755.02 591.574 755.02 574.473 737.918L567.16 730.605V740.946C567.16 765.132 547.554 784.738 523.368 784.738C510.545 784.738 499.009 779.227 491 770.443C482.991 779.227 471.455 784.738 458.632 784.738C434.446 784.738 414.84 765.132 414.84 740.946V730.605L407.527 737.918C390.425 755.02 362.698 755.02 345.596 737.918C336.528 728.851 332.269 716.796 332.816 704.922C320.943 705.469 308.889 701.21 299.821 692.143C282.719 675.041 282.719 647.313 299.821 630.211L307.134 622.898H296.792C272.606 622.898 253 603.292 253 579.106C253 566.283 258.512 554.747 267.295 546.738C258.512 538.729 253 527.193 253 514.37C253 490.185 272.606 470.578 296.792 470.578H307.133L299.821 463.267C282.719 446.165 282.719 418.438 299.821 401.336C308.889 392.269 320.943 388.008 332.816 388.556C332.269 376.682 336.529 364.628 345.597 355.561C362.699 338.459 390.426 338.459 407.527 355.561L414.84 362.873V352.53C414.84 328.345 434.446 308.738 458.632 308.738C471.455 308.738 482.991 314.251 491 323.035C499.009 314.251 510.544 308.738 523.368 308.738ZM523.368 331.586C511.801 331.586 502.424 340.963 502.424 352.53L502.423 380.892C497.167 384.504 492.851 389.608 490.19 395.903C487.774 390.353 484.069 385.752 479.576 382.302V352.53C479.576 340.963 470.199 331.586 458.632 331.586C447.065 331.586 437.688 340.963 437.688 352.53V382.086C433.116 385.526 429.553 389.994 427.197 395.015C422.651 393.427 417.768 392.781 412.857 393.202L391.371 371.716C383.192 363.537 369.931 363.537 361.752 371.716C353.577 379.891 353.573 393.144 361.74 401.324L381.806 421.389C380.644 427.659 381.2 434.321 383.771 440.653C378.137 438.437 372.264 437.804 366.646 438.542L345.584 417.479L344.802 416.737C336.58 409.321 323.896 409.572 315.977 417.491C307.798 425.67 307.798 438.931 315.977 447.11L336.876 468.01C336.075 473.675 336.715 479.354 338.6 484.569C334.264 486.661 330.354 489.657 327.18 493.426L296.792 493.427C285.225 493.427 275.848 502.803 275.848 514.37C275.848 525.931 285.217 535.305 296.775 535.314H325.151C328.764 540.571 333.868 544.888 340.164 547.549C334.614 549.965 330.014 553.669 326.563 558.162H296.775L295.697 558.19C284.639 558.76 275.848 567.907 275.848 579.106C275.848 590.673 285.225 600.05 296.792 600.05H326.346C329.786 604.624 334.254 608.187 339.275 610.543C337.688 615.088 337.042 619.971 337.463 624.88L315.977 646.367C307.798 654.546 307.798 667.807 315.977 675.986C324.152 684.161 337.404 684.165 345.584 675.998L365.647 655.934C371.919 657.096 378.58 656.54 384.914 653.97C382.698 659.602 382.065 665.474 382.803 671.091L361.74 692.154L360.997 692.937C353.581 701.158 353.833 713.842 361.752 721.762C369.931 729.941 383.192 729.941 391.371 721.762L412.269 700.863C417.935 701.665 423.614 701.025 428.83 699.141C430.922 703.477 433.919 707.387 437.688 710.562V740.946C437.688 752.513 447.065 761.891 458.632 761.891C470.193 761.891 479.567 752.522 479.576 740.963V712.587C484.832 708.974 489.148 703.871 491.809 697.575C494.224 703.125 497.93 707.725 502.423 711.175L502.424 740.963L502.452 742.041C503.022 753.099 512.168 761.891 523.368 761.891C534.935 761.891 544.312 752.513 544.312 740.946L544.311 711.391C548.883 707.952 552.445 703.485 554.801 698.465C559.347 700.052 564.231 700.697 569.142 700.275L590.629 721.763C598.808 729.941 612.069 729.942 620.248 721.763C628.427 713.584 628.427 700.323 620.248 692.144L600.193 672.089C601.355 665.818 600.799 659.158 598.229 652.825C603.861 655.041 609.735 655.672 615.352 654.935L636.404 675.987C644.583 684.166 657.844 684.166 666.023 675.987C674.202 667.808 674.202 654.547 666.023 646.368L645.123 625.468C645.924 619.804 645.284 614.127 643.4 608.912C647.738 606.82 651.649 603.821 654.823 600.05H685.208C696.775 600.05 706.152 590.673 706.152 579.106C706.152 567.539 696.775 558.162 685.208 558.162H656.848C653.235 552.907 648.132 548.591 641.837 545.931C647.387 543.514 651.987 539.808 655.438 535.314H685.208C696.775 535.314 706.152 525.937 706.152 514.37C706.152 502.803 696.775 493.426 685.208 493.426H655.648C652.21 488.855 647.744 485.294 642.726 482.939C644.313 478.393 644.958 473.508 644.536 468.597L666.023 447.11C674.202 438.931 674.202 425.67 666.023 417.491C657.844 409.312 644.582 409.312 636.403 417.491L616.349 437.545C610.078 436.383 603.418 436.941 597.085 439.511C599.301 433.878 599.933 428.004 599.195 422.387L620.248 401.335C628.427 393.156 628.427 379.895 620.248 371.716C612.069 363.537 598.808 363.537 590.629 371.716L569.727 392.616C564.063 391.816 558.386 392.456 553.172 394.34C551.08 390.003 548.082 386.092 544.312 382.918L544.312 352.53C544.312 340.963 534.935 331.586 523.368 331.586Z" fill="black"/>
<path fill-rule="evenodd" clip-rule="evenodd" d="M490.19 395.902C497.546 378.499 517.55 370.198 535.095 377.355C543.34 380.719 549.585 386.903 553.172 394.338C560.936 391.534 569.724 391.482 577.969 394.845C595.514 402.003 604.002 421.927 597.085 439.509C614.592 432.404 634.607 440.68 641.952 458.147C645.404 466.356 645.447 475.145 642.726 482.938C650.199 486.445 656.449 492.622 659.901 500.831C667.246 518.297 659.16 538.388 641.837 545.929C659.24 553.285 667.541 573.289 660.384 590.834C657.02 599.079 650.836 605.324 643.4 608.911C646.205 616.674 646.257 625.462 642.894 633.707C635.736 651.252 615.811 659.742 598.229 652.824C605.334 670.331 597.06 690.345 579.593 697.69C571.384 701.142 562.594 701.185 554.801 698.463C551.294 705.936 545.118 712.187 536.909 715.639C519.442 722.984 499.35 714.898 491.809 697.574C484.454 714.978 464.45 723.281 446.904 716.124C438.659 712.76 432.416 706.574 428.83 699.139C421.066 701.945 412.277 701.997 404.031 698.633C386.487 691.476 377.997 671.551 384.914 653.968C367.407 661.074 347.392 652.799 340.047 635.333C336.595 627.124 336.554 618.335 339.275 610.542C331.802 607.035 325.55 600.858 322.098 592.649C314.753 575.182 322.84 555.089 340.164 547.547C322.76 540.193 314.458 520.188 321.615 502.643C324.979 494.398 331.164 488.154 338.6 484.568C335.794 476.804 335.742 468.015 339.105 459.769C346.263 442.224 366.188 433.735 383.771 440.652C376.665 423.145 384.94 403.13 402.407 395.785C410.616 392.333 419.404 392.292 427.197 395.013C430.704 387.54 436.882 381.288 445.091 377.836C462.558 370.491 482.649 378.578 490.19 395.902ZM526.465 398.51C520.468 396.064 513.622 398.942 511.175 404.939L503.083 424.771C499.594 424.473 496.063 424.32 492.497 424.32C487.499 424.32 482.572 424.621 477.731 425.201L469.306 405.163C466.795 399.192 459.918 396.386 453.947 398.897C447.979 401.407 445.175 408.28 447.681 414.249L454.442 430.33C447.124 432.713 440.111 435.765 433.477 439.413L426.619 423.105L426.37 422.556C423.677 416.97 417.046 414.415 411.264 416.846C405.293 419.357 402.487 426.234 404.998 432.205L413.678 452.847L413.789 452.892C407.408 458.247 401.588 464.24 396.43 470.773L396.285 470.427L375.551 461.969C369.553 459.523 362.708 462.402 360.261 468.399C357.816 474.394 360.692 481.236 366.685 483.685L383.681 490.619C380.229 497.358 377.394 504.462 375.25 511.855L358.054 504.84L357.49 504.629C351.635 502.583 345.14 505.465 342.771 511.273C340.324 517.271 343.203 524.116 349.2 526.563L369.936 535.022L370.983 534.581C370.664 538.153 370.501 541.771 370.501 545.426C370.501 550.462 370.813 555.427 371.414 560.301L370.067 559.753L349.425 568.433C343.454 570.944 340.649 577.821 343.159 583.792C345.669 589.76 352.541 592.564 358.51 590.058L376.343 582.558C378.714 589.875 381.769 596.887 385.431 603.522L367.366 611.12L366.817 611.369C361.231 614.062 358.677 620.693 361.108 626.475C363.619 632.446 370.496 635.251 376.467 632.741L397.108 624.06L397.959 621.973C403.586 628.814 409.951 635.032 416.934 640.508L414.689 641.453L406.231 662.188C403.785 668.186 406.664 675.031 412.661 677.478C418.656 679.923 425.498 677.047 427.947 671.054L435.503 652.53C442.202 656.05 449.271 658.968 456.637 661.213L449.103 679.685L448.891 680.249C446.845 686.103 449.727 692.599 455.535 694.968C461.533 697.415 468.378 694.536 470.825 688.539L479.283 667.803L478.412 665.732C483.034 666.259 487.733 666.532 492.497 666.532C496.623 666.532 500.701 666.327 504.722 665.93L504.013 667.67L512.694 688.314C515.205 694.284 522.081 697.088 528.052 694.578C534.022 692.067 536.829 685.191 534.318 679.22L526.926 661.64C534.322 659.484 541.427 656.652 548.168 653.214L555.38 670.364C557.891 676.334 564.765 679.138 570.735 676.629C576.706 674.118 579.512 667.243 577.002 661.272L568.321 640.629L568.049 640.517C574.624 635.362 580.651 629.548 586.031 623.177L606.449 631.507C612.447 633.954 619.292 631.074 621.738 625.077C624.185 619.08 621.307 612.234 615.311 609.787L599.636 603.392C603.289 596.752 606.333 589.734 608.696 582.413L623.94 588.631C629.938 591.077 636.782 588.2 639.229 582.203C641.675 576.205 638.797 569.361 632.8 566.914L613.72 559.13C614.23 554.632 614.494 550.06 614.494 545.426C614.494 541.202 614.275 537.029 613.85 532.917L632.575 525.045C638.546 522.533 641.35 515.658 638.839 509.687C636.328 503.717 629.453 500.91 623.482 503.421L609.034 509.495C606.739 502.152 603.758 495.109 600.167 488.438L614.626 482.359C620.596 479.848 623.401 472.974 620.891 467.004C618.38 461.033 611.504 458.227 605.533 460.737L586.812 468.607C581.227 461.857 574.921 455.718 568.011 450.304L575.769 431.29C578.215 425.292 575.336 418.447 569.339 416.001C563.342 413.554 556.496 416.432 554.049 422.428L547.899 437.501C541.152 434.08 534.04 431.266 526.639 429.129L532.894 413.798C535.339 407.801 532.462 400.957 526.465 398.51Z" fill="black"/>
</svg>
