<svg width="948" height="937" viewBox="0 0 948 937" fill="none" xmlns="http://www.w3.org/2000/svg">
<path d="M510.368 231C534.554 231 554.16 250.606 554.16 274.792V285.134L561.473 277.821C578.574 260.72 606.302 260.72 623.403 277.821C632.471 286.889 636.73 298.944 636.182 310.818C648.056 310.27 660.111 314.529 669.179 323.597C686.281 340.699 686.281 368.426 669.179 385.528L661.867 392.84H672.208C696.394 392.84 716 412.446 716 436.632C716 449.455 710.487 460.991 701.703 469C710.487 477.009 716 488.544 716 501.368C716 525.554 696.394 545.16 672.208 545.16H661.865L669.179 552.474C686.281 569.575 686.281 597.303 669.179 614.405C660.111 623.473 648.057 627.731 636.183 627.184C636.73 639.058 632.472 651.112 623.404 660.18C606.302 677.281 578.574 677.282 561.473 660.18L554.16 652.867V663.208C554.16 687.394 534.554 707 510.368 707C497.545 707 486.009 701.488 478 692.705C469.991 701.488 458.455 707 445.632 707C421.446 707 401.84 687.394 401.84 663.208V652.867L394.527 660.18C377.425 677.281 349.698 677.281 332.596 660.18C323.528 651.112 319.269 639.057 319.816 627.184C307.943 627.731 295.889 623.471 286.821 614.404C269.719 597.302 269.719 569.574 286.821 552.473L294.134 545.16H283.792C259.606 545.16 240 525.554 240 501.368C240 488.545 245.512 477.009 254.295 469C245.512 460.991 240 449.455 240 436.632C240 412.446 259.606 392.84 283.792 392.84H294.133L286.821 385.528C269.719 368.426 269.719 340.699 286.821 323.598C295.889 314.53 307.943 310.27 319.816 310.817C319.269 298.944 323.529 286.89 332.597 277.822C349.699 260.721 377.426 260.72 394.527 277.822L401.84 285.135V274.792C401.84 250.606 421.446 231 445.632 231C458.455 231 469.991 236.513 478 245.297C486.009 236.513 497.544 231 510.368 231ZM510.368 253.848C498.801 253.848 489.424 263.225 489.424 274.792L489.423 303.153C484.167 306.766 479.851 311.87 477.19 318.165C474.774 312.615 471.069 308.014 466.576 304.563V274.792C466.576 263.225 457.199 253.848 445.632 253.848C434.065 253.848 424.688 263.225 424.688 274.792V304.348C420.116 307.787 416.553 312.255 414.197 317.276C409.651 315.689 404.768 315.043 399.857 315.464L378.371 293.978C370.192 285.799 356.931 285.799 348.752 293.978C340.577 302.153 340.573 315.406 348.74 323.586L368.806 343.65C367.644 349.921 368.2 356.582 370.771 362.915C365.137 360.699 359.264 360.066 353.646 360.804L332.584 339.741L331.802 338.999C323.58 331.583 310.896 331.834 302.977 339.753C294.798 347.932 294.798 361.193 302.977 369.372L323.876 390.271C323.075 395.937 323.715 401.615 325.6 406.831C321.264 408.923 317.354 411.919 314.18 415.688L283.792 415.688C272.225 415.688 262.848 425.065 262.848 436.632C262.848 448.193 272.217 457.567 283.775 457.576H312.151C315.764 462.833 320.868 467.15 327.164 469.811C321.614 472.226 317.014 475.931 313.563 480.424H283.775L282.697 480.452C271.639 481.022 262.848 490.168 262.848 501.368C262.848 512.935 272.225 522.312 283.792 522.312H313.346C316.786 526.885 321.254 530.449 326.275 532.805C324.688 537.349 324.042 542.232 324.463 547.142L302.977 568.629C294.798 576.808 294.798 590.069 302.977 598.248C311.152 606.423 324.404 606.427 332.584 598.26L352.647 578.195C358.919 579.358 365.58 578.802 371.914 576.231C369.698 581.864 369.065 587.736 369.803 593.353L348.74 614.416L347.997 615.198C340.581 623.42 340.833 636.104 348.752 644.023C356.931 652.203 370.192 652.202 378.371 644.023L399.269 623.125C404.935 623.927 410.614 623.287 415.83 621.402C417.922 625.739 420.919 629.649 424.688 632.823V663.208C424.688 674.775 434.065 684.152 445.632 684.152C457.193 684.152 466.567 674.783 466.576 663.225V634.849C471.832 631.236 476.148 626.133 478.809 619.837C481.224 625.387 484.93 629.986 489.423 633.437L489.424 663.225L489.452 664.303C490.022 675.361 499.168 684.152 510.368 684.152C521.935 684.152 531.312 674.775 531.312 663.208L531.311 633.652C535.883 630.213 539.445 625.747 541.801 620.727C546.347 622.314 551.231 622.959 556.142 622.537L577.629 644.024C585.808 652.203 599.069 652.203 607.248 644.024C615.427 635.845 615.427 622.584 607.248 614.405L587.193 594.351C588.355 588.08 587.799 581.42 585.229 575.087C590.861 577.303 596.735 577.934 602.352 577.196L623.404 598.249C631.583 606.428 644.844 606.428 653.023 598.249C661.202 590.07 661.202 576.809 653.023 568.63L632.123 547.729C632.924 542.065 632.284 536.389 630.4 531.174C634.738 529.082 638.649 526.083 641.823 522.312H672.208C683.775 522.312 693.152 512.935 693.152 501.368C693.152 489.801 683.775 480.424 672.208 480.424H643.848C640.235 475.168 635.132 470.853 628.837 468.192C634.387 465.776 638.987 462.07 642.438 457.576H672.208C683.775 457.576 693.152 448.199 693.152 436.632C693.152 425.065 683.775 415.688 672.208 415.688H642.648C639.21 411.117 634.744 407.556 629.726 405.201C631.313 400.655 631.958 395.769 631.536 390.858L653.023 369.372C661.202 361.193 661.202 347.932 653.023 339.753C644.844 331.574 631.582 331.574 623.403 339.753L603.349 359.807C597.078 358.645 590.418 359.202 584.085 361.772C586.301 356.139 586.933 350.266 586.195 344.648L607.248 323.597C615.427 315.418 615.427 302.157 607.248 293.978C599.069 285.798 585.808 285.799 577.629 293.978L556.727 314.878C551.063 314.077 545.386 314.718 540.172 316.602C538.08 312.264 535.082 308.354 531.312 305.18L531.312 274.792C531.312 263.225 521.935 253.848 510.368 253.848Z" fill="white"/>
<path fill-rule="evenodd" clip-rule="evenodd" d="M477.19 318.164C484.545 300.76 504.55 292.46 522.094 299.617C530.34 302.981 536.585 309.165 540.172 316.6C547.935 313.796 556.723 313.744 564.968 317.107C582.513 324.265 591.002 344.189 584.085 361.771C601.592 354.666 621.607 362.941 628.952 380.408C632.404 388.617 632.447 397.406 629.725 405.2C637.198 408.707 643.449 414.884 646.901 423.093C654.246 440.559 646.16 460.65 628.837 468.191C646.24 475.546 654.541 495.55 647.383 513.095C644.02 521.34 637.836 527.585 630.4 531.172C633.205 538.935 633.257 547.723 629.893 555.969C622.736 573.513 602.811 582.003 585.229 575.086C592.334 592.593 584.059 612.607 566.592 619.952C558.383 623.404 549.594 623.447 541.8 620.725C538.294 628.198 532.117 634.449 523.909 637.901C506.442 645.246 486.349 637.16 478.808 619.836C471.454 637.24 451.449 645.543 433.904 638.386C425.659 635.022 419.416 628.836 415.83 621.401C408.066 624.207 399.277 624.259 391.031 620.895C373.486 613.738 364.997 593.813 371.914 576.23C354.407 583.336 334.392 575.061 327.047 557.594C323.595 549.385 323.554 540.597 326.275 532.804C318.801 529.297 312.55 523.119 309.097 514.91C301.752 497.442 309.84 477.349 327.165 469.808C309.76 462.454 301.458 442.45 308.615 424.905C311.979 416.66 318.164 410.416 325.599 406.83C322.794 399.066 322.742 390.277 326.105 382.031C333.263 364.486 353.188 355.997 370.77 362.914C363.665 345.407 371.94 325.392 389.407 318.047C397.616 314.595 406.403 314.554 414.197 317.275C417.703 309.801 423.881 303.55 432.091 300.097C449.558 292.752 469.649 300.84 477.19 318.164ZM513.465 320.772C507.467 318.326 500.622 321.203 498.174 327.2L490.082 347.033C486.593 346.735 483.063 346.582 479.497 346.582C474.499 346.582 469.572 346.883 464.731 347.463L456.305 327.425C453.794 321.454 446.918 318.648 440.947 321.159C434.979 323.669 432.175 330.541 434.68 336.51L441.442 352.592C434.124 354.975 427.111 358.027 420.476 361.675L413.619 345.366L413.37 344.817C410.676 339.231 404.046 336.677 398.263 339.108C392.292 341.619 389.487 348.496 391.998 354.467L400.677 375.108L400.79 375.153C394.408 380.508 388.588 386.502 383.429 393.035L383.285 392.689L362.55 384.231C356.553 381.785 349.707 384.664 347.26 390.661C344.815 396.656 347.692 403.498 353.684 405.947L370.68 412.881C367.229 419.62 364.394 426.723 362.25 434.117L345.053 427.102L344.49 426.89C338.635 424.845 332.14 427.727 329.77 433.535C327.324 439.532 330.202 446.378 336.2 448.825L356.935 457.284L357.983 456.843C357.664 460.415 357.501 464.033 357.501 467.688C357.501 472.724 357.812 477.688 358.414 482.562L357.068 482.013L336.424 490.695C330.454 493.206 327.648 500.083 330.159 506.054C332.669 512.022 339.54 514.826 345.509 512.32L363.342 504.819C365.714 512.136 368.769 519.148 372.43 525.784L354.366 533.382L353.817 533.631C348.231 536.324 345.677 542.955 348.108 548.737C350.619 554.708 357.495 557.513 363.466 555.003L384.108 546.322L384.959 544.235C390.586 551.075 396.95 557.294 403.933 562.77L401.689 563.715L393.231 584.45C390.785 590.448 393.663 597.293 399.661 599.74C405.656 602.185 412.498 599.309 414.947 593.316L422.503 574.792C429.202 578.312 436.271 581.23 443.636 583.475L436.102 601.947L435.89 602.511C433.844 608.365 436.727 614.861 442.535 617.23C448.532 619.677 455.378 616.798 457.825 610.801L466.283 590.064L465.412 587.994C470.033 588.521 474.733 588.794 479.497 588.794C483.623 588.794 487.701 588.588 491.722 588.191L491.013 589.931L499.694 610.575C502.205 616.545 509.081 619.349 515.051 616.839C521.022 614.328 523.828 607.453 521.318 601.482L513.925 583.902C521.322 581.746 528.427 578.914 535.168 575.476L542.38 592.626C544.891 598.596 551.765 601.4 557.735 598.89C563.706 596.38 566.512 589.504 564.002 583.533L555.321 562.89L555.049 562.779C561.624 557.624 567.652 551.81 573.032 545.439L593.449 553.768C599.446 556.214 606.291 553.336 608.738 547.339C611.184 541.341 608.307 534.496 602.31 532.049L586.635 525.654C590.289 519.013 593.333 511.996 595.696 504.675L610.94 510.893C616.937 513.339 623.781 510.461 626.228 504.465C628.675 498.467 625.797 491.622 619.799 489.175L600.719 481.39C601.23 476.893 601.494 472.321 601.494 467.688C601.494 463.465 601.275 459.292 600.85 455.18L619.575 447.306C625.545 444.795 628.349 437.92 625.839 431.949C623.328 425.979 616.453 423.172 610.482 425.682L596.034 431.758C593.739 424.414 590.757 417.371 587.167 410.7L601.626 404.621C607.596 402.11 610.4 395.236 607.89 389.265C605.38 383.295 598.505 380.489 592.534 382.999L573.813 390.87C568.228 384.12 561.921 377.98 555.01 372.566L562.768 353.552C565.214 347.554 562.336 340.709 556.339 338.263C550.341 335.816 543.496 338.693 541.049 344.69L534.899 359.763C528.151 356.342 521.04 353.528 513.638 351.39L519.893 336.06C522.339 330.063 519.461 323.219 513.465 320.772Z" fill="white"/>
</svg>
