<svg width="948" height="937" viewBox="0 0 948 937" fill="none" xmlns="http://www.w3.org/2000/svg">
<path d="M510.368 231C534.554 231 554.16 250.606 554.16 274.792V285.134L561.473 277.821C578.574 260.72 606.302 260.72 623.403 277.821C632.471 286.889 636.73 298.944 636.182 310.818C648.056 310.27 660.111 314.529 669.179 323.597C686.281 340.699 686.281 368.426 669.179 385.528L661.867 392.84H672.208C696.394 392.84 716 412.446 716 436.632C716 449.455 710.487 460.991 701.703 469C710.487 477.009 716 488.544 716 501.368C716 525.554 696.394 545.16 672.208 545.16H661.865L669.179 552.474C686.281 569.575 686.281 597.303 669.179 614.405C660.111 623.473 648.057 627.731 636.183 627.184C636.73 639.058 632.472 651.112 623.404 660.18C606.302 677.281 578.574 677.282 561.473 660.18L554.16 652.867V663.208C554.16 687.394 534.554 707 510.368 707C497.545 707 486.009 701.488 478 692.705C469.991 701.488 458.455 707 445.632 707C421.446 707 401.84 687.394 401.84 663.208V652.867L394.527 660.18C377.425 677.281 349.698 677.281 332.596 660.18C323.528 651.112 319.269 639.057 319.816 627.184C307.943 627.731 295.889 623.471 286.821 614.404C269.719 597.302 269.719 569.574 286.821 552.473L294.134 545.16H283.792C259.606 545.16 240 525.554 240 501.368C240 488.545 245.512 477.009 254.295 469C245.512 460.991 240 449.455 240 436.632C240 412.446 259.606 392.84 283.792 392.84H294.133L286.821 385.528C269.719 368.426 269.719 340.699 286.821 323.598C295.889 314.53 307.943 310.27 319.816 310.817C319.269 298.944 323.529 286.89 332.597 277.822C349.699 260.721 377.426 260.72 394.527 277.822L401.84 285.135V274.792C401.84 250.606 421.446 231 445.632 231C458.455 231 469.991 236.513 478 245.297C486.009 236.513 497.544 231 510.368 231ZM510.368 253.848C498.801 253.848 489.424 263.225 489.424 274.792L489.423 303.153C484.167 306.766 479.851 311.87 477.19 318.165C474.774 312.615 471.069 308.014 466.576 304.563V274.792C466.576 263.225 457.199 253.848 445.632 253.848C434.065 253.848 424.688 263.225 424.688 274.792V304.348C420.115 307.787 416.553 312.255 414.197 317.276C409.651 315.689 404.768 315.043 399.857 315.464L378.371 293.978C370.192 285.799 356.931 285.799 348.752 293.978C340.577 302.153 340.573 315.406 348.74 323.586L368.806 343.65C367.644 349.921 368.2 356.582 370.771 362.915C365.137 360.699 359.264 360.066 353.646 360.804L332.584 339.741L331.802 338.999C323.58 331.583 310.896 331.834 302.977 339.753C294.798 347.932 294.798 361.193 302.977 369.372L323.876 390.271C323.075 395.937 323.715 401.615 325.6 406.831C321.264 408.923 317.354 411.919 314.18 415.688L283.792 415.688C272.225 415.688 262.848 425.065 262.848 436.632C262.848 448.193 272.217 457.567 283.775 457.576H312.152C315.765 462.832 320.869 467.149 327.165 469.81C321.615 472.225 317.015 475.931 313.564 480.424H283.775L282.697 480.452C271.639 481.022 262.848 490.168 262.848 501.368C262.848 512.935 272.225 522.312 283.792 522.312H313.346C316.785 526.885 321.254 530.449 326.275 532.805C324.688 537.35 324.042 542.232 324.463 547.142L302.977 568.629C294.798 576.808 294.798 590.069 302.977 598.248C311.152 606.423 324.404 606.427 332.584 598.26L352.647 578.195C358.919 579.358 365.581 578.802 371.914 576.231C369.698 581.864 369.065 587.736 369.803 593.353L348.74 614.416L347.997 615.198C340.581 623.42 340.833 636.104 348.752 644.023C356.931 652.203 370.192 652.202 378.371 644.023L399.269 623.125C404.935 623.927 410.614 623.287 415.83 621.402C417.922 625.739 420.919 629.649 424.688 632.823V663.208C424.688 674.775 434.065 684.152 445.632 684.152C457.193 684.152 466.567 674.783 466.576 663.225V634.849C471.832 631.236 476.148 626.132 478.809 619.837C481.225 625.387 484.93 629.986 489.423 633.437L489.424 663.225L489.452 664.303C490.022 675.361 499.168 684.152 510.368 684.152C521.935 684.152 531.312 674.775 531.312 663.208L531.311 633.651C535.882 630.212 539.445 625.746 541.801 620.727C546.347 622.314 551.231 622.959 556.142 622.537L577.629 644.024C585.808 652.203 599.069 652.203 607.248 644.024C615.427 635.845 615.427 622.584 607.248 614.405L587.193 594.351C588.355 588.08 587.799 581.42 585.229 575.087C590.862 577.303 596.735 577.934 602.352 577.196L623.404 598.249C631.583 606.428 644.844 606.428 653.023 598.249C661.202 590.07 661.202 576.809 653.023 568.63L632.122 547.729C632.923 542.064 632.284 536.388 630.4 531.173C634.738 529.081 638.648 526.082 641.822 522.312H672.208C683.775 522.312 693.152 512.935 693.152 501.368C693.152 489.801 683.775 480.424 672.208 480.424H643.848C640.235 475.169 635.132 470.853 628.837 468.192C634.387 465.776 638.986 462.07 642.437 457.576H672.208C683.775 457.576 693.152 448.199 693.152 436.632C693.152 425.065 683.775 415.688 672.208 415.688H642.648C639.21 411.117 634.744 407.556 629.726 405.201C631.313 400.655 631.958 395.77 631.536 390.858L653.023 369.372C661.202 361.193 661.202 347.932 653.023 339.753C644.844 331.574 631.582 331.574 623.403 339.753L603.349 359.807C597.078 358.645 590.418 359.202 584.085 361.772C586.301 356.139 586.933 350.266 586.195 344.648L607.248 323.597C615.427 315.418 615.427 302.157 607.248 293.978C599.069 285.798 585.808 285.799 577.629 293.978L556.727 314.878C551.063 314.077 545.386 314.718 540.172 316.602C538.08 312.264 535.082 308.354 531.312 305.18L531.312 274.792C531.312 263.225 521.935 253.848 510.368 253.848Z" fill="#B49C81"/>
<path fill-rule="evenodd" clip-rule="evenodd" d="M477.19 318.163C484.546 300.76 504.55 292.46 522.095 299.617C530.34 302.981 536.585 309.165 540.172 316.601C547.935 313.796 556.723 313.743 564.969 317.106C582.514 324.264 591.002 344.189 584.085 361.771C601.592 354.666 621.607 362.941 628.952 380.408C632.404 388.617 632.447 397.406 629.725 405.2C637.198 408.707 643.448 414.883 646.9 423.092C654.245 440.559 646.16 460.65 628.837 468.191C646.24 475.547 654.541 495.55 647.384 513.095C644.02 521.34 637.836 527.585 630.4 531.172C633.205 538.936 633.257 547.724 629.893 555.969C622.736 573.514 602.811 582.003 585.228 575.085C592.334 592.592 584.06 612.606 566.593 619.951C558.384 623.403 549.594 623.446 541.801 620.725C538.294 628.198 532.117 634.448 523.908 637.9C506.441 645.245 486.35 637.159 478.808 619.836C471.454 637.24 451.449 645.543 433.904 638.386C425.659 635.022 419.416 628.836 415.83 621.4C408.066 624.206 399.277 624.259 391.031 620.895C373.486 613.738 364.996 593.812 371.914 576.229C354.407 583.335 334.392 575.061 327.047 557.594C323.595 549.385 323.554 540.597 326.275 532.804C318.801 529.297 312.55 523.119 309.098 514.91C301.752 497.442 309.84 477.349 327.165 469.809C309.76 462.454 301.458 442.45 308.615 424.904C311.979 416.659 318.164 410.416 325.599 406.83C322.794 399.066 322.742 390.276 326.105 382.03C333.263 364.486 353.188 355.997 370.77 362.914C363.665 345.407 371.94 325.391 389.407 318.046C397.616 314.594 406.404 314.554 414.197 317.275C417.703 309.801 423.882 303.55 432.091 300.098C449.558 292.753 469.649 300.839 477.19 318.163ZM513.465 320.772C507.467 318.326 500.622 321.203 498.175 327.2L490.083 347.033C486.594 346.735 483.063 346.582 479.497 346.582C474.499 346.582 469.571 346.882 464.73 347.462L456.306 327.424C453.794 321.453 446.918 318.648 440.947 321.159C434.979 323.669 432.175 330.541 434.681 336.51L441.443 352.592C434.125 354.975 427.111 358.026 420.476 361.674L413.619 345.366L413.37 344.817C410.677 339.231 404.046 336.676 398.264 339.107C392.293 341.618 389.487 348.495 391.998 354.466L400.679 375.109L400.789 375.154C394.407 380.509 388.588 386.502 383.43 393.035L383.285 392.689L362.551 384.231C356.553 381.785 349.707 384.663 347.261 390.661C344.815 396.656 347.691 403.497 353.683 405.946L370.681 412.88C367.23 419.62 364.394 426.723 362.25 434.117L345.054 427.102L344.489 426.89C338.634 424.844 332.14 427.727 329.77 433.535C327.324 439.533 330.203 446.378 336.2 448.825L356.935 457.284L357.983 456.843C357.664 460.415 357.501 464.032 357.501 467.687C357.501 472.723 357.813 477.688 358.414 482.562L357.068 482.014L336.425 490.695C330.454 493.206 327.648 500.083 330.159 506.054C332.669 512.022 339.541 514.826 345.51 512.32L363.344 504.82C365.715 512.137 368.769 519.149 372.431 525.784L354.366 533.382L353.817 533.631C348.231 536.324 345.677 542.955 348.108 548.737C350.619 554.708 357.496 557.514 363.467 555.003L384.108 546.322L384.959 544.235C390.586 551.076 396.95 557.294 403.933 562.77L401.689 563.715L393.231 584.449C390.785 590.447 393.664 597.293 399.661 599.74C405.656 602.185 412.498 599.309 414.947 593.316L422.503 574.791C429.202 578.311 436.271 581.23 443.637 583.475L436.102 601.946L435.89 602.511C433.844 608.365 436.727 614.86 442.535 617.229C448.533 619.676 455.378 616.797 457.825 610.8L466.283 590.064L465.412 587.994C470.033 588.521 474.733 588.794 479.497 588.794C483.623 588.794 487.701 588.589 491.722 588.192L491.013 589.932L499.694 610.575C502.205 616.546 509.081 619.349 515.052 616.839C521.022 614.328 523.828 607.453 521.318 601.482L513.925 583.901C521.322 581.745 528.427 578.914 535.168 575.476L542.38 592.626C544.891 598.596 551.765 601.399 557.735 598.89C563.706 596.379 566.512 589.504 564.002 583.533L555.321 562.89L555.05 562.778C561.625 557.623 567.651 551.809 573.031 545.438L593.449 553.768C599.447 556.215 606.292 553.335 608.738 547.338C611.184 541.341 608.306 534.496 602.309 532.049L586.636 525.654C590.289 519.013 593.333 511.995 595.696 504.674L610.94 510.893C616.937 513.339 623.781 510.461 626.228 504.465C628.675 498.467 625.797 491.622 619.8 489.175L600.72 481.39C601.23 476.892 601.493 472.32 601.493 467.687C601.493 463.464 601.275 459.291 600.85 455.18L619.575 447.307C625.546 444.795 628.349 437.919 625.839 431.948C623.328 425.978 616.453 423.172 610.482 425.683L596.034 431.758C593.739 424.414 590.757 417.371 587.167 410.7L601.626 404.621C607.596 402.11 610.401 395.235 607.89 389.265C605.38 383.294 598.504 380.489 592.533 382.999L573.813 390.87C568.227 384.119 561.921 377.979 555.01 372.565L562.768 353.551C565.215 347.553 562.335 340.709 556.338 338.263C550.341 335.817 543.496 338.693 541.049 344.69L534.899 359.763C528.151 356.342 521.04 353.528 513.639 351.391L519.893 336.06C522.339 330.063 519.461 323.219 513.465 320.772Z" fill="#B49C81"/>
</svg>
