<svg width="2463" height="1094" viewBox="0 0 2463 1094" fill="none" xmlns="http://www.w3.org/2000/svg">
<path d="M2119.52 653.468H2045.33V303.059H2119.52V653.468Z" fill="black"/>
<path d="M1751.67 653.468L1659.92 420.675V653.468H1592.57V303.059H1681.39L1782.9 562.694L1884.9 303.059H1973.72V653.468H1906.37V418.723L1813.65 653.468H1751.67Z" fill="black"/>
<path d="M1364.22 660.789C1338.84 660.789 1315.09 656.396 1292.96 647.612C1271.17 638.502 1251.97 625.813 1235.38 609.545C1219.11 593.277 1206.42 573.918 1197.31 551.469C1188.2 528.694 1183.64 503.804 1183.64 476.799C1183.64 450.771 1188.04 426.857 1196.82 405.058C1205.61 383.259 1217.97 364.063 1233.91 347.47C1249.85 330.877 1268.56 318.188 1290.04 309.403C1311.83 300.293 1335.59 295.738 1361.29 295.738C1390.9 295.738 1417.41 301.269 1440.84 312.331C1464.59 323.068 1484.44 338.035 1500.38 357.231C1516.65 376.427 1528.68 398.876 1536.49 424.58H1449.14C1445.56 412.541 1439.7 401.967 1431.57 392.857C1423.43 383.422 1413.35 375.939 1401.31 370.408C1389.27 364.877 1375.28 362.111 1359.34 362.111C1340.47 362.111 1323.38 366.666 1308.09 375.776C1293.13 384.561 1281.25 397.738 1272.47 415.307C1264.01 432.551 1259.78 453.699 1259.78 478.751C1259.78 501.201 1263.84 521.373 1271.98 539.268C1280.11 557.162 1292.15 571.478 1308.09 582.215C1324.36 592.626 1344.21 597.832 1367.63 597.832C1384.88 597.832 1399.84 594.741 1412.53 588.559C1425.55 582.052 1436.12 573.268 1444.25 562.205C1452.71 550.818 1458.57 537.966 1461.82 523.651H1360.31V464.598H1540.89C1542.19 493.23 1538.93 519.584 1531.12 543.66C1523.32 567.411 1511.6 588.071 1495.99 605.641C1480.69 623.21 1461.82 636.875 1439.37 646.635C1417.25 656.071 1392.2 660.789 1364.22 660.789Z" fill="black"/>
<path d="M910.474 653.468L818.723 420.675V653.468H751.375V303.059H840.197L941.708 562.694L1043.71 303.059H1132.53V653.468H1065.18V418.723L972.454 653.468H910.474Z" fill="black"/>
<path d="M2238.51 862.313H2267.42L2269.17 867.395H2236.01L2238.51 862.313ZM2272.83 883.976L2252.67 830.818L2232.34 883.976H2226.17L2249.42 824.152H2256.25L2279.42 883.976H2272.83Z" fill="black"/>
<path d="M2195.49 883.976H2189.24V824.152H2195.49V883.976Z" fill="black"/>
<path d="M2155.94 867.395C2155.94 870.561 2155.11 873.478 2153.44 876.144C2151.78 878.755 2149.33 880.865 2146.11 882.476C2142.89 884.032 2138.95 884.809 2134.28 884.809C2129.61 884.809 2125.62 884.004 2122.28 882.393C2119.01 880.782 2116.45 878.56 2114.62 875.727C2112.84 872.839 2111.84 869.506 2111.62 865.729H2117.95C2118.28 869.95 2119.78 873.339 2122.45 875.894C2125.12 878.449 2129.03 879.727 2134.2 879.727C2137.03 879.727 2139.59 879.282 2141.86 878.394C2144.2 877.449 2146.03 876.116 2147.36 874.394C2148.7 872.617 2149.36 870.561 2149.36 868.229C2149.36 865.118 2148.42 862.785 2146.53 861.23C2144.64 859.619 2141.59 858.369 2137.36 857.48L2129.78 855.98C2127.78 855.592 2125.81 855.036 2123.87 854.314C2121.98 853.592 2120.26 852.648 2118.7 851.481C2117.14 850.259 2115.89 848.759 2114.95 846.982C2114.01 845.149 2113.53 842.927 2113.53 840.316C2113.53 837.094 2114.39 834.206 2116.12 831.651C2117.84 829.096 2120.23 827.068 2123.28 825.568C2126.34 824.068 2129.86 823.319 2133.86 823.319C2137.81 823.319 2141.34 824.096 2144.45 825.652C2147.56 827.207 2150.08 829.373 2152.03 832.151C2153.97 834.928 2155.03 838.233 2155.19 842.066H2148.78C2148.67 839.4 2147.95 837.039 2146.61 834.984C2145.33 832.928 2143.61 831.317 2141.45 830.151C2139.34 828.984 2136.84 828.401 2133.95 828.401C2130.89 828.401 2128.31 828.957 2126.2 830.068C2124.14 831.179 2122.56 832.595 2121.45 834.317C2120.39 836.039 2119.87 837.928 2119.87 839.983C2119.87 842.316 2120.45 844.177 2121.62 845.565C2122.84 846.954 2124.39 848.037 2126.28 848.815C2128.23 849.537 2130.31 850.12 2132.53 850.564L2140.11 852.148C2145.17 853.203 2149.06 854.897 2151.78 857.23C2154.56 859.508 2155.94 862.896 2155.94 867.395Z" fill="black"/>
<path d="M2080.76 878.56V883.976H2044.85V824.152H2080.18V829.568H2051.1V850.398H2077.68V855.814H2051.1V878.56H2080.76Z" fill="black"/>
<path d="M2002.99 883.976L1968.08 832.984V883.976H1962.24V824.152H1969.16L2003.74 874.478V824.152H2009.65V883.976H2002.99Z" fill="black"/>
<path d="M1900.36 885.226C1896.03 885.226 1892.03 884.42 1888.36 882.809C1884.7 881.199 1881.5 878.977 1878.78 876.144C1876.06 873.311 1873.95 870.006 1872.45 866.229C1870.95 862.396 1870.2 858.313 1870.2 853.981C1870.2 849.648 1870.95 845.593 1872.45 841.816C1873.95 838.038 1876.06 834.733 1878.78 831.901C1881.5 829.068 1884.7 826.873 1888.36 825.318C1892.03 823.707 1896.03 822.902 1900.36 822.902C1904.69 822.902 1908.69 823.707 1912.36 825.318C1916.02 826.873 1919.22 829.068 1921.94 831.901C1924.72 834.733 1926.86 838.038 1928.36 841.816C1929.86 845.593 1930.61 849.648 1930.61 853.981C1930.61 858.313 1929.86 862.396 1928.36 866.229C1926.86 870.006 1924.72 873.311 1921.94 876.144C1919.22 878.977 1916.02 881.199 1912.36 882.809C1908.69 884.42 1904.69 885.226 1900.36 885.226ZM1900.36 879.643C1903.92 879.643 1907.14 879.005 1910.03 877.727C1912.91 876.394 1915.41 874.561 1917.52 872.228C1919.64 869.839 1921.25 867.09 1922.36 863.979C1923.52 860.868 1924.11 857.536 1924.11 853.981C1924.11 850.425 1923.52 847.093 1922.36 843.982C1921.25 840.871 1919.64 838.177 1917.52 835.9C1915.41 833.567 1912.91 831.762 1910.03 830.484C1907.14 829.151 1903.92 828.484 1900.36 828.484C1896.86 828.484 1893.64 829.151 1890.7 830.484C1887.81 831.762 1885.31 833.567 1883.2 835.9C1881.09 838.177 1879.45 840.871 1878.28 843.982C1877.17 847.093 1876.61 850.425 1876.61 853.981C1876.61 857.536 1877.17 860.868 1878.28 863.979C1879.45 867.09 1881.09 869.839 1883.2 872.228C1885.31 874.561 1887.81 876.394 1890.7 877.727C1893.64 879.005 1896.86 879.643 1900.36 879.643Z" fill="black"/>
<path d="M1812.15 883.976H1795.16V824.152H1812.15C1818.54 824.152 1823.96 825.429 1828.4 827.985C1832.85 830.484 1836.21 833.956 1838.48 838.4C1840.76 842.843 1841.9 847.982 1841.9 853.814C1841.9 859.591 1840.73 864.757 1838.4 869.312C1836.07 873.811 1832.65 877.394 1828.15 880.06C1823.71 882.671 1818.37 883.976 1812.15 883.976ZM1801.41 829.568V878.56H1811.99C1817.1 878.56 1821.4 877.533 1824.9 875.477C1828.4 873.422 1831.04 870.534 1832.82 866.812C1834.65 863.09 1835.57 858.758 1835.57 853.814C1835.57 848.87 1834.65 844.593 1832.82 840.983C1831.04 837.317 1828.4 834.511 1824.9 832.567C1821.4 830.568 1817.1 829.568 1811.99 829.568H1801.41Z" fill="black"/>
<path d="M1753.29 883.976L1718.38 832.984V883.976H1712.55V824.152H1719.46L1754.04 874.478V824.152H1759.96V883.976H1753.29Z" fill="black"/>
<path d="M1677.36 883.976H1671.11V824.152H1677.36V883.976Z" fill="black"/>
<path d="M1560.52 862.313H1589.43L1591.18 867.395H1558.02L1560.52 862.313ZM1594.84 883.976L1574.68 830.818L1554.35 883.976H1548.18L1571.43 824.152H1578.26L1601.43 883.976H1594.84Z" fill="black"/>
<path d="M1485.44 883.976H1479.19V824.152H1500.52C1506.91 824.152 1511.93 825.735 1515.6 828.901C1519.27 832.012 1521.1 836.456 1521.1 842.232C1521.1 846.732 1519.71 850.565 1516.93 853.731C1514.21 856.841 1510.49 858.786 1505.77 859.563L1522.68 883.976H1515.18L1499.1 860.313H1485.44V883.976ZM1485.44 829.401V855.064H1500.02C1504.57 855.064 1508.18 853.981 1510.85 851.814C1513.52 849.592 1514.85 846.399 1514.85 842.232C1514.85 838.066 1513.52 834.9 1510.85 832.734C1508.18 830.512 1504.57 829.401 1500.02 829.401H1485.44Z" fill="black"/>
<path d="M1429.05 883.976H1422.89V829.734H1402.81V824.152H1449.13V829.734H1429.05V883.976Z" fill="black"/>
<path d="M1372.7 883.976H1366.45V824.152H1372.7V883.976Z" fill="black"/>
<path d="M1298.24 883.976L1276.58 833.234V883.976H1270.75V824.152H1278.83L1300.99 876.311L1323.32 824.152H1331.32V883.976H1325.57V833.234L1303.74 883.976H1298.24Z" fill="black"/>
<path d="M2027.88 761.979H2014.47V783.976H2008.22V724.152H2027.88C2031.99 724.152 2035.6 724.902 2038.71 726.402C2041.82 727.846 2044.24 729.957 2045.96 732.734C2047.74 735.511 2048.63 738.927 2048.63 742.982C2048.63 747.037 2047.74 750.481 2045.96 753.314C2044.24 756.147 2041.82 758.313 2038.71 759.813C2035.6 761.257 2031.99 761.979 2027.88 761.979ZM2027.8 729.484H2014.47V756.647H2027.8C2032.24 756.647 2035.77 755.453 2038.38 753.064C2041.04 750.676 2042.38 747.315 2042.38 742.982C2042.38 738.65 2041.04 735.317 2038.38 732.984C2035.77 730.651 2032.24 729.484 2027.8 729.484Z" fill="black"/>
<path d="M1973.25 724.152V763.479C1973.25 767.923 1972.34 771.784 1970.5 775.061C1968.73 778.338 1966.2 780.866 1962.92 782.643C1959.64 784.365 1955.81 785.226 1951.42 785.226C1946.98 785.226 1943.12 784.365 1939.84 782.643C1936.56 780.866 1934.01 778.338 1932.18 775.061C1930.4 771.784 1929.51 767.923 1929.51 763.479V724.152H1935.76V763.813C1935.76 767.034 1936.43 769.839 1937.76 772.228C1939.09 774.616 1940.93 776.45 1943.26 777.727C1945.59 779.005 1948.31 779.643 1951.42 779.643C1954.53 779.643 1957.26 779.005 1959.59 777.727C1961.92 776.45 1963.73 774.616 1965 772.228C1966.34 769.839 1967 767.034 1967 763.813V724.152H1973.25Z" fill="black"/>
<path d="M1861.62 783.976H1855.37V724.152H1876.7C1883.09 724.152 1888.11 725.735 1891.78 728.901C1895.45 732.012 1897.28 736.456 1897.28 742.232C1897.28 746.732 1895.89 750.565 1893.11 753.731C1890.39 756.841 1886.67 758.786 1881.95 759.563L1898.86 783.976H1891.36L1875.28 760.313H1861.62V783.976ZM1861.62 729.401V755.064H1876.2C1880.75 755.064 1884.36 753.981 1887.03 751.814C1889.7 749.592 1891.03 746.398 1891.03 742.232C1891.03 738.066 1889.7 734.9 1887.03 732.734C1884.36 730.512 1880.75 729.401 1876.2 729.401H1861.62Z" fill="black"/>
<path d="M1794.14 785.226C1789.86 785.226 1785.89 784.448 1782.22 782.893C1778.56 781.337 1775.34 779.171 1772.56 776.394C1769.84 773.616 1767.7 770.339 1766.14 766.562C1764.64 762.729 1763.89 758.563 1763.89 754.064C1763.89 749.62 1764.61 745.537 1766.06 741.816C1767.56 738.038 1769.64 734.733 1772.31 731.901C1774.97 729.012 1778.11 726.79 1781.72 725.235C1785.39 723.68 1789.39 722.902 1793.72 722.902C1798.94 722.902 1803.53 723.874 1807.47 725.818C1811.41 727.762 1814.69 730.373 1817.3 733.65C1819.91 736.928 1821.77 740.594 1822.88 744.649H1815.8C1814.97 741.649 1813.58 738.927 1811.64 736.483C1809.69 734.039 1807.19 732.095 1804.14 730.651C1801.14 729.206 1797.61 728.484 1793.56 728.484C1789 728.484 1784.97 729.595 1781.47 731.817C1777.97 733.984 1775.22 736.983 1773.22 740.816C1771.28 744.649 1770.31 749.092 1770.31 754.147C1770.31 759.035 1771.31 763.424 1773.31 767.312C1775.31 771.2 1778.11 774.255 1781.72 776.477C1785.33 778.699 1789.53 779.81 1794.3 779.81C1798.64 779.81 1802.41 778.977 1805.64 777.31C1808.86 775.588 1811.44 773.172 1813.39 770.061C1815.39 766.951 1816.63 763.312 1817.13 759.146H1793.64V754.064H1823.63C1823.63 758.785 1822.91 763.062 1821.47 766.895C1820.08 770.728 1818.08 774.033 1815.47 776.81C1812.86 779.532 1809.75 781.615 1806.14 783.059C1802.58 784.504 1798.58 785.226 1794.14 785.226Z" fill="black"/>
<path d="M1661.48 783.976H1655.23V724.152H1661.48V752.981L1689.8 724.152H1697.05L1667.89 753.981L1697.89 783.976H1689.8L1661.48 755.897V783.976Z" fill="black"/>
<path d="M1620.04 783.976H1613.79V724.152H1620.04V783.976Z" fill="black"/>
<path d="M1571.93 783.976L1537.02 732.984V783.976H1531.18V724.152H1538.1L1572.68 774.478V724.152H1578.59V783.976H1571.93Z" fill="black"/>
<path d="M1459.66 762.313H1488.57L1490.32 767.395H1457.16L1459.66 762.313ZM1493.99 783.976L1473.83 730.818L1453.5 783.976H1447.33L1470.58 724.152H1477.41L1500.57 783.976H1493.99Z" fill="black"/>
<path d="M1393.28 785.226C1389.01 785.226 1385.04 784.448 1381.37 782.893C1377.7 781.337 1374.48 779.171 1371.7 776.394C1368.98 773.616 1366.84 770.339 1365.29 766.562C1363.79 762.729 1363.04 758.563 1363.04 754.064C1363.04 749.62 1363.76 745.537 1365.2 741.816C1366.7 738.038 1368.79 734.733 1371.45 731.901C1374.12 729.012 1377.26 726.79 1380.87 725.235C1384.54 723.68 1388.53 722.902 1392.87 722.902C1398.09 722.902 1402.67 723.874 1406.62 725.818C1410.56 727.762 1413.84 730.373 1416.45 733.65C1419.06 736.928 1420.92 740.594 1422.03 744.649H1414.95C1414.11 741.649 1412.73 738.927 1410.78 736.483C1408.84 734.039 1406.34 732.095 1403.28 730.651C1400.28 729.206 1396.76 728.484 1392.7 728.484C1388.15 728.484 1384.12 729.595 1380.62 731.817C1377.12 733.984 1374.37 736.983 1372.37 740.816C1370.43 744.649 1369.45 749.092 1369.45 754.147C1369.45 759.035 1370.45 763.424 1372.45 767.312C1374.45 771.2 1377.26 774.255 1380.87 776.477C1384.48 778.699 1388.67 779.81 1393.45 779.81C1397.78 779.81 1401.56 778.977 1404.78 777.31C1408 775.588 1410.59 773.172 1412.53 770.061C1414.53 766.951 1415.78 763.312 1416.28 759.146H1392.78V754.064H1422.78C1422.78 758.785 1422.06 763.062 1420.61 766.895C1419.22 770.728 1417.22 774.033 1414.61 776.81C1412 779.532 1408.89 781.615 1405.28 783.059C1401.73 784.504 1397.73 785.226 1393.28 785.226Z" fill="black"/>
<path d="M1298.24 783.976L1276.58 733.234V783.976H1270.75V724.152H1278.83L1300.99 776.311L1323.32 724.152H1331.32V783.976H1325.57V733.234L1303.74 783.976H1298.24Z" fill="black"/>
<path d="M432.368 240.738C456.554 240.738 476.16 260.345 476.16 284.53V294.872L483.473 287.56C500.574 270.458 528.302 270.458 545.403 287.56C554.471 296.627 558.73 308.682 558.182 320.557C570.056 320.009 582.111 324.267 591.179 333.335C608.281 350.437 608.281 378.165 591.179 395.267L583.867 402.578H594.208C618.394 402.578 638 422.185 638 446.37C638 459.194 632.487 470.729 623.703 478.738C632.487 486.747 638 498.283 638 511.106C638 535.292 618.394 554.898 594.208 554.898H583.865L591.179 562.212C608.281 579.314 608.281 607.042 591.179 624.144C582.111 633.211 570.057 637.47 558.183 636.922C558.73 648.796 554.472 660.85 545.404 669.918C528.302 687.02 500.574 687.02 483.473 669.918L476.16 662.605V672.946C476.16 697.132 456.554 716.738 432.368 716.738C419.545 716.738 408.009 711.227 400 702.443C391.991 711.227 380.455 716.738 367.632 716.738C343.446 716.738 323.84 697.132 323.84 672.946V662.605L316.527 669.918C299.425 687.02 271.698 687.02 254.596 669.918C245.528 660.851 241.269 648.796 241.816 636.922C229.943 637.469 217.889 633.21 208.821 624.143C191.719 607.041 191.719 579.313 208.821 562.211L216.134 554.898H205.792C181.606 554.898 162 535.292 162 511.106C162 498.283 167.512 486.747 176.295 478.738C167.512 470.729 162 459.193 162 446.37C162 422.185 181.606 402.578 205.792 402.578H216.133L208.821 395.267C191.719 378.165 191.719 350.438 208.821 333.336C217.889 324.269 229.943 320.008 241.816 320.556C241.269 308.682 245.529 296.628 254.597 287.561C271.699 270.459 299.426 270.459 316.527 287.561L323.84 294.873V284.53C323.84 260.345 343.446 240.738 367.632 240.738C380.455 240.738 391.991 246.251 400 255.035C408.009 246.251 419.544 240.738 432.368 240.738ZM432.368 263.586C420.801 263.586 411.424 272.963 411.424 284.53L411.423 312.892C406.167 316.504 401.851 321.608 399.19 327.903C396.774 322.353 393.069 317.752 388.576 314.302V284.53C388.576 272.963 379.199 263.586 367.632 263.586C356.065 263.586 346.688 272.963 346.688 284.53V314.086C342.116 317.526 338.553 321.994 336.197 327.015C331.651 325.427 326.768 324.781 321.857 325.202L300.371 303.716C292.192 295.537 278.931 295.537 270.752 303.716C262.577 311.891 262.573 325.144 270.74 333.324L290.806 353.389C289.644 359.659 290.2 366.321 292.771 372.653C287.137 370.437 281.264 369.804 275.646 370.542L254.584 349.479L253.802 348.737C245.58 341.321 232.896 341.572 224.977 349.491C216.798 357.67 216.798 370.931 224.977 379.11L245.876 400.01C245.075 405.675 245.715 411.354 247.6 416.569C243.264 418.661 239.354 421.657 236.18 425.426L205.792 425.427C194.225 425.427 184.848 434.803 184.848 446.37C184.848 457.931 194.217 467.305 205.775 467.314H234.151C237.764 472.571 242.868 476.888 249.164 479.549C243.614 481.965 239.014 485.669 235.563 490.162H205.775L204.697 490.19C193.639 490.76 184.848 499.907 184.848 511.106C184.848 522.673 194.225 532.05 205.792 532.05H235.346C238.786 536.624 243.254 540.187 248.275 542.543C246.688 547.088 246.042 551.971 246.463 556.88L224.977 578.367C216.798 586.546 216.798 599.807 224.977 607.986C233.152 616.161 246.404 616.165 254.584 607.998L274.647 587.934C280.919 589.096 287.58 588.54 293.914 585.97C291.698 591.602 291.065 597.474 291.803 603.091L270.74 624.154L269.997 624.937C262.581 633.158 262.833 645.842 270.752 653.762C278.931 661.941 292.192 661.941 300.371 653.762L321.269 632.863C326.935 633.665 332.614 633.025 337.83 631.141C339.922 635.477 342.919 639.387 346.688 642.562V672.946C346.688 684.513 356.065 693.891 367.632 693.891C379.193 693.891 388.567 684.522 388.576 672.963V644.587C393.832 640.974 398.148 635.871 400.809 629.575C403.224 635.125 406.93 639.725 411.423 643.175L411.424 672.963L411.452 674.041C412.022 685.099 421.168 693.891 432.368 693.891C443.935 693.891 453.312 684.513 453.312 672.946L453.311 643.391C457.883 639.952 461.445 635.485 463.801 630.465C468.347 632.052 473.231 632.697 478.142 632.275L499.629 653.763C507.808 661.941 521.069 661.942 529.248 653.763C537.427 645.584 537.427 632.323 529.248 624.144L509.193 604.089C510.355 597.818 509.799 591.158 507.229 584.825C512.861 587.041 518.735 587.672 524.352 586.935L545.404 607.987C553.583 616.166 566.844 616.166 575.023 607.987C583.202 599.808 583.202 586.547 575.023 578.368L554.123 557.468C554.924 551.804 554.284 546.127 552.4 540.912C556.738 538.82 560.649 535.821 563.823 532.05H594.208C605.775 532.05 615.152 522.673 615.152 511.106C615.152 499.539 605.775 490.162 594.208 490.162H565.848C562.235 484.907 557.132 480.591 550.837 477.931C556.387 475.514 560.987 471.808 564.438 467.314H594.208C605.775 467.314 615.152 457.937 615.152 446.37C615.152 434.803 605.775 425.426 594.208 425.426H564.648C561.21 420.855 556.744 417.294 551.726 414.939C553.313 410.393 553.958 405.508 553.536 400.597L575.023 379.11C583.202 370.931 583.202 357.67 575.023 349.491C566.844 341.312 553.582 341.312 545.403 349.491L525.349 369.545C519.078 368.383 512.418 368.941 506.085 371.511C508.301 365.878 508.933 360.004 508.195 354.387L529.248 333.335C537.427 325.156 537.427 311.895 529.248 303.716C521.069 295.537 507.808 295.537 499.629 303.716L478.727 324.616C473.063 323.816 467.386 324.456 462.172 326.34C460.08 322.003 457.082 318.092 453.312 314.918L453.312 284.53C453.312 272.963 443.935 263.586 432.368 263.586Z" fill="black"/>
<path fill-rule="evenodd" clip-rule="evenodd" d="M399.19 327.902C406.545 310.499 426.55 302.198 444.094 309.355C452.34 312.719 458.585 318.903 462.172 326.338C469.935 323.534 478.723 323.482 486.969 326.845C504.513 334.003 513.002 353.927 506.085 371.509C523.592 364.404 543.607 372.68 550.952 390.147C554.404 398.356 554.447 407.145 551.725 414.938C559.198 418.445 565.449 424.622 568.901 432.831C576.246 450.297 568.16 470.388 550.837 477.929C568.24 485.285 576.541 505.289 569.384 522.834C566.02 531.079 559.836 537.324 552.4 540.911C555.205 548.674 555.257 557.462 551.893 565.707C544.736 583.252 524.811 591.742 507.228 584.824C514.334 602.331 506.06 622.345 488.593 629.69C480.383 633.142 471.594 633.185 463.801 630.463C460.294 637.936 454.117 644.187 445.909 647.639C428.442 654.984 408.349 646.898 400.808 629.574C393.454 646.978 373.449 655.281 355.904 648.124C347.659 644.76 341.416 638.574 337.83 631.139C330.066 633.945 321.277 633.997 313.031 630.633C295.486 623.476 286.997 603.551 293.914 585.968C276.407 593.074 256.392 584.799 249.047 567.333C245.595 559.124 245.554 550.335 248.275 542.542C240.802 539.035 234.55 532.858 231.097 524.649C223.752 507.182 231.84 487.089 249.164 479.547C231.76 472.193 223.458 452.188 230.615 434.643C233.979 426.398 240.164 420.154 247.599 416.568C244.794 408.804 244.742 400.015 248.105 391.769C255.263 374.224 275.188 365.735 292.77 372.652C285.665 355.145 293.94 335.13 311.407 327.785C319.616 324.333 328.404 324.292 336.197 327.013C339.703 319.54 345.882 313.288 354.091 309.836C371.558 302.491 391.649 310.578 399.19 327.902ZM435.465 330.51C429.467 328.064 422.622 330.942 420.175 336.939L412.083 356.771C408.594 356.473 405.063 356.32 401.497 356.32C396.499 356.32 391.572 356.621 386.731 357.201L378.305 337.163C375.795 331.192 368.918 328.386 362.947 330.897C356.979 333.407 354.174 340.28 356.68 346.249L363.442 362.33C356.124 364.713 349.111 367.765 342.476 371.413L335.619 355.105L335.37 354.556C332.677 348.97 326.046 346.415 320.263 348.846C314.293 351.357 311.487 358.234 313.998 364.205L322.677 384.847L322.789 384.892C316.407 390.247 310.588 396.24 305.429 402.773L305.285 402.427L284.551 393.969C278.553 391.523 271.707 394.402 269.261 400.399C266.815 406.394 269.692 413.236 275.684 415.685L292.68 422.619C289.229 429.358 286.394 436.462 284.25 443.855L267.053 436.84L266.49 436.629C260.635 434.583 254.14 437.465 251.77 443.273C249.324 449.271 252.203 456.116 258.2 458.563L278.935 467.022L279.983 466.581C279.664 470.153 279.501 473.771 279.501 477.426C279.501 482.462 279.812 487.427 280.414 492.301L279.067 491.753L258.425 500.433C252.454 502.944 249.648 509.821 252.159 515.792C254.669 521.76 261.54 524.564 267.51 522.058L285.343 514.558C287.714 521.875 290.769 528.887 294.43 535.522L276.366 543.12L275.817 543.369C270.231 546.062 267.677 552.693 270.108 558.475C272.619 564.446 279.496 567.251 285.467 564.741L306.108 556.06L306.959 553.973C312.586 560.814 318.95 567.032 325.933 572.508L323.689 573.453L315.231 594.188C312.785 600.186 315.664 607.031 321.661 609.478C327.656 611.923 334.498 609.047 336.947 603.054L344.503 584.53C351.202 588.05 358.271 590.968 365.636 593.213L358.102 611.685L357.89 612.249C355.844 618.103 358.727 624.599 364.535 626.968C370.532 629.415 377.378 626.536 379.825 620.539L388.283 599.803L387.412 597.732C392.033 598.259 396.733 598.532 401.497 598.532C405.623 598.532 409.701 598.327 413.721 597.93L413.012 599.67L421.694 620.314C424.205 626.284 431.081 629.088 437.052 626.578C443.022 624.067 445.828 617.191 443.318 611.22L435.926 593.64C443.322 591.484 450.427 588.652 457.168 585.214L464.38 602.364C466.891 608.334 473.765 611.138 479.735 608.629C485.706 606.118 488.512 599.243 486.002 593.272L477.321 572.629L477.049 572.517C483.624 567.362 489.651 561.548 495.031 555.177L515.449 563.507C521.446 565.954 528.291 563.074 530.738 557.077C533.184 551.08 530.307 544.234 524.31 541.787L508.635 535.392C512.289 528.752 515.333 521.734 517.696 514.413L532.94 520.631C538.937 523.077 545.781 520.2 548.228 514.203C550.675 508.205 547.797 501.361 541.8 498.914L522.719 491.13C523.23 486.632 523.494 482.06 523.494 477.426C523.494 473.202 523.274 469.029 522.849 464.917L541.575 457.045C547.545 454.533 550.349 447.658 547.839 441.687C545.328 435.717 538.453 432.91 532.482 435.421L518.034 441.495C515.739 434.152 512.757 427.109 509.167 420.438L523.626 414.359C529.596 411.848 532.4 404.974 529.89 399.004C527.38 393.033 520.504 390.227 514.533 392.737L495.812 400.607C490.227 393.857 483.921 387.718 477.01 382.304L484.768 363.29C487.214 357.292 484.336 350.447 478.339 348.001C472.342 345.554 465.496 348.432 463.049 354.428L456.899 369.501C450.151 366.08 443.04 363.266 435.638 361.129L441.893 345.798C444.339 339.801 441.461 332.957 435.465 330.51Z" fill="black"/>
</svg>
