<svg width="2463" height="1094" viewBox="0 0 2463 1094" fill="none" xmlns="http://www.w3.org/2000/svg">
<path d="M2119.36 652.73H2045.18V302.321H2119.36V652.73Z" fill="white"/>
<path d="M1751.51 652.73L1659.76 419.937V652.73H1592.41V302.321H1681.23L1782.74 561.955L1884.74 302.321H1973.56V652.73H1906.22V417.985L1813.49 652.73H1751.51Z" fill="white"/>
<path d="M1364.06 660.05C1338.68 660.05 1314.93 655.658 1292.8 646.873C1271.01 637.763 1251.81 625.074 1235.22 608.807C1218.95 592.539 1206.26 573.18 1197.15 550.73C1188.04 527.955 1183.48 503.066 1183.48 476.061C1183.48 450.032 1187.88 426.119 1196.66 404.32C1205.45 382.521 1217.81 363.325 1233.75 346.732C1249.69 330.139 1268.4 317.45 1289.88 308.665C1311.68 299.555 1335.43 295 1361.13 295C1390.74 295 1417.25 300.531 1440.68 311.593C1464.43 322.33 1484.28 337.296 1500.22 356.492C1516.49 375.688 1528.53 398.138 1536.33 423.841H1448.98C1445.4 411.803 1439.54 401.229 1431.41 392.119C1423.27 382.684 1413.19 375.2 1401.15 369.669C1389.11 364.138 1375.12 361.373 1359.18 361.373C1340.31 361.373 1323.23 365.928 1307.93 375.038C1292.97 383.822 1281.09 396.999 1272.31 414.569C1263.85 431.812 1259.62 452.961 1259.62 478.013C1259.62 500.463 1263.69 520.635 1271.82 538.529C1279.95 556.424 1291.99 570.74 1307.93 581.477C1324.2 591.888 1344.05 597.094 1367.47 597.094C1384.72 597.094 1399.68 594.003 1412.37 587.821C1425.39 581.314 1435.96 572.529 1444.1 561.467C1452.55 550.08 1458.41 537.228 1461.66 522.912H1360.15V463.86H1540.73C1542.03 492.492 1538.77 518.845 1530.97 542.922C1523.16 566.673 1511.44 587.333 1495.83 604.902C1480.54 622.472 1461.66 636.137 1439.22 645.897C1417.09 655.333 1392.04 660.05 1364.06 660.05Z" fill="white"/>
<path d="M910.315 652.73L818.564 419.937V652.73H751.215V302.321H840.038L941.549 561.955L1043.55 302.321H1132.37V652.73H1065.02V417.985L972.295 652.73H910.315Z" fill="white"/>
<path d="M2236.98 862.313H2265.89L2267.64 867.396H2234.48L2236.98 862.313ZM2271.31 883.977L2251.14 830.818L2230.81 883.977H2224.65L2247.89 824.152H2254.73L2277.89 883.977H2271.31Z" fill="white"/>
<path d="M2193.96 883.977H2187.71V824.152H2193.96V883.977Z" fill="white"/>
<path d="M2154.42 867.396C2154.42 870.562 2153.59 873.478 2151.92 876.144C2150.25 878.755 2147.81 880.866 2144.59 882.477C2141.36 884.032 2137.42 884.81 2132.76 884.81C2128.09 884.81 2124.09 884.004 2120.76 882.393C2117.48 880.783 2114.92 878.561 2113.09 875.728C2111.31 872.839 2110.31 869.507 2110.09 865.729H2116.42C2116.76 869.951 2118.26 873.339 2120.92 875.894C2123.59 878.45 2127.51 879.727 2132.67 879.727C2135.5 879.727 2138.06 879.283 2140.34 878.394C2142.67 877.45 2144.5 876.117 2145.84 874.395C2147.17 872.617 2147.84 870.562 2147.84 868.229C2147.84 865.118 2146.89 862.785 2145 861.23C2143.11 859.619 2140.06 858.369 2135.84 857.481L2128.26 855.981C2126.26 855.592 2124.28 855.036 2122.34 854.314C2120.45 853.592 2118.73 852.648 2117.17 851.481C2115.62 850.259 2114.37 848.76 2113.42 846.982C2112.48 845.149 2112.01 842.927 2112.01 840.316C2112.01 837.095 2112.87 834.206 2114.59 831.651C2116.31 829.096 2118.7 827.068 2121.76 825.569C2124.81 824.069 2128.34 823.319 2132.34 823.319C2136.28 823.319 2139.81 824.097 2142.92 825.652C2146.03 827.207 2148.56 829.374 2150.5 832.151C2152.45 834.928 2153.5 838.233 2153.67 842.066H2147.25C2147.14 839.4 2146.42 837.039 2145.09 834.984C2143.81 832.929 2142.09 831.318 2139.92 830.151C2137.81 828.985 2135.31 828.402 2132.42 828.402C2129.37 828.402 2126.78 828.957 2124.67 830.068C2122.62 831.179 2121.03 832.595 2119.92 834.317C2118.87 836.039 2118.34 837.928 2118.34 839.983C2118.34 842.316 2118.92 844.177 2120.09 845.566C2121.31 846.954 2122.87 848.038 2124.76 848.815C2126.7 849.537 2128.78 850.121 2131.01 850.565L2138.59 852.148C2143.64 853.203 2147.53 854.898 2150.25 857.231C2153.03 859.508 2154.42 862.896 2154.42 867.396Z" fill="white"/>
<path d="M2079.24 878.561V883.977H2043.33V824.152H2078.65V829.568H2049.57V850.398H2076.15V855.814H2049.57V878.561H2079.24Z" fill="white"/>
<path d="M2001.46 883.977L1966.55 832.984V883.977H1960.72V824.152H1967.63L2002.21 874.478V824.152H2008.13V883.977H2001.46Z" fill="white"/>
<path d="M1898.83 885.226C1894.5 885.226 1890.5 884.421 1886.84 882.81C1883.17 881.199 1879.98 878.977 1877.25 876.144C1874.53 873.312 1872.42 870.006 1870.92 866.229C1869.42 862.397 1868.67 858.314 1868.67 853.981C1868.67 849.648 1869.42 845.593 1870.92 841.816C1872.42 838.039 1874.53 834.734 1877.25 831.901C1879.98 829.068 1883.17 826.874 1886.84 825.319C1890.5 823.708 1894.5 822.902 1898.83 822.902C1903.17 822.902 1907.17 823.708 1910.83 825.319C1914.5 826.874 1917.69 829.068 1920.41 831.901C1923.19 834.734 1925.33 838.039 1926.83 841.816C1928.33 845.593 1929.08 849.648 1929.08 853.981C1929.08 858.314 1928.33 862.397 1926.83 866.229C1925.33 870.006 1923.19 873.312 1920.41 876.144C1917.69 878.977 1914.5 881.199 1910.83 882.81C1907.17 884.421 1903.17 885.226 1898.83 885.226ZM1898.83 879.644C1902.39 879.644 1905.61 879.005 1908.5 877.728C1911.39 876.394 1913.89 874.561 1916 872.228C1918.11 869.84 1919.72 867.09 1920.83 863.98C1922 860.869 1922.58 857.536 1922.58 853.981C1922.58 850.426 1922 847.093 1920.83 843.983C1919.72 840.872 1918.11 838.178 1916 835.901C1913.89 833.568 1911.39 831.762 1908.5 830.485C1905.61 829.152 1902.39 828.485 1898.83 828.485C1895.34 828.485 1892.11 829.152 1889.17 830.485C1886.28 831.762 1883.78 833.568 1881.67 835.901C1879.56 838.178 1877.92 840.872 1876.75 843.983C1875.64 847.093 1875.09 850.426 1875.09 853.981C1875.09 857.536 1875.64 860.869 1876.75 863.98C1877.92 867.09 1879.56 869.84 1881.67 872.228C1883.78 874.561 1886.28 876.394 1889.17 877.728C1892.11 879.005 1895.34 879.644 1898.83 879.644Z" fill="white"/>
<path d="M1810.63 883.977H1793.63V824.152H1810.63C1817.02 824.152 1822.43 825.43 1826.88 827.985C1831.32 830.485 1834.68 833.956 1836.96 838.4C1839.23 842.844 1840.37 847.982 1840.37 853.814C1840.37 859.591 1839.21 864.757 1836.87 869.312C1834.54 873.811 1831.12 877.394 1826.63 880.06C1822.18 882.671 1816.85 883.977 1810.63 883.977ZM1799.88 829.568V878.561H1810.46C1815.57 878.561 1819.88 877.533 1823.38 875.478C1826.88 873.423 1829.51 870.534 1831.29 866.812C1833.12 863.091 1834.04 858.758 1834.04 853.814C1834.04 848.871 1833.12 844.594 1831.29 840.983C1829.51 837.317 1826.88 834.512 1823.38 832.568C1819.88 830.568 1815.57 829.568 1810.46 829.568H1799.88Z" fill="white"/>
<path d="M1751.77 883.977L1716.85 832.984V883.977H1711.02V824.152H1717.94L1752.52 874.478V824.152H1758.43V883.977H1751.77Z" fill="white"/>
<path d="M1675.84 883.977H1669.59V824.152H1675.84V883.977Z" fill="white"/>
<path d="M1558.99 862.313H1587.9L1589.65 867.396H1556.49L1558.99 862.313ZM1593.32 883.977L1573.15 830.818L1552.82 883.977H1546.66L1569.9 824.152H1576.74L1599.9 883.977H1593.32Z" fill="white"/>
<path d="M1483.91 883.977H1477.66V824.152H1498.99C1505.38 824.152 1510.41 825.735 1514.07 828.902C1517.74 832.012 1519.57 836.456 1519.57 842.233C1519.57 846.732 1518.18 850.565 1515.41 853.731C1512.69 856.842 1508.96 858.786 1504.24 859.564L1521.16 883.977H1513.66L1497.58 860.313H1483.91V883.977ZM1483.91 829.401V855.064H1498.49C1503.05 855.064 1506.66 853.981 1509.32 851.815C1511.99 849.593 1513.32 846.399 1513.32 842.233C1513.32 838.067 1511.99 834.901 1509.32 832.734C1506.66 830.512 1503.05 829.401 1498.49 829.401H1483.91Z" fill="white"/>
<path d="M1427.53 883.977H1421.36V829.735H1401.28V824.152H1447.61V829.735H1427.53V883.977Z" fill="white"/>
<path d="M1371.18 883.977H1364.93V824.152H1371.18V883.977Z" fill="white"/>
<path d="M1296.72 883.977L1275.05 833.234V883.977H1269.22V824.152H1277.3L1299.47 876.311L1321.8 824.152H1329.79V883.977H1324.05V833.234L1302.22 883.977H1296.72Z" fill="white"/>
<path d="M2026.35 761.98H2012.94V783.977H2006.69V724.152H2026.35C2030.46 724.152 2034.08 724.902 2037.19 726.402C2040.3 727.846 2042.71 729.957 2044.43 732.734C2046.21 735.512 2047.1 738.928 2047.1 742.983C2047.1 747.038 2046.21 750.482 2044.43 753.315C2042.71 756.147 2040.3 758.314 2037.19 759.814C2034.08 761.258 2030.46 761.98 2026.35 761.98ZM2026.27 729.485H2012.94V756.647H2026.27C2030.71 756.647 2034.24 755.453 2036.85 753.065C2039.52 750.676 2040.85 747.315 2040.85 742.983C2040.85 738.65 2039.52 735.317 2036.85 732.984C2034.24 730.651 2030.71 729.485 2026.27 729.485Z" fill="white"/>
<path d="M1971.73 724.152V763.48C1971.73 767.923 1970.81 771.784 1968.98 775.061C1967.2 778.339 1964.67 780.866 1961.4 782.643C1958.12 784.365 1954.29 785.226 1949.9 785.226C1945.45 785.226 1941.59 784.365 1938.32 782.643C1935.04 780.866 1932.48 778.339 1930.65 775.061C1928.87 771.784 1927.98 767.923 1927.98 763.48V724.152H1934.23V763.813C1934.23 767.035 1934.9 769.84 1936.23 772.228C1937.57 774.617 1939.4 776.45 1941.73 777.728C1944.07 779.005 1946.79 779.644 1949.9 779.644C1953.01 779.644 1955.73 779.005 1958.06 777.728C1960.4 776.45 1962.2 774.617 1963.48 772.228C1964.81 769.84 1965.48 767.035 1965.48 763.813V724.152H1971.73Z" fill="white"/>
<path d="M1860.09 783.977H1853.84V724.152H1875.17C1881.56 724.152 1886.59 725.735 1890.25 728.902C1893.92 732.012 1895.75 736.456 1895.75 742.233C1895.75 746.732 1894.36 750.565 1891.59 753.731C1888.87 756.842 1885.14 758.786 1880.42 759.564L1897.34 783.977H1889.84L1873.76 760.313H1860.09V783.977ZM1860.09 729.401V755.064H1874.67C1879.23 755.064 1882.84 753.981 1885.5 751.815C1888.17 749.593 1889.5 746.399 1889.5 742.233C1889.5 738.067 1888.17 734.901 1885.5 732.734C1882.84 730.512 1879.23 729.401 1874.67 729.401H1860.09Z" fill="white"/>
<path d="M1792.61 785.226C1788.34 785.226 1784.36 784.449 1780.7 782.893C1777.03 781.338 1773.81 779.172 1771.03 776.394C1768.31 773.617 1766.17 770.34 1764.62 766.563C1763.12 762.73 1762.37 758.564 1762.37 754.064C1762.37 749.621 1763.09 745.538 1764.53 741.816C1766.03 738.039 1768.12 734.734 1770.78 731.901C1773.45 729.013 1776.59 726.791 1780.2 725.235C1783.86 723.68 1787.86 722.902 1792.2 722.902C1797.42 722.902 1802 723.875 1805.94 725.819C1809.89 727.763 1813.16 730.374 1815.78 733.651C1818.39 736.928 1820.25 740.594 1821.36 744.649H1814.28C1813.44 741.65 1812.05 738.928 1810.11 736.484C1808.17 734.04 1805.67 732.096 1802.61 730.651C1799.61 729.207 1796.08 728.485 1792.03 728.485C1787.47 728.485 1783.45 729.596 1779.95 731.818C1776.45 733.984 1773.7 736.984 1771.7 740.816C1769.75 744.649 1768.78 749.093 1768.78 754.148C1768.78 759.036 1769.78 763.424 1771.78 767.312C1773.78 771.201 1776.59 774.256 1780.2 776.478C1783.81 778.7 1788 779.811 1792.78 779.811C1797.11 779.811 1800.89 778.977 1804.11 777.311C1807.33 775.589 1809.92 773.173 1811.86 770.062C1813.86 766.951 1815.11 763.313 1815.61 759.147H1792.11V754.064H1822.11C1822.11 758.786 1821.39 763.063 1819.94 766.896C1818.55 770.729 1816.55 774.034 1813.94 776.811C1811.33 779.533 1808.22 781.616 1804.61 783.06C1801.06 784.504 1797.06 785.226 1792.61 785.226Z" fill="white"/>
<path d="M1659.95 783.977H1653.7V724.152H1659.95V752.981L1688.28 724.152H1695.53L1666.37 753.981L1696.36 783.977H1688.28L1659.95 755.897V783.977Z" fill="white"/>
<path d="M1618.51 783.977H1612.26V724.152H1618.51V783.977Z" fill="white"/>
<path d="M1570.4 783.977L1535.49 732.984V783.977H1529.66V724.152H1536.57L1571.15 774.478V724.152H1577.07V783.977H1570.4Z" fill="white"/>
<path d="M1458.14 762.313H1487.05L1488.8 767.396H1455.64L1458.14 762.313ZM1492.46 783.977L1472.3 730.818L1451.97 783.977H1445.8L1469.05 724.152H1475.88L1499.05 783.977H1492.46Z" fill="white"/>
<path d="M1391.76 785.226C1387.48 785.226 1383.51 784.449 1379.84 782.893C1376.18 781.338 1372.96 779.172 1370.18 776.394C1367.46 773.617 1365.32 770.34 1363.76 766.563C1362.26 762.73 1361.51 758.564 1361.51 754.064C1361.51 749.621 1362.23 745.538 1363.68 741.816C1365.18 738.039 1367.26 734.734 1369.93 731.901C1372.59 729.013 1375.73 726.791 1379.34 725.235C1383.01 723.68 1387.01 722.902 1391.34 722.902C1396.56 722.902 1401.15 723.875 1405.09 725.819C1409.03 727.763 1412.31 730.374 1414.92 733.651C1417.53 736.928 1419.39 740.594 1420.5 744.649H1413.42C1412.59 741.65 1411.2 738.928 1409.26 736.484C1407.31 734.04 1404.81 732.096 1401.76 730.651C1398.76 729.207 1395.23 728.485 1391.17 728.485C1386.62 728.485 1382.59 729.596 1379.09 731.818C1375.59 733.984 1372.84 736.984 1370.84 740.816C1368.9 744.649 1367.93 749.093 1367.93 754.148C1367.93 759.036 1368.93 763.424 1370.93 767.312C1372.93 771.201 1375.73 774.256 1379.34 776.478C1382.95 778.7 1387.15 779.811 1391.92 779.811C1396.26 779.811 1400.03 778.977 1403.26 777.311C1406.48 775.589 1409.06 773.173 1411.01 770.062C1413 766.951 1414.25 763.313 1414.75 759.147H1391.26V754.064H1421.25C1421.25 758.786 1420.53 763.063 1419.09 766.896C1417.7 770.729 1415.7 774.034 1413.09 776.811C1410.48 779.533 1407.37 781.616 1403.76 783.06C1400.2 784.504 1396.2 785.226 1391.76 785.226Z" fill="white"/>
<path d="M1296.72 783.977L1275.05 733.234V783.977H1269.22V724.152H1277.3L1299.47 776.311L1321.8 724.152H1329.79V783.977H1324.05V733.234L1302.22 783.977H1296.72Z" fill="white"/>
<path d="M432.368 240C456.554 240 476.16 259.606 476.16 283.792V294.134L483.473 286.821C500.574 269.72 528.302 269.72 545.403 286.821C554.471 295.889 558.73 307.944 558.182 319.818C570.056 319.27 582.111 323.529 591.179 332.597C608.281 349.699 608.281 377.426 591.179 394.528L583.867 401.84H594.208C618.394 401.84 638 421.446 638 445.632C638 458.455 632.487 469.991 623.703 478C632.487 486.009 638 497.544 638 510.368C638 534.554 618.394 554.16 594.208 554.16H583.865L591.179 561.474C608.281 578.575 608.281 606.303 591.179 623.405C582.111 632.473 570.057 636.731 558.183 636.184C558.73 648.058 554.472 660.112 545.404 669.18C528.302 686.281 500.574 686.282 483.473 669.18L476.16 661.867V672.208C476.16 696.394 456.554 716 432.368 716C419.545 716 408.009 710.488 400 701.705C391.991 710.488 380.455 716 367.632 716C343.446 716 323.84 696.394 323.84 672.208V661.867L316.527 669.18C299.425 686.281 271.698 686.281 254.596 669.18C245.528 660.112 241.269 648.057 241.816 636.184C229.943 636.731 217.889 632.471 208.821 623.404C191.719 606.302 191.719 578.574 208.821 561.473L216.134 554.16H205.792C181.606 554.16 162 534.554 162 510.368C162 497.545 167.512 486.009 176.295 478C167.512 469.991 162 458.455 162 445.632C162 421.446 181.606 401.84 205.792 401.84H216.133L208.821 394.528C191.719 377.426 191.719 349.699 208.821 332.598C217.889 323.53 229.943 319.27 241.816 319.817C241.269 307.944 245.529 295.89 254.597 286.822C271.699 269.721 299.426 269.72 316.527 286.822L323.84 294.135V283.792C323.84 259.606 343.446 240 367.632 240C380.455 240 391.991 245.513 400 254.297C408.009 245.513 419.544 240 432.368 240ZM432.368 262.848C420.801 262.848 411.424 272.225 411.424 283.792L411.423 312.153C406.167 315.766 401.851 320.87 399.19 327.165C396.774 321.615 393.069 317.014 388.576 313.563V283.792C388.576 272.225 379.199 262.848 367.632 262.848C356.065 262.848 346.688 272.225 346.688 283.792V313.348C342.116 316.787 338.553 321.255 336.197 326.276C331.651 324.689 326.768 324.043 321.857 324.464L300.371 302.978C292.192 294.799 278.931 294.799 270.752 302.978C262.577 311.153 262.573 324.406 270.74 332.586L290.806 352.65C289.644 358.921 290.2 365.582 292.771 371.915C287.137 369.699 281.264 369.066 275.646 369.804L254.584 348.741L253.802 347.999C245.58 340.583 232.896 340.834 224.977 348.753C216.798 356.932 216.798 370.193 224.977 378.372L245.876 399.271C245.075 404.937 245.715 410.615 247.6 415.831C243.264 417.923 239.354 420.919 236.18 424.688L205.792 424.688C194.225 424.688 184.848 434.065 184.848 445.632C184.848 457.193 194.217 466.567 205.775 466.576H234.151C237.764 471.833 242.868 476.15 249.164 478.811C243.614 481.226 239.014 484.931 235.563 489.424H205.775L204.697 489.452C193.639 490.022 184.848 499.168 184.848 510.368C184.848 521.935 194.225 531.312 205.792 531.312H235.346C238.786 535.885 243.254 539.449 248.275 541.805C246.688 546.349 246.042 551.232 246.463 556.142L224.977 577.629C216.798 585.808 216.798 599.069 224.977 607.248C233.152 615.423 246.404 615.427 254.584 607.26L274.647 587.195C280.919 588.358 287.58 587.802 293.914 585.231C291.698 590.864 291.065 596.736 291.803 602.353L270.74 623.416L269.997 624.198C262.581 632.42 262.833 645.104 270.752 653.023C278.931 661.203 292.192 661.202 300.371 653.023L321.269 632.125C326.935 632.927 332.614 632.287 337.83 630.402C339.922 634.739 342.919 638.649 346.688 641.823V672.208C346.688 683.775 356.065 693.152 367.632 693.152C379.193 693.152 388.567 683.783 388.576 672.225V643.849C393.832 640.236 398.148 635.133 400.809 628.837C403.224 634.387 406.93 638.986 411.423 642.437L411.424 672.225L411.452 673.303C412.022 684.361 421.168 693.152 432.368 693.152C443.935 693.152 453.312 683.775 453.312 672.208L453.311 642.652C457.883 639.213 461.445 634.747 463.801 629.727C468.347 631.314 473.231 631.959 478.142 631.537L499.629 653.024C507.808 661.203 521.069 661.203 529.248 653.024C537.427 644.845 537.427 631.584 529.248 623.405L509.193 603.351C510.355 597.08 509.799 590.42 507.229 584.087C512.861 586.303 518.735 586.934 524.352 586.196L545.404 607.249C553.583 615.428 566.844 615.428 575.023 607.249C583.202 599.07 583.202 585.809 575.023 577.63L554.123 556.729C554.924 551.065 554.284 545.389 552.4 540.174C556.738 538.082 560.649 535.083 563.823 531.312H594.208C605.775 531.312 615.152 521.935 615.152 510.368C615.152 498.801 605.775 489.424 594.208 489.424H565.848C562.235 484.168 557.132 479.853 550.837 477.192C556.387 474.776 560.987 471.07 564.438 466.576H594.208C605.775 466.576 615.152 457.199 615.152 445.632C615.152 434.065 605.775 424.688 594.208 424.688H564.648C561.21 420.117 556.744 416.556 551.726 414.201C553.313 409.655 553.958 404.769 553.536 399.858L575.023 378.372C583.202 370.193 583.202 356.932 575.023 348.753C566.844 340.574 553.582 340.574 545.403 348.753L525.349 368.807C519.078 367.645 512.418 368.202 506.085 370.772C508.301 365.139 508.933 359.266 508.195 353.648L529.248 332.597C537.427 324.418 537.427 311.157 529.248 302.978C521.069 294.798 507.808 294.799 499.629 302.978L478.727 323.878C473.063 323.077 467.386 323.718 462.172 325.602C460.08 321.264 457.082 317.354 453.312 314.18L453.312 283.792C453.312 272.225 443.935 262.848 432.368 262.848Z" fill="#B49C81"/>
<path fill-rule="evenodd" clip-rule="evenodd" d="M399.19 327.164C406.545 309.76 426.549 301.46 444.094 308.617C452.34 311.981 458.585 318.165 462.172 325.6C469.935 322.796 478.723 322.744 486.968 326.107C504.513 333.265 513.002 353.189 506.085 370.771C523.592 363.666 543.607 371.941 550.952 389.408C554.404 397.617 554.447 406.406 551.725 414.2C559.198 417.707 565.449 423.884 568.901 432.093C576.246 449.559 568.16 469.65 550.837 477.191C568.24 484.546 576.541 504.55 569.383 522.095C566.02 530.34 559.836 536.585 552.4 540.172C555.205 547.935 555.257 556.723 551.893 564.969C544.736 582.513 524.811 591.003 507.229 584.086C514.334 601.593 506.059 621.607 488.592 628.952C480.383 632.404 471.594 632.447 463.8 629.725C460.294 637.198 454.117 643.449 445.909 646.901C428.442 654.246 408.349 646.16 400.808 628.836C393.454 646.24 373.449 654.543 355.904 647.386C347.659 644.022 341.416 637.836 337.83 630.401C330.066 633.207 321.277 633.259 313.031 629.895C295.486 622.738 286.997 602.813 293.914 585.23C276.407 592.336 256.392 584.061 249.047 566.594C245.595 558.385 245.554 549.597 248.275 541.804C240.801 538.297 234.55 532.119 231.097 523.91C223.752 506.442 231.84 486.349 249.165 478.808C231.76 471.454 223.458 451.45 230.615 433.905C233.979 425.66 240.164 419.416 247.599 415.83C244.794 408.066 244.742 399.277 248.105 391.031C255.262 373.486 275.188 364.997 292.77 371.914C285.665 354.407 293.94 334.392 311.407 327.047C319.616 323.595 328.403 323.554 336.197 326.275C339.703 318.801 345.881 312.55 354.09 309.097C371.558 301.752 391.649 309.84 399.19 327.164ZM435.465 329.772C429.467 327.326 422.622 330.203 420.174 336.2L412.082 356.033C408.593 355.735 405.063 355.582 401.497 355.582C396.499 355.582 391.571 355.883 386.731 356.463L378.305 336.425C375.794 330.454 368.918 327.648 362.947 330.159C356.979 332.669 354.175 339.541 356.68 345.51L363.442 361.592C356.124 363.975 349.111 367.027 342.476 370.675L335.619 354.366L335.37 353.817C332.676 348.231 326.046 345.677 320.263 348.108C314.292 350.619 311.487 357.496 313.998 363.467L322.677 384.108L322.79 384.153C316.408 389.508 310.588 395.502 305.429 402.035L305.285 401.689L284.55 393.231C278.553 390.785 271.707 393.664 269.26 399.661C266.815 405.656 269.691 412.498 275.684 414.947L292.68 421.881C289.229 428.62 286.394 435.723 284.25 443.117L267.053 436.102L266.49 435.89C260.635 433.845 254.14 436.727 251.77 442.535C249.324 448.532 252.202 455.378 258.2 457.825L278.935 466.284L279.983 465.843C279.664 469.415 279.501 473.033 279.501 476.688C279.501 481.724 279.812 486.688 280.414 491.562L279.068 491.013L258.424 499.695C252.454 502.206 249.648 509.083 252.159 515.054C254.669 521.022 261.54 523.826 267.509 521.32L285.342 513.819C287.714 521.136 290.769 528.148 294.43 534.784L276.366 542.382L275.817 542.631C270.231 545.324 267.677 551.955 270.108 557.737C272.619 563.708 279.495 566.513 285.466 564.003L306.108 555.322L306.959 553.235C312.586 560.075 318.95 566.294 325.933 571.77L323.689 572.715L315.231 593.45C312.785 599.448 315.663 606.293 321.661 608.74C327.656 611.185 334.498 608.309 336.947 602.316L344.503 583.792C351.202 587.312 358.271 590.23 365.636 592.475L358.102 610.947L357.89 611.511C355.844 617.365 358.727 623.861 364.535 626.23C370.532 628.677 377.378 625.798 379.825 619.801L388.283 599.064L387.412 596.994C392.033 597.521 396.733 597.794 401.497 597.794C405.623 597.794 409.701 597.588 413.722 597.191L413.013 598.931L421.694 619.575C424.205 625.545 431.081 628.349 437.051 625.839C443.022 623.328 445.828 616.453 443.318 610.482L435.925 592.902C443.322 590.746 450.427 587.914 457.168 584.476L464.38 601.626C466.891 607.596 473.765 610.4 479.735 607.89C485.706 605.38 488.512 598.504 486.002 592.533L477.321 571.89L477.048 571.779C483.624 566.624 489.652 560.81 495.032 554.439L515.449 562.768C521.446 565.214 528.291 562.336 530.738 556.339C533.184 550.341 530.307 543.496 524.31 541.049L508.635 534.654C512.289 528.013 515.333 520.996 517.696 513.675L532.94 519.893C538.937 522.339 545.781 519.461 548.228 513.465C550.675 507.467 547.797 500.622 541.799 498.175L522.719 490.39C523.23 485.893 523.494 481.321 523.494 476.688C523.494 472.465 523.275 468.292 522.85 464.18L541.575 456.306C547.545 453.795 550.349 446.92 547.839 440.949C545.328 434.979 538.453 432.172 532.482 434.682L518.034 440.758C515.739 433.414 512.757 426.371 509.167 419.7L523.626 413.621C529.596 411.11 532.4 404.236 529.89 398.265C527.38 392.295 520.505 389.489 514.534 391.999L495.813 399.87C490.228 393.12 483.921 386.98 477.01 381.566L484.768 362.552C487.214 356.554 484.336 349.709 478.339 347.263C472.341 344.816 465.495 347.693 463.048 353.69L456.899 368.763C450.151 365.342 443.04 362.528 435.638 360.39L441.893 345.06C444.339 339.063 441.461 332.219 435.465 329.772Z" fill="#B49C81"/>
</svg>
