<svg width="2463" height="1094" viewBox="0 0 2463 1094" fill="none" xmlns="http://www.w3.org/2000/svg">
<path d="M2119.44 653.837H2045.26V303.428H2119.44V653.837Z" fill="white"/>
<path d="M1751.59 653.837L1659.84 421.045V653.837H1592.49V303.428H1681.31L1782.83 563.063L1884.82 303.428H1973.65V653.837H1906.3V419.093L1813.57 653.837H1751.59Z" fill="white"/>
<path d="M1364.14 661.158C1338.76 661.158 1315.01 656.765 1292.89 647.981C1271.09 638.871 1251.89 626.182 1235.3 609.914C1219.03 593.646 1206.34 574.287 1197.23 551.838C1188.12 529.063 1183.57 504.173 1183.57 477.168C1183.57 451.14 1187.96 427.226 1196.75 405.427C1205.53 383.628 1217.89 364.432 1233.84 347.839C1249.78 331.246 1268.49 318.557 1289.96 309.772C1311.76 300.662 1335.51 296.107 1361.21 296.107C1390.82 296.107 1417.34 301.638 1440.76 312.701C1464.51 323.437 1484.36 338.404 1500.3 357.6C1516.57 376.796 1528.61 399.245 1536.42 424.949H1449.06C1445.48 412.91 1439.62 402.336 1431.49 393.226C1423.36 383.791 1413.27 376.308 1401.23 370.777C1389.19 365.246 1375.2 362.48 1359.26 362.48C1340.39 362.48 1323.31 367.035 1308.02 376.145C1293.05 384.93 1281.18 398.107 1272.39 415.676C1263.93 432.92 1259.7 454.068 1259.7 479.121C1259.7 501.57 1263.77 521.742 1271.9 539.637C1280.04 557.532 1292.07 571.847 1308.02 582.584C1324.28 592.995 1344.13 598.201 1367.56 598.201C1384.8 598.201 1399.77 595.11 1412.46 588.928C1425.47 582.421 1436.04 573.637 1444.18 562.575C1452.64 551.187 1458.49 538.336 1461.75 524.02H1360.24V464.968H1540.81C1542.11 493.599 1538.86 519.953 1531.05 544.029C1523.24 567.78 1511.53 588.44 1495.91 606.01C1480.62 623.579 1461.75 637.244 1439.3 647.005C1417.17 656.44 1392.12 661.158 1364.14 661.158Z" fill="white"/>
<path d="M910.398 653.837L818.648 421.045V653.837H751.299V303.428H840.121L941.633 563.063L1043.63 303.428H1132.45V653.837H1065.11V419.093L972.379 653.837H910.398Z" fill="white"/>
<path d="M2238.43 862.313H2267.34L2269.09 867.395H2235.93L2238.43 862.313ZM2272.76 883.976L2252.59 830.818L2232.26 883.976H2226.1L2249.34 824.152H2256.18L2279.34 883.976H2272.76Z" fill="white"/>
<path d="M2195.41 883.976H2189.16V824.152H2195.41V883.976Z" fill="white"/>
<path d="M2155.87 867.395C2155.87 870.561 2155.03 873.477 2153.37 876.144C2151.7 878.754 2149.26 880.865 2146.04 882.476C2142.81 884.031 2138.87 884.809 2134.2 884.809C2129.54 884.809 2125.54 884.004 2122.21 882.393C2118.93 880.782 2116.37 878.56 2114.54 875.727C2112.76 872.839 2111.76 869.506 2111.54 865.729H2117.87C2118.21 869.95 2119.71 873.339 2122.37 875.894C2125.04 878.449 2128.95 879.727 2134.12 879.727C2136.95 879.727 2139.51 879.282 2141.79 878.393C2144.12 877.449 2145.95 876.116 2147.29 874.394C2148.62 872.616 2149.29 870.561 2149.29 868.228C2149.29 865.118 2148.34 862.785 2146.45 861.229C2144.56 859.618 2141.51 858.369 2137.29 857.48L2129.7 855.98C2127.7 855.591 2125.73 855.036 2123.79 854.314C2121.9 853.592 2120.18 852.647 2118.62 851.481C2117.07 850.259 2115.82 848.759 2114.87 846.981C2113.93 845.148 2113.46 842.927 2113.46 840.316C2113.46 837.094 2114.32 834.206 2116.04 831.65C2117.76 829.095 2120.15 827.068 2123.21 825.568C2126.26 824.068 2129.79 823.318 2133.79 823.318C2137.73 823.318 2141.26 824.096 2144.37 825.651C2147.48 827.207 2150.01 829.373 2151.95 832.15C2153.9 834.928 2154.95 838.233 2155.12 842.066H2148.7C2148.59 839.399 2147.87 837.039 2146.54 834.983C2145.26 832.928 2143.54 831.317 2141.37 830.151C2139.26 828.984 2136.76 828.401 2133.87 828.401C2130.82 828.401 2128.23 828.956 2126.12 830.067C2124.07 831.178 2122.48 832.595 2121.37 834.317C2120.32 836.039 2119.79 837.927 2119.79 839.983C2119.79 842.315 2120.37 844.176 2121.54 845.565C2122.76 846.954 2124.32 848.037 2126.21 848.815C2128.15 849.537 2130.23 850.12 2132.45 850.564L2140.04 852.147C2145.09 853.203 2148.98 854.897 2151.7 857.23C2154.48 859.507 2155.87 862.896 2155.87 867.395Z" fill="white"/>
<path d="M2080.69 878.56V883.976H2044.77V824.152H2080.1V829.568H2051.02V850.398H2077.6V855.814H2051.02V878.56H2080.69Z" fill="white"/>
<path d="M2002.91 883.976L1968 832.984V883.976H1962.17V824.152H1969.08L2003.66 874.478V824.152H2009.58V883.976H2002.91Z" fill="white"/>
<path d="M1900.28 885.226C1895.95 885.226 1891.95 884.42 1888.29 882.809C1884.62 881.199 1881.43 878.977 1878.7 876.144C1875.98 873.311 1873.87 870.006 1872.37 866.229C1870.87 862.396 1870.12 858.313 1870.12 853.981C1870.12 849.648 1870.87 845.593 1872.37 841.816C1873.87 838.038 1875.98 834.733 1878.7 831.901C1881.43 829.068 1884.62 826.873 1888.29 825.318C1891.95 823.707 1895.95 822.902 1900.28 822.902C1904.62 822.902 1908.62 823.707 1912.28 825.318C1915.95 826.873 1919.14 829.068 1921.86 831.901C1924.64 834.733 1926.78 838.038 1928.28 841.816C1929.78 845.593 1930.53 849.648 1930.53 853.981C1930.53 858.313 1929.78 862.396 1928.28 866.229C1926.78 870.006 1924.64 873.311 1921.86 876.144C1919.14 878.977 1915.95 881.199 1912.28 882.809C1908.62 884.42 1904.62 885.226 1900.28 885.226ZM1900.28 879.643C1903.84 879.643 1907.06 879.005 1909.95 877.727C1912.84 876.394 1915.34 874.561 1917.45 872.228C1919.56 869.839 1921.17 867.09 1922.28 863.979C1923.45 860.868 1924.03 857.536 1924.03 853.981C1924.03 850.425 1923.45 847.093 1922.28 843.982C1921.17 840.871 1919.56 838.177 1917.45 835.9C1915.34 833.567 1912.84 831.762 1909.95 830.484C1907.06 829.151 1903.84 828.484 1900.28 828.484C1896.78 828.484 1893.56 829.151 1890.62 830.484C1887.73 831.762 1885.23 833.567 1883.12 835.9C1881.01 838.177 1879.37 840.871 1878.2 843.982C1877.09 847.093 1876.54 850.425 1876.54 853.981C1876.54 857.536 1877.09 860.868 1878.2 863.979C1879.37 867.09 1881.01 869.839 1883.12 872.228C1885.23 874.561 1887.73 876.394 1890.62 877.727C1893.56 879.005 1896.78 879.643 1900.28 879.643Z" fill="white"/>
<path d="M1812.08 883.976H1795.08V824.152H1812.08C1818.46 824.152 1823.88 825.429 1828.32 827.985C1832.77 830.484 1836.13 833.956 1838.41 838.4C1840.68 842.843 1841.82 847.982 1841.82 853.814C1841.82 859.591 1840.66 864.757 1838.32 869.312C1835.99 873.811 1832.57 877.394 1828.07 880.06C1823.63 882.671 1818.3 883.976 1812.08 883.976ZM1801.33 829.568V878.56H1811.91C1817.02 878.56 1821.33 877.533 1824.82 875.477C1828.32 873.422 1830.96 870.534 1832.74 866.812C1834.57 863.09 1835.49 858.758 1835.49 853.814C1835.49 848.87 1834.57 844.593 1832.74 840.983C1830.96 837.317 1828.32 834.511 1824.82 832.567C1821.33 830.568 1817.02 829.568 1811.91 829.568H1801.33Z" fill="white"/>
<path d="M1753.22 883.976L1718.3 832.984V883.976H1712.47V824.152H1719.39L1753.97 874.478V824.152H1759.88V883.976H1753.22Z" fill="white"/>
<path d="M1677.28 883.976H1671.04V824.152H1677.28V883.976Z" fill="white"/>
<path d="M1560.44 862.313H1589.35L1591.1 867.395H1557.94L1560.44 862.313ZM1594.77 883.976L1574.6 830.818L1554.27 883.976H1548.11L1571.35 824.152H1578.19L1601.35 883.976H1594.77Z" fill="white"/>
<path d="M1485.36 883.976H1479.11V824.152H1500.44C1506.83 824.152 1511.86 825.735 1515.52 828.901C1519.19 832.012 1521.02 836.456 1521.02 842.232C1521.02 846.732 1519.63 850.565 1516.86 853.731C1514.13 856.841 1510.41 858.786 1505.69 859.563L1522.6 883.976H1515.11L1499.02 860.313H1485.36V883.976ZM1485.36 829.401V855.064H1499.94C1504.5 855.064 1508.11 853.981 1510.77 851.814C1513.44 849.592 1514.77 846.399 1514.77 842.232C1514.77 838.066 1513.44 834.9 1510.77 832.734C1508.11 830.512 1504.5 829.401 1499.94 829.401H1485.36Z" fill="white"/>
<path d="M1428.98 883.976H1422.81V829.734H1402.73V824.152H1449.06V829.734H1428.98V883.976Z" fill="white"/>
<path d="M1372.63 883.976H1366.38V824.152H1372.63V883.976Z" fill="white"/>
<path d="M1298.17 883.976L1276.5 833.234V883.976H1270.67V824.152H1278.75L1300.92 876.311L1323.25 824.152H1331.24V883.976H1325.49V833.234L1303.66 883.976H1298.17Z" fill="white"/>
<path d="M2027.8 761.979H2014.39V783.976H2008.14V724.152H2027.8C2031.91 724.152 2035.52 724.902 2038.64 726.402C2041.75 727.846 2044.16 729.957 2045.88 732.734C2047.66 735.511 2048.55 738.927 2048.55 742.982C2048.55 747.037 2047.66 750.481 2045.88 753.314C2044.16 756.147 2041.75 758.313 2038.64 759.813C2035.52 761.257 2031.91 761.979 2027.8 761.979ZM2027.72 729.484H2014.39V756.647H2027.72C2032.16 756.647 2035.69 755.453 2038.3 753.064C2040.97 750.676 2042.3 747.315 2042.3 742.982C2042.3 738.65 2040.97 735.317 2038.3 732.984C2035.69 730.651 2032.16 729.484 2027.72 729.484Z" fill="white"/>
<path d="M1973.18 724.152V763.479C1973.18 767.923 1972.26 771.784 1970.43 775.061C1968.65 778.338 1966.12 780.866 1962.85 782.643C1959.57 784.365 1955.74 785.226 1951.35 785.226C1946.9 785.226 1943.04 784.365 1939.77 782.643C1936.49 780.866 1933.93 778.338 1932.1 775.061C1930.32 771.784 1929.43 767.923 1929.43 763.479V724.152H1935.68V763.813C1935.68 767.034 1936.35 769.839 1937.68 772.228C1939.02 774.616 1940.85 776.45 1943.18 777.727C1945.51 779.005 1948.24 779.643 1951.35 779.643C1954.46 779.643 1957.18 779.005 1959.51 777.727C1961.85 776.45 1963.65 774.616 1964.93 772.228C1966.26 769.839 1966.93 767.034 1966.93 763.813V724.152H1973.18Z" fill="white"/>
<path d="M1861.54 783.976H1855.29V724.152H1876.62C1883.01 724.152 1888.04 725.735 1891.7 728.901C1895.37 732.012 1897.2 736.456 1897.2 742.232C1897.2 746.732 1895.81 750.565 1893.04 753.731C1890.31 756.841 1886.59 758.786 1881.87 759.563L1898.78 783.976H1891.29L1875.21 760.313H1861.54V783.976ZM1861.54 729.401V755.064H1876.12C1880.68 755.064 1884.29 753.981 1886.95 751.814C1889.62 749.592 1890.95 746.398 1890.95 742.232C1890.95 738.066 1889.62 734.9 1886.95 732.734C1884.29 730.512 1880.68 729.401 1876.12 729.401H1861.54Z" fill="white"/>
<path d="M1794.06 785.226C1789.78 785.226 1785.81 784.448 1782.15 782.893C1778.48 781.337 1775.26 779.171 1772.48 776.394C1769.76 773.616 1767.62 770.339 1766.07 766.562C1764.57 762.729 1763.82 758.563 1763.82 754.064C1763.82 749.62 1764.54 745.537 1765.98 741.816C1767.48 738.038 1769.57 734.733 1772.23 731.901C1774.9 729.012 1778.04 726.79 1781.65 725.235C1785.31 723.68 1789.31 722.902 1793.64 722.902C1798.87 722.902 1803.45 723.874 1807.39 725.818C1811.34 727.762 1814.61 730.373 1817.22 733.65C1819.84 736.928 1821.7 740.594 1822.81 744.649H1815.72C1814.89 741.649 1813.5 738.927 1811.56 736.483C1809.61 734.039 1807.11 732.095 1804.06 730.651C1801.06 729.206 1797.53 728.484 1793.48 728.484C1788.92 728.484 1784.9 729.595 1781.4 731.817C1777.9 733.984 1775.15 736.983 1773.15 740.816C1771.2 744.649 1770.23 749.092 1770.23 754.147C1770.23 759.035 1771.23 763.424 1773.23 767.312C1775.23 771.2 1778.04 774.255 1781.65 776.477C1785.26 778.699 1789.45 779.81 1794.23 779.81C1798.56 779.81 1802.34 778.977 1805.56 777.31C1808.78 775.588 1811.36 773.172 1813.31 770.061C1815.31 766.951 1816.56 763.312 1817.06 759.146H1793.56V754.064H1823.56C1823.56 758.785 1822.83 763.062 1821.39 766.895C1820 770.728 1818 774.033 1815.39 776.81C1812.78 779.532 1809.67 781.615 1806.06 783.059C1802.5 784.504 1798.51 785.226 1794.06 785.226Z" fill="white"/>
<path d="M1661.4 783.976H1655.15V724.152H1661.4V752.981L1689.73 724.152H1696.98L1667.81 753.981L1697.81 783.976H1689.73L1661.4 755.897V783.976Z" fill="white"/>
<path d="M1619.96 783.976H1613.71V724.152H1619.96V783.976Z" fill="white"/>
<path d="M1571.85 783.976L1536.94 732.984V783.976H1531.11V724.152H1538.02L1572.6 774.478V724.152H1578.51V783.976H1571.85Z" fill="white"/>
<path d="M1459.58 762.313H1488.5L1490.25 767.395H1457.08L1459.58 762.313ZM1493.91 783.976L1473.75 730.818L1453.42 783.976H1447.25L1470.5 724.152H1477.33L1500.49 783.976H1493.91Z" fill="white"/>
<path d="M1393.21 785.226C1388.93 785.226 1384.96 784.448 1381.29 782.893C1377.63 781.337 1374.4 779.171 1371.63 776.394C1368.91 773.616 1366.77 770.339 1365.21 766.562C1363.71 762.729 1362.96 758.563 1362.96 754.064C1362.96 749.62 1363.68 745.537 1365.13 741.816C1366.63 738.038 1368.71 734.733 1371.38 731.901C1374.04 729.012 1377.18 726.79 1380.79 725.235C1384.46 723.68 1388.46 722.902 1392.79 722.902C1398.01 722.902 1402.59 723.874 1406.54 725.818C1410.48 727.762 1413.76 730.373 1416.37 733.65C1418.98 736.928 1420.84 740.594 1421.95 744.649H1414.87C1414.04 741.649 1412.65 738.927 1410.7 736.483C1408.76 734.039 1406.26 732.095 1403.21 730.651C1400.21 729.206 1396.68 728.484 1392.62 728.484C1388.07 728.484 1384.04 729.595 1380.54 731.817C1377.04 733.984 1374.29 736.983 1372.29 740.816C1370.35 744.649 1369.38 749.092 1369.38 754.147C1369.38 759.035 1370.38 763.424 1372.38 767.312C1374.38 771.2 1377.18 774.255 1380.79 776.477C1384.4 778.699 1388.6 779.81 1393.37 779.81C1397.71 779.81 1401.48 778.977 1404.71 777.31C1407.93 775.588 1410.51 773.172 1412.45 770.061C1414.45 766.951 1415.7 763.312 1416.2 759.146H1392.71V754.064H1422.7C1422.7 758.785 1421.98 763.062 1420.54 766.895C1419.15 770.728 1417.15 774.033 1414.54 776.81C1411.93 779.532 1408.82 781.615 1405.21 783.059C1401.65 784.504 1397.65 785.226 1393.21 785.226Z" fill="white"/>
<path d="M1298.17 783.976L1276.5 733.234V783.976H1270.67V724.152H1278.75L1300.92 776.311L1323.25 724.152H1331.24V783.976H1325.49V733.234L1303.66 783.976H1298.17Z" fill="white"/>
<path d="M432.368 241.107C456.554 241.108 476.16 260.714 476.16 284.899V295.241L483.473 287.929C500.574 270.827 528.302 270.827 545.403 287.929C554.471 296.996 558.73 309.051 558.182 320.926C570.056 320.378 582.111 324.636 591.179 333.704C608.281 350.806 608.281 378.534 591.179 395.636L583.867 402.947H594.208C618.394 402.947 638 422.554 638 446.739C638 459.563 632.487 471.098 623.703 479.107C632.487 487.116 638 498.652 638 511.476C638 535.661 618.394 555.268 594.208 555.268H583.865L591.179 562.581C608.281 579.683 608.281 607.411 591.179 624.513C582.111 633.58 570.057 637.839 558.183 637.291C558.73 649.165 554.472 661.22 545.404 670.287C528.302 687.389 500.574 687.389 483.473 670.287L476.16 662.975V673.315C476.16 697.501 456.554 717.107 432.368 717.107C419.545 717.107 408.009 711.596 400 702.812C391.991 711.596 380.455 717.107 367.632 717.107C343.446 717.107 323.84 697.501 323.84 673.315V662.975L316.527 670.287C299.425 687.389 271.698 687.389 254.596 670.287C245.528 661.22 241.269 649.165 241.816 637.291C229.943 637.839 217.889 633.579 208.821 624.512C191.719 607.41 191.719 579.682 208.821 562.58L216.134 555.268H205.792C181.606 555.268 162 535.661 162 511.476C162 498.652 167.512 487.116 176.295 479.107C167.512 471.099 162 459.562 162 446.739C162 422.554 181.606 402.947 205.792 402.947H216.133L208.821 395.636C191.719 378.534 191.719 350.807 208.821 333.705C217.889 324.638 229.943 320.377 241.816 320.925C241.269 309.051 245.529 296.997 254.597 287.93C271.699 270.828 299.426 270.828 316.527 287.93L323.84 295.242V284.899C323.84 260.714 343.446 241.108 367.632 241.107C380.455 241.107 391.991 246.62 400 255.404C408.009 246.62 419.544 241.107 432.368 241.107ZM432.368 263.955C420.801 263.955 411.424 273.332 411.424 284.899L411.423 313.261C406.167 316.873 401.851 321.977 399.19 328.272C396.774 322.722 393.069 318.121 388.576 314.671V284.899C388.576 273.332 379.199 263.955 367.632 263.955C356.065 263.955 346.688 273.332 346.688 284.899V314.455C342.116 317.895 338.553 322.363 336.197 327.384C331.651 325.796 326.768 325.15 321.857 325.571L300.371 304.085C292.192 295.906 278.931 295.906 270.752 304.085C262.577 312.26 262.573 325.513 270.74 333.693L290.806 353.758C289.644 360.029 290.2 366.69 292.771 373.022C287.137 370.806 281.264 370.173 275.646 370.911L254.584 349.849L253.802 349.106C245.58 341.69 232.896 341.941 224.977 349.86C216.798 358.039 216.798 371.3 224.977 379.479L245.876 400.379C245.075 406.044 245.715 411.723 247.6 416.938C243.264 419.03 239.354 422.026 236.18 425.795L205.792 425.796C194.225 425.796 184.848 435.172 184.848 446.739C184.848 458.301 194.217 467.674 205.775 467.684H234.151C237.764 472.94 242.868 477.257 249.164 479.918C243.614 482.334 239.014 486.038 235.563 490.531H205.775L204.697 490.56C193.639 491.129 184.848 500.276 184.848 511.476C184.848 523.043 194.225 532.419 205.792 532.419H235.346C238.786 536.993 243.254 540.556 248.275 542.912C246.688 547.457 246.042 552.34 246.463 557.249L224.977 578.736C216.798 586.915 216.798 600.176 224.977 608.355C233.152 616.531 246.404 616.534 254.584 608.367L274.647 588.303C280.919 589.465 287.58 588.909 293.914 586.339C291.698 591.971 291.065 597.844 291.803 603.46L270.74 624.523L269.997 625.306C262.581 633.527 262.833 646.211 270.752 654.131C278.931 662.31 292.192 662.31 300.371 654.131L321.269 633.232C326.935 634.034 332.614 633.395 337.83 631.51C339.922 635.846 342.919 639.756 346.688 642.931V673.315C346.688 684.882 356.065 694.26 367.632 694.26C379.193 694.26 388.567 684.891 388.576 673.332V644.956C393.832 641.343 398.148 636.24 400.809 629.944C403.224 635.494 406.93 640.094 411.423 643.544L411.424 673.332L411.452 674.41C412.022 685.468 421.168 694.26 432.368 694.26C443.935 694.26 453.312 684.882 453.312 673.315L453.311 643.76C457.883 640.321 461.445 635.854 463.801 630.834C468.347 632.422 473.231 633.066 478.142 632.645L499.629 654.132C507.808 662.311 521.069 662.311 529.248 654.132C537.427 645.953 537.427 632.692 529.248 624.513L509.193 604.458C510.355 598.188 509.799 591.527 507.229 585.194C512.861 587.411 518.735 588.041 524.352 587.304L545.404 608.356C553.583 616.535 566.844 616.535 575.023 608.356C583.202 600.177 583.202 586.916 575.023 578.737L554.123 557.837C554.924 552.173 554.284 546.496 552.4 541.281C556.738 539.189 560.649 536.19 563.823 532.419H594.208C605.775 532.419 615.152 523.043 615.152 511.476C615.152 499.909 605.775 490.531 594.208 490.531H565.848C562.235 485.276 557.132 480.96 550.837 478.3C556.387 475.884 560.987 472.177 564.438 467.684H594.208C605.775 467.684 615.152 458.306 615.152 446.739C615.152 435.172 605.775 425.795 594.208 425.795H564.648C561.21 421.225 556.744 417.664 551.726 415.309C553.313 410.762 553.958 405.877 553.536 400.966L575.023 379.479C583.202 371.3 583.202 358.039 575.023 349.86C566.844 341.681 553.582 341.681 545.403 349.86L525.349 369.914C519.078 368.752 512.418 369.31 506.085 371.88C508.301 366.247 508.933 360.373 508.195 354.756L529.248 333.704C537.427 325.525 537.427 312.264 529.248 304.085C521.069 295.906 507.808 295.906 499.629 304.085L478.727 324.985C473.063 324.185 467.386 324.825 462.172 326.709C460.08 322.372 457.082 318.461 453.312 315.287L453.312 284.899C453.312 273.332 443.935 263.955 432.368 263.955Z" fill="white"/>
<path fill-rule="evenodd" clip-rule="evenodd" d="M399.19 328.271C406.545 310.868 426.55 302.567 444.094 309.724C452.34 313.088 458.585 319.272 462.172 326.708C469.935 323.903 478.723 323.851 486.969 327.214C504.513 334.372 513.002 354.296 506.085 371.879C523.592 364.773 543.607 373.049 550.952 390.516C554.404 398.725 554.447 407.514 551.725 415.307C559.198 418.814 565.449 424.991 568.901 433.2C576.246 450.667 568.16 470.757 550.837 478.298C568.24 485.654 576.541 505.658 569.384 523.203C566.02 531.448 559.836 537.694 552.4 541.28C555.205 549.043 555.257 557.831 551.893 566.076C544.736 583.621 524.811 592.111 507.228 585.193C514.334 602.7 506.06 622.714 488.593 630.059C480.383 633.511 471.594 633.554 463.801 630.833C460.294 638.305 454.117 644.557 445.909 648.008C428.442 655.353 408.349 647.267 400.808 629.943C393.454 647.348 373.449 655.65 355.904 648.493C347.659 645.129 341.416 638.944 337.83 631.508C330.066 634.314 321.277 634.366 313.031 631.003C295.486 623.845 286.997 603.92 293.914 586.337C276.407 593.443 256.392 585.169 249.047 567.702C245.595 559.493 245.554 550.704 248.275 542.911C240.802 539.404 234.55 533.227 231.097 525.018C223.752 507.551 231.84 487.458 249.164 479.917C231.76 472.562 223.458 452.557 230.615 435.012C233.979 426.767 240.164 420.524 247.599 416.937C244.794 409.173 244.742 400.384 248.105 392.138C255.263 374.594 275.188 366.104 292.77 373.021C285.665 355.514 293.94 335.499 311.407 328.154C319.616 324.702 328.404 324.661 336.197 327.382C339.703 319.909 345.882 313.657 354.091 310.205C371.558 302.86 391.649 310.947 399.19 328.271ZM435.465 330.879C429.467 328.433 422.622 331.311 420.175 337.308L412.083 357.14C408.594 356.843 405.063 356.689 401.497 356.689C396.499 356.689 391.572 356.99 386.731 357.57L378.305 337.532C375.795 331.561 368.918 328.755 362.947 331.266C356.979 333.777 354.174 340.649 356.68 346.618L363.442 362.699C356.124 365.082 349.111 368.134 342.476 371.782L335.619 355.474L335.37 354.925C332.677 349.339 326.046 346.784 320.263 349.215C314.293 351.726 311.487 358.603 313.998 364.574L322.677 385.216L322.789 385.261C316.407 390.616 310.588 396.61 305.429 403.142L305.285 402.796L284.551 394.338C278.553 391.892 271.707 394.771 269.261 400.768C266.815 406.763 269.692 413.605 275.684 416.054L292.68 422.988C289.229 429.728 286.394 436.831 284.25 444.224L267.053 437.21L266.49 436.998C260.635 434.952 254.14 437.834 251.77 443.642C249.324 449.64 252.203 456.485 258.2 458.932L278.935 467.391L279.983 466.95C279.664 470.523 279.501 474.14 279.501 477.796C279.501 482.832 279.812 487.796 280.414 492.671L279.067 492.122L258.425 500.802C252.454 503.313 249.648 510.19 252.159 516.161C254.669 522.129 261.54 524.933 267.51 522.427L285.343 514.927C287.714 522.244 290.769 529.256 294.43 535.891L276.366 543.489L275.817 543.738C270.231 546.431 267.677 553.062 270.108 558.844C272.619 564.815 279.496 567.621 285.467 565.11L306.108 556.429L306.959 554.342C312.586 561.183 318.95 567.401 325.933 572.878L323.689 573.822L315.231 594.557C312.785 600.555 315.664 607.4 321.661 609.847C327.656 612.293 334.498 609.416 336.947 603.423L344.503 584.899C351.202 588.419 358.271 591.337 365.636 593.583L358.102 612.054L357.89 612.618C355.844 618.473 358.727 624.968 364.535 627.337C370.532 629.784 377.378 626.905 379.825 620.908L388.283 600.172L387.412 598.101C392.033 598.629 396.733 598.901 401.497 598.901C405.623 598.901 409.701 598.697 413.721 598.299L413.012 600.039L421.694 620.683C424.205 626.653 431.081 629.457 437.052 626.947C443.022 624.436 445.828 617.56 443.318 611.589L435.926 594.009C443.322 591.853 450.427 589.021 457.168 585.584L464.38 602.733C466.891 608.703 473.765 611.507 479.735 608.998C485.706 606.487 488.512 599.612 486.002 593.641L477.321 572.998L477.049 572.886C483.624 567.731 489.651 561.917 495.031 555.546L515.449 563.877C521.446 566.323 528.291 563.443 530.738 557.446C533.184 551.449 530.307 544.603 524.31 542.156L508.635 535.761C512.289 529.121 515.333 522.103 517.696 514.782L532.94 521.001C538.937 523.447 545.781 520.569 548.228 514.572C550.675 508.575 547.797 501.73 541.8 499.283L522.719 491.499C523.23 487.001 523.494 482.429 523.494 477.796C523.494 473.572 523.274 469.398 522.849 465.286L541.575 457.414C547.545 454.903 550.349 448.027 547.839 442.056C545.328 436.086 538.453 433.279 532.482 435.79L518.034 441.864C515.739 434.521 512.757 427.478 509.167 420.807L523.626 414.728C529.596 412.217 532.4 405.343 529.89 399.373C527.38 393.402 520.504 390.596 514.533 393.106L495.812 400.976C490.227 394.226 483.921 388.087 477.01 382.673L484.768 363.659C487.214 357.661 484.336 350.816 478.339 348.37C472.342 345.924 465.496 348.801 463.049 354.797L456.899 369.87C450.151 366.449 443.04 363.635 435.638 361.498L441.893 346.168C444.339 340.17 441.461 333.326 435.465 330.879Z" fill="white"/>
</svg>
