<svg width="2463" height="1094" viewBox="0 0 2463 1094" fill="none" xmlns="http://www.w3.org/2000/svg">
<path d="M432.368 240.369C456.554 240.369 476.16 259.976 476.16 284.161V294.503L483.473 287.19C500.574 270.089 528.302 270.089 545.403 287.19C554.471 296.258 558.73 308.313 558.182 320.188C570.056 319.639 582.111 323.898 591.179 332.966C608.281 350.068 608.281 377.796 591.179 394.897L583.867 402.209H594.208C618.394 402.209 638 421.815 638 446.001C638 458.825 632.487 470.36 623.703 478.369C632.487 486.378 638 497.914 638 510.737C638 534.923 618.394 554.529 594.208 554.529H583.865L591.179 561.843C608.281 578.945 608.281 606.673 591.179 623.774C582.111 632.842 570.057 637.101 558.183 636.553C558.73 648.427 554.472 660.481 545.404 669.549C528.302 686.651 500.574 686.651 483.473 669.549L476.16 662.236V672.577C476.16 696.763 456.554 716.369 432.368 716.369C419.545 716.369 408.009 710.858 400 702.074C391.991 710.858 380.455 716.369 367.632 716.369C343.446 716.369 323.84 696.763 323.84 672.577V662.236L316.527 669.549C299.425 686.651 271.698 686.651 254.596 669.549C245.528 660.481 241.269 648.427 241.816 636.553C229.943 637.1 217.889 632.841 208.821 623.773C191.719 606.672 191.719 578.944 208.821 561.842L216.134 554.529H205.792C181.606 554.529 162 534.923 162 510.737C162 497.914 167.512 486.378 176.295 478.369C167.512 470.36 162 458.824 162 446.001C162 421.815 181.606 402.209 205.792 402.209H216.133L208.821 394.897C191.719 377.796 191.719 350.069 208.821 332.967C217.889 323.899 229.943 319.639 241.816 320.187C241.269 308.313 245.529 296.259 254.597 287.191C271.699 270.09 299.426 270.09 316.527 287.191L323.84 294.504V284.161C323.84 259.976 343.446 240.369 367.632 240.369C380.455 240.369 391.991 245.882 400 254.666C408.009 245.882 419.544 240.369 432.368 240.369ZM432.368 263.217C420.801 263.217 411.424 272.594 411.424 284.161L411.423 312.522C406.167 316.135 401.851 321.239 399.19 327.534C396.774 321.984 393.069 317.383 388.576 313.933V284.161C388.576 272.594 379.199 263.217 367.632 263.217C356.065 263.217 346.688 272.594 346.688 284.161V313.717C342.116 317.156 338.553 321.625 336.197 326.646C331.651 325.058 326.768 324.412 321.857 324.833L300.371 303.347C292.192 295.168 278.931 295.168 270.752 303.347C262.577 311.522 262.573 324.775 270.74 332.955L290.806 353.02C289.644 359.29 290.2 365.951 292.771 372.284C287.137 370.068 281.264 369.435 275.646 370.173L254.584 349.11L253.802 348.368C245.58 340.952 232.896 341.203 224.977 349.122C216.798 357.301 216.798 370.562 224.977 378.741L245.876 399.641C245.075 405.306 245.715 410.984 247.6 416.2C243.264 418.292 239.354 421.288 236.18 425.057L205.792 425.058C194.225 425.058 184.848 434.434 184.848 446.001C184.848 457.562 194.217 466.936 205.775 466.945H234.151C237.764 472.202 242.868 476.519 249.164 479.18C243.614 481.595 239.014 485.3 235.563 489.793H205.775L204.697 489.821C193.639 490.391 184.848 499.538 184.848 510.737C184.848 522.304 194.225 531.681 205.792 531.681H235.346C238.786 536.254 243.254 539.818 248.275 542.174C246.688 546.719 246.042 551.602 246.463 556.511L224.977 577.998C216.798 586.177 216.798 599.438 224.977 607.617C233.152 615.792 246.404 615.796 254.584 607.629L274.647 587.564C280.919 588.727 287.58 588.171 293.914 585.601C291.698 591.233 291.065 597.105 291.803 602.722L270.74 623.785L269.997 624.567C262.581 632.789 262.833 645.473 270.752 653.393C278.931 661.572 292.192 661.572 300.371 653.393L321.269 632.494C326.935 633.296 332.614 632.656 337.83 630.771C339.922 635.108 342.919 639.018 346.688 642.192V672.577C346.688 684.144 356.065 693.521 367.632 693.521C379.193 693.521 388.567 684.153 388.576 672.594V644.218C393.832 640.605 398.148 635.502 400.809 629.206C403.224 634.756 406.93 639.356 411.423 642.806L411.424 672.594L411.452 673.672C412.022 684.73 421.168 693.521 432.368 693.521C443.935 693.521 453.312 684.144 453.312 672.577L453.311 643.021C457.883 639.582 461.445 635.116 463.801 630.096C468.347 631.683 473.231 632.328 478.142 631.906L499.629 653.394C507.808 661.572 521.069 661.573 529.248 653.394C537.427 645.215 537.427 631.954 529.248 623.774L509.193 603.72C510.355 597.449 509.799 590.789 507.229 584.456C512.861 586.672 518.735 587.303 524.352 586.565L545.404 607.618C553.583 615.797 566.844 615.797 575.023 607.618C583.202 599.439 583.202 586.178 575.023 577.999L554.123 557.099C554.924 551.434 554.284 545.758 552.4 540.543C556.738 538.451 560.649 535.452 563.823 531.681H594.208C605.775 531.681 615.152 522.304 615.152 510.737C615.152 499.17 605.775 489.793 594.208 489.793H565.848C562.235 484.538 557.132 480.222 550.837 477.562C556.387 475.145 560.987 471.439 564.438 466.945H594.208C605.775 466.945 615.152 457.568 615.152 446.001C615.152 434.434 605.775 425.057 594.208 425.057H564.648C561.21 420.486 556.744 416.925 551.726 414.57C553.313 410.024 553.958 405.139 553.536 400.228L575.023 378.741C583.202 370.562 583.202 357.301 575.023 349.122C566.844 340.943 553.582 340.943 545.403 349.122L525.349 369.176C519.078 368.014 512.418 368.571 506.085 371.142C508.301 365.508 508.933 359.635 508.195 354.018L529.248 332.966C537.427 324.787 537.427 311.526 529.248 303.347C521.069 295.168 507.808 295.168 499.629 303.347L478.727 324.247C473.063 323.446 467.386 324.087 462.172 325.971C460.08 321.633 457.082 317.723 453.312 314.549L453.312 284.161C453.312 272.594 443.935 263.217 432.368 263.217Z" fill="#B49C81"/>
<path fill-rule="evenodd" clip-rule="evenodd" d="M399.19 327.533C406.545 310.13 426.55 301.829 444.094 308.986C452.34 312.35 458.585 318.534 462.172 325.969C469.935 323.165 478.723 323.113 486.969 326.476C504.513 333.634 513.002 353.558 506.085 371.14C523.592 364.035 543.607 372.311 550.952 389.778C554.404 397.987 554.447 406.776 551.725 414.569C559.198 418.076 565.449 424.253 568.901 432.462C576.246 449.928 568.16 470.019 550.837 477.56C568.24 484.916 576.541 504.92 569.384 522.465C566.02 530.71 559.836 536.955 552.4 540.542C555.205 548.305 555.257 557.093 551.893 565.338C544.736 582.883 524.811 591.373 507.228 584.455C514.334 601.962 506.06 621.976 488.593 629.321C480.383 632.773 471.594 632.816 463.801 630.094C460.294 637.567 454.117 643.818 445.909 647.27C428.442 654.615 408.349 646.529 400.808 629.205C393.454 646.609 373.449 654.912 355.904 647.755C347.659 644.391 341.416 638.205 337.83 630.77C330.066 633.576 321.277 633.628 313.031 630.264C295.486 623.107 286.997 603.182 293.914 585.599C276.407 592.705 256.392 584.43 249.047 566.964C245.595 558.755 245.554 549.966 248.275 542.173C240.802 538.666 234.55 532.489 231.097 524.28C223.752 506.813 231.84 486.72 249.164 479.178C231.76 471.824 223.458 451.819 230.615 434.274C233.979 426.029 240.164 419.785 247.599 416.199C244.794 408.435 244.742 399.646 248.105 391.4C255.263 373.855 275.188 365.366 292.77 372.283C285.665 354.776 293.94 334.761 311.407 327.416C319.616 323.964 328.404 323.923 336.197 326.644C339.703 319.171 345.882 312.919 354.091 309.467C371.558 302.122 391.649 310.209 399.19 327.533ZM435.465 330.141C429.467 327.695 422.622 330.573 420.175 336.57L412.083 356.402C408.594 356.104 405.063 355.951 401.497 355.951C396.499 355.951 391.572 356.252 386.731 356.832L378.305 336.794C375.795 330.823 368.918 328.017 362.947 330.528C356.979 333.038 354.174 339.911 356.68 345.88L363.442 361.961C356.124 364.344 349.111 367.396 342.476 371.044L335.619 354.736L335.37 354.187C332.677 348.601 326.046 346.046 320.263 348.477C314.293 350.988 311.487 357.865 313.998 363.836L322.677 384.478L322.789 384.523C316.407 389.878 310.588 395.871 305.429 402.404L305.285 402.058L284.551 393.6C278.553 391.154 271.707 394.033 269.261 400.03C266.815 406.025 269.692 412.867 275.684 415.316L292.68 422.25C289.229 428.989 286.394 436.093 284.25 443.486L267.053 436.471L266.49 436.26C260.635 434.214 254.14 437.096 251.77 442.904C249.324 448.902 252.203 455.747 258.2 458.194L278.935 466.653L279.983 466.212C279.664 469.784 279.501 473.402 279.501 477.057C279.501 482.093 279.812 487.058 280.414 491.932L279.067 491.384L258.425 500.064C252.454 502.575 249.648 509.452 252.159 515.423C254.669 521.391 261.54 524.195 267.51 521.689L285.343 514.189C287.714 521.506 290.769 528.518 294.43 535.153L276.366 542.751L275.817 543C270.231 545.693 267.677 552.324 270.108 558.106C272.619 564.077 279.496 566.882 285.467 564.372L306.108 555.691L306.959 553.604C312.586 560.445 318.95 566.663 325.933 572.139L323.689 573.084L315.231 593.819C312.785 599.817 315.664 606.662 321.661 609.109C327.656 611.554 334.498 608.678 336.947 602.685L344.503 584.161C351.202 587.681 358.271 590.599 365.636 592.844L358.102 611.316L357.89 611.88C355.844 617.734 358.727 624.23 364.535 626.599C370.532 629.046 377.378 626.167 379.825 620.17L388.283 599.434L387.412 597.363C392.033 597.89 396.733 598.163 401.497 598.163C405.623 598.163 409.701 597.958 413.721 597.561L413.012 599.301L421.694 619.945C424.205 625.915 431.081 628.719 437.052 626.209C443.022 623.698 445.828 616.822 443.318 610.851L435.926 593.271C443.322 591.115 450.427 588.283 457.168 584.845L464.38 601.995C466.891 607.965 473.765 610.769 479.735 608.259C485.706 605.749 488.512 598.874 486.002 592.903L477.321 572.259L477.049 572.148C483.624 566.993 489.651 561.179 495.031 554.808L515.449 563.138C521.446 565.585 528.291 562.705 530.738 556.708C533.184 550.711 530.307 543.865 524.31 541.418L508.635 535.023C512.289 528.382 515.333 521.365 517.696 514.044L532.94 520.262C538.937 522.708 545.781 519.83 548.228 513.834C550.675 507.836 547.797 500.992 541.8 498.545L522.719 490.76C523.23 486.263 523.494 481.69 523.494 477.057C523.494 472.833 523.274 468.66 522.849 464.548L541.575 456.676C547.545 454.164 550.349 447.289 547.839 441.318C545.328 435.348 538.453 432.541 532.482 435.051L518.034 441.126C515.739 433.783 512.757 426.74 509.167 420.069L523.626 413.99C529.596 411.479 532.4 404.605 529.89 398.634C527.38 392.664 520.504 389.858 514.533 392.368L495.812 400.238C490.227 393.488 483.921 387.349 477.01 381.935L484.768 362.921C487.214 356.923 484.336 350.078 478.339 347.632C472.342 345.185 465.496 348.063 463.049 354.059L456.899 369.132C450.151 365.711 443.04 362.897 435.638 360.759L441.893 345.429C444.339 339.432 441.461 332.588 435.465 330.141Z" fill="#B49C81"/>
<path d="M2119.36 653.099H2045.18V302.69H2119.36V653.099Z" fill="black"/>
<path d="M1751.51 653.099L1659.76 420.306V653.099H1592.41V302.69H1681.23L1782.74 562.324L1884.74 302.69H1973.56V653.099H1906.22V418.354L1813.49 653.099H1751.51Z" fill="black"/>
<path d="M1364.06 660.419C1338.68 660.419 1314.93 656.027 1292.8 647.242C1271.01 638.132 1251.81 625.444 1235.22 609.176C1218.95 592.908 1206.26 573.549 1197.15 551.1C1188.04 528.325 1183.48 503.435 1183.48 476.43C1183.48 450.402 1187.88 426.488 1196.66 404.689C1205.45 382.89 1217.81 363.694 1233.75 347.101C1249.69 330.508 1268.4 317.819 1289.88 309.034C1311.68 299.924 1335.43 295.369 1361.13 295.369C1390.74 295.369 1417.25 300.9 1440.68 311.962C1464.43 322.699 1484.28 337.666 1500.22 356.862C1516.49 376.058 1528.53 398.507 1536.33 424.21H1448.98C1445.4 412.172 1439.54 401.598 1431.41 392.488C1423.27 383.053 1413.19 375.57 1401.15 370.038C1389.11 364.507 1375.12 361.742 1359.18 361.742C1340.31 361.742 1323.23 366.297 1307.93 375.407C1292.97 384.192 1281.09 397.368 1272.31 414.938C1263.85 432.182 1259.62 453.33 1259.62 478.382C1259.62 500.832 1263.69 521.004 1271.82 538.899C1279.95 556.793 1291.99 571.109 1307.93 581.846C1324.2 592.257 1344.05 597.463 1367.47 597.463C1384.72 597.463 1399.68 594.372 1412.37 588.19C1425.39 581.683 1435.96 572.898 1444.1 561.836C1452.55 550.449 1458.41 537.597 1461.66 523.282H1360.15V464.229H1540.73C1542.03 492.861 1538.77 519.215 1530.97 543.291C1523.16 567.042 1511.44 587.702 1495.83 605.271C1480.54 622.841 1461.66 636.506 1439.22 646.266C1417.09 655.702 1392.04 660.419 1364.06 660.419Z" fill="black"/>
<path d="M910.315 653.099L818.564 420.306V653.099H751.215V302.69H840.038L941.549 562.324L1043.55 302.69H1132.37V653.099H1065.02V418.354L972.295 653.099H910.315Z" fill="black"/>
<path d="M2238.58 862.313H2267.49L2269.24 867.395H2236.08L2238.58 862.313ZM2272.91 883.976L2252.75 830.818L2232.42 883.976H2226.25L2249.5 824.152H2256.33L2279.49 883.976H2272.91Z" fill="black"/>
<path d="M2195.56 883.976H2189.31V824.152H2195.56V883.976Z" fill="black"/>
<path d="M2156.02 867.396C2156.02 870.562 2155.19 873.478 2153.52 876.144C2151.85 878.755 2149.41 880.866 2146.19 882.477C2142.97 884.032 2139.02 884.81 2134.36 884.81C2129.69 884.81 2125.69 884.004 2122.36 882.393C2119.08 880.782 2116.53 878.561 2114.69 875.728C2112.92 872.839 2111.92 869.506 2111.69 865.729H2118.03C2118.36 869.951 2119.86 873.339 2122.53 875.894C2125.19 878.449 2129.11 879.727 2134.27 879.727C2137.11 879.727 2139.66 879.283 2141.94 878.394C2144.27 877.45 2146.1 876.116 2147.44 874.394C2148.77 872.617 2149.44 870.562 2149.44 868.229C2149.44 865.118 2148.49 862.785 2146.6 861.23C2144.72 859.619 2141.66 858.369 2137.44 857.48L2129.86 855.981C2127.86 855.592 2125.89 855.036 2123.94 854.314C2122.05 853.592 2120.33 852.648 2118.78 851.481C2117.22 850.259 2115.97 848.759 2115.03 846.982C2114.08 845.149 2113.61 842.927 2113.61 840.316C2113.61 837.095 2114.47 834.206 2116.19 831.651C2117.91 829.096 2120.3 827.068 2123.36 825.569C2126.41 824.069 2129.94 823.319 2133.94 823.319C2137.88 823.319 2141.41 824.097 2144.52 825.652C2147.63 827.207 2150.16 829.373 2152.1 832.151C2154.05 834.928 2155.1 838.233 2155.27 842.066H2148.85C2148.74 839.4 2148.02 837.039 2146.69 834.984C2145.41 832.929 2143.69 831.318 2141.52 830.151C2139.41 828.985 2136.91 828.401 2134.02 828.401C2130.97 828.401 2128.39 828.957 2126.27 830.068C2124.22 831.179 2122.64 832.595 2121.53 834.317C2120.47 836.039 2119.94 837.928 2119.94 839.983C2119.94 842.316 2120.53 844.177 2121.69 845.565C2122.91 846.954 2124.47 848.037 2126.36 848.815C2128.3 849.537 2130.38 850.12 2132.61 850.565L2140.19 852.148C2145.24 853.203 2149.13 854.897 2151.85 857.23C2154.63 859.508 2156.02 862.896 2156.02 867.396Z" fill="black"/>
<path d="M2080.84 878.56V883.976H2044.93V824.152H2080.26V829.568H2051.18V850.398H2077.76V855.814H2051.18V878.56H2080.84Z" fill="black"/>
<path d="M2003.06 883.976L1968.15 832.984V883.976H1962.32V824.152H1969.23L2003.81 874.478V824.152H2009.73V883.976H2003.06Z" fill="black"/>
<path d="M1900.44 885.226C1896.1 885.226 1892.1 884.421 1888.44 882.81C1884.77 881.199 1881.58 878.977 1878.86 876.144C1876.13 873.311 1874.02 870.006 1872.52 866.229C1871.02 862.396 1870.27 858.314 1870.27 853.981C1870.27 849.648 1871.02 845.593 1872.52 841.816C1874.02 838.039 1876.13 834.734 1878.86 831.901C1881.58 829.068 1884.77 826.874 1888.44 825.319C1892.1 823.708 1896.1 822.902 1900.44 822.902C1904.77 822.902 1908.77 823.708 1912.43 825.319C1916.1 826.874 1919.29 829.068 1922.02 831.901C1924.79 834.734 1926.93 838.039 1928.43 841.816C1929.93 845.593 1930.68 849.648 1930.68 853.981C1930.68 858.314 1929.93 862.396 1928.43 866.229C1926.93 870.006 1924.79 873.311 1922.02 876.144C1919.29 878.977 1916.1 881.199 1912.43 882.81C1908.77 884.421 1904.77 885.226 1900.44 885.226ZM1900.44 879.644C1903.99 879.644 1907.21 879.005 1910.1 877.727C1912.99 876.394 1915.49 874.561 1917.6 872.228C1919.71 869.84 1921.32 867.09 1922.43 863.979C1923.6 860.869 1924.18 857.536 1924.18 853.981C1924.18 850.426 1923.6 847.093 1922.43 843.983C1921.32 840.872 1919.71 838.178 1917.6 835.9C1915.49 833.567 1912.99 831.762 1910.1 830.485C1907.21 829.151 1903.99 828.485 1900.44 828.485C1896.94 828.485 1893.71 829.151 1890.77 830.485C1887.88 831.762 1885.38 833.567 1883.27 835.9C1881.16 838.178 1879.52 840.872 1878.36 843.983C1877.25 847.093 1876.69 850.426 1876.69 853.981C1876.69 857.536 1877.25 860.869 1878.36 863.979C1879.52 867.09 1881.16 869.84 1883.27 872.228C1885.38 874.561 1887.88 876.394 1890.77 877.727C1893.71 879.005 1896.94 879.644 1900.44 879.644Z" fill="black"/>
<path d="M1812.23 883.976H1795.23V824.152H1812.23C1818.62 824.152 1824.03 825.429 1828.48 827.985C1832.92 830.484 1836.28 833.956 1838.56 838.4C1840.84 842.843 1841.97 847.982 1841.97 853.814C1841.97 859.591 1840.81 864.757 1838.48 869.312C1836.14 873.811 1832.73 877.394 1828.23 880.06C1823.78 882.671 1818.45 883.976 1812.23 883.976ZM1801.48 829.568V878.56H1812.06C1817.17 878.56 1821.48 877.533 1824.98 875.477C1828.48 873.422 1831.12 870.534 1832.89 866.812C1834.73 863.09 1835.64 858.758 1835.64 853.814C1835.64 848.87 1834.73 844.593 1832.89 840.983C1831.12 837.317 1828.48 834.511 1824.98 832.567C1821.48 830.568 1817.17 829.568 1812.06 829.568H1801.48Z" fill="black"/>
<path d="M1753.37 883.976L1718.46 832.984V883.976H1712.62V824.152H1719.54L1754.12 874.478V824.152H1760.03V883.976H1753.37Z" fill="black"/>
<path d="M1677.44 883.976H1671.19V824.152H1677.44V883.976Z" fill="black"/>
<path d="M1560.59 862.313H1589.5L1591.25 867.395H1558.09L1560.59 862.313ZM1594.92 883.976L1574.76 830.818L1554.43 883.976H1548.26L1571.51 824.152H1578.34L1601.5 883.976H1594.92Z" fill="black"/>
<path d="M1485.51 883.976H1479.26V824.152H1500.59C1506.98 824.152 1512.01 825.735 1515.68 828.901C1519.34 832.012 1521.17 836.456 1521.17 842.232C1521.17 846.732 1519.79 850.565 1517.01 853.731C1514.29 856.841 1510.57 858.786 1505.84 859.563L1522.76 883.976H1515.26L1499.18 860.313H1485.51V883.976ZM1485.51 829.401V855.064H1500.09C1504.65 855.064 1508.26 853.981 1510.93 851.814C1513.59 849.592 1514.93 846.399 1514.93 842.232C1514.93 838.066 1513.59 834.9 1510.93 832.734C1508.26 830.512 1504.65 829.401 1500.09 829.401H1485.51Z" fill="black"/>
<path d="M1429.13 883.976H1422.96V829.734H1402.88V824.152H1449.21V829.734H1429.13V883.976Z" fill="black"/>
<path d="M1372.78 883.976H1366.53V824.152H1372.78V883.976Z" fill="black"/>
<path d="M1298.32 883.976L1276.65 833.234V883.976H1270.82V824.152H1278.9L1301.07 876.311L1323.4 824.152H1331.4V883.976H1325.65V833.234L1303.82 883.976H1298.32Z" fill="black"/>
<path d="M2027.96 761.98H2014.54V783.976H2008.29V724.152H2027.96C2032.07 724.152 2035.68 724.902 2038.79 726.402C2041.9 727.846 2044.31 729.957 2046.04 732.734C2047.81 735.511 2048.7 738.928 2048.7 742.983C2048.7 747.038 2047.81 750.481 2046.04 753.314C2044.31 756.147 2041.9 758.314 2038.79 759.813C2035.68 761.258 2032.07 761.98 2027.96 761.98ZM2027.87 729.485H2014.54V756.647H2027.87C2032.32 756.647 2035.84 755.453 2038.45 753.064C2041.12 750.676 2042.45 747.315 2042.45 742.983C2042.45 738.65 2041.12 735.317 2038.45 732.984C2035.84 730.651 2032.32 729.485 2027.87 729.485Z" fill="black"/>
<path d="M1973.33 724.152V763.479C1973.33 767.923 1972.41 771.784 1970.58 775.061C1968.8 778.338 1966.27 780.866 1963 782.643C1959.72 784.365 1955.89 785.226 1951.5 785.226C1947.06 785.226 1943.2 784.365 1939.92 782.643C1936.64 780.866 1934.09 778.338 1932.25 775.061C1930.47 771.784 1929.59 767.923 1929.59 763.479V724.152H1935.84V763.813C1935.84 767.035 1936.5 769.84 1937.83 772.228C1939.17 774.617 1941 776.45 1943.33 777.727C1945.67 779.005 1948.39 779.644 1951.5 779.644C1954.61 779.644 1957.33 779.005 1959.66 777.727C1962 776.45 1963.8 774.617 1965.08 772.228C1966.41 769.84 1967.08 767.035 1967.08 763.813V724.152H1973.33Z" fill="black"/>
<path d="M1861.69 783.976H1855.44V724.152H1876.77C1883.16 724.152 1888.19 725.735 1891.86 728.901C1895.52 732.012 1897.35 736.456 1897.35 742.233C1897.35 746.732 1895.97 750.565 1893.19 753.731C1890.47 756.842 1886.75 758.786 1882.02 759.563L1898.94 783.976H1891.44L1875.36 760.313H1861.69V783.976ZM1861.69 729.401V755.064H1876.27C1880.83 755.064 1884.44 753.981 1887.11 751.815C1889.77 749.593 1891.11 746.399 1891.11 742.233C1891.11 738.067 1889.77 734.9 1887.11 732.734C1884.44 730.512 1880.83 729.401 1876.27 729.401H1861.69Z" fill="black"/>
<path d="M1794.21 785.226C1789.94 785.226 1785.97 784.449 1782.3 782.893C1778.63 781.338 1775.41 779.172 1772.63 776.394C1769.91 773.617 1767.77 770.34 1766.22 766.562C1764.72 762.73 1763.97 758.564 1763.97 754.064C1763.97 749.621 1764.69 745.538 1766.13 741.816C1767.63 738.039 1769.72 734.734 1772.38 731.901C1775.05 729.013 1778.19 726.791 1781.8 725.235C1785.47 723.68 1789.46 722.902 1793.8 722.902C1799.02 722.902 1803.6 723.874 1807.55 725.819C1811.49 727.763 1814.77 730.373 1817.38 733.651C1819.99 736.928 1821.85 740.594 1822.96 744.649H1815.88C1815.04 741.65 1813.66 738.928 1811.71 736.484C1809.77 734.04 1807.27 732.095 1804.21 730.651C1801.21 729.207 1797.69 728.485 1793.63 728.485C1789.08 728.485 1785.05 729.596 1781.55 731.818C1778.05 733.984 1775.3 736.984 1773.3 740.816C1771.36 744.649 1770.38 749.093 1770.38 754.148C1770.38 759.036 1771.38 763.424 1773.38 767.312C1775.38 771.201 1778.19 774.256 1781.8 776.478C1785.41 778.699 1789.6 779.81 1794.38 779.81C1798.71 779.81 1802.49 778.977 1805.71 777.311C1808.93 775.589 1811.52 773.173 1813.46 770.062C1815.46 766.951 1816.71 763.313 1817.21 759.147H1793.71V754.064H1823.71C1823.71 758.786 1822.99 763.063 1821.54 766.896C1820.15 770.728 1818.15 774.034 1815.54 776.811C1812.93 779.533 1809.82 781.616 1806.21 783.06C1802.66 784.504 1798.66 785.226 1794.21 785.226Z" fill="black"/>
<path d="M1661.55 783.976H1655.3V724.152H1661.55V752.981L1689.88 724.152H1697.13L1667.97 753.981L1697.96 783.976H1689.88L1661.55 755.897V783.976Z" fill="black"/>
<path d="M1620.12 783.976H1613.87V724.152H1620.12V783.976Z" fill="black"/>
<path d="M1572 783.976L1537.09 732.984V783.976H1531.26V724.152H1538.17L1572.75 774.478V724.152H1578.67V783.976H1572Z" fill="black"/>
<path d="M1459.74 762.313H1488.65L1490.4 767.396H1457.24L1459.74 762.313ZM1494.07 783.976L1473.9 730.818L1453.57 783.976H1447.41L1470.65 724.152H1477.48L1500.65 783.976H1494.07Z" fill="black"/>
<path d="M1393.36 785.226C1389.08 785.226 1385.11 784.449 1381.44 782.893C1377.78 781.338 1374.56 779.172 1371.78 776.394C1369.06 773.617 1366.92 770.34 1365.36 766.562C1363.86 762.73 1363.11 758.564 1363.11 754.064C1363.11 749.621 1363.84 745.538 1365.28 741.816C1366.78 738.039 1368.86 734.734 1371.53 731.901C1374.2 729.013 1377.33 726.791 1380.94 725.235C1384.61 723.68 1388.61 722.902 1392.94 722.902C1398.16 722.902 1402.75 723.874 1406.69 725.819C1410.63 727.763 1413.91 730.373 1416.52 733.651C1419.13 736.928 1420.99 740.594 1422.11 744.649H1415.02C1414.19 741.65 1412.8 738.928 1410.86 736.484C1408.91 734.04 1406.41 732.095 1403.36 730.651C1400.36 729.207 1396.83 728.485 1392.78 728.485C1388.22 728.485 1384.19 729.596 1380.69 731.818C1377.2 733.984 1374.45 736.984 1372.45 740.816C1370.5 744.649 1369.53 749.093 1369.53 754.148C1369.53 759.036 1370.53 763.424 1372.53 767.312C1374.53 771.201 1377.33 774.256 1380.94 776.478C1384.56 778.699 1388.75 779.81 1393.53 779.81C1397.86 779.81 1401.64 778.977 1404.86 777.311C1408.08 775.589 1410.66 773.173 1412.61 770.062C1414.61 766.951 1415.86 763.313 1416.36 759.147H1392.86V754.064H1422.86C1422.86 758.786 1422.13 763.063 1420.69 766.896C1419.3 770.728 1417.3 774.034 1414.69 776.811C1412.08 779.533 1408.97 781.616 1405.36 783.06C1401.8 784.504 1397.8 785.226 1393.36 785.226Z" fill="black"/>
<path d="M1298.32 783.976L1276.65 733.234V783.976H1270.82V724.152H1278.9L1301.07 776.311L1323.4 724.152H1331.4V783.976H1325.65V733.234L1303.82 783.976H1298.32Z" fill="black"/>
</svg>
